<svg xmlns="http://www.w3.org/2000/svg" width="560" height="520" viewBox="0 0 560 520">
  <defs>
    <marker id="arrow" markerWidth="7" markerHeight="7" refX="6" refY="3.5" orient="auto" markerUnits="strokeWidth">
      <path d="M0,0 L7,3.5 L0,7 L1.8,3.5 Z" fill="#111"/>
    </marker>
  </defs>
  <rect width="100%" height="100%" fill="white"/>
  <!-- 磁场区域左边界 -->
  <line x1="220" y1="80" x2="220" y2="440" stroke="#111" stroke-width="5" stroke-dasharray="13 11"/>
  <!-- 速度矢量 -->
  <circle cx="120" cy="350" r="7" fill="#111"/>
  <line x1="120" y1="350" x2="214" y2="217" stroke="#111" stroke-width="6" stroke-linecap="round" marker-end="url(#arrow)"/>
  <!-- 垂直纸面向里的匀强磁场 -->
  <g stroke="#111" stroke-width="5" stroke-linecap="round">
    <path d="M285 155 L317 187 M317 155 L285 187"/>
    <path d="M430 155 L462 187 M462 155 L430 187"/>
    <path d="M285 315 L317 347 M317 315 L285 347"/>
    <path d="M430 315 L462 347 M462 315 L430 347"/>
  </g>
  <!-- 标注 -->
  <text x="247" y="103" font-family="Times New Roman, STIX Two Math, serif" font-size="47" font-style="italic">P</text>
  <text x="82" y="262" font-family="Times New Roman, STIX Two Math, serif" font-size="46" font-style="italic">v</text>
  <line x1="79" y1="216" x2="113" y2="216" stroke="#111" stroke-width="2.8" marker-end="url(#arrow)"/>
  <text x="348" y="285" font-family="Times New Roman, STIX Two Math, serif" font-size="48" font-style="italic">B</text>
  <line x1="342" y1="238" x2="382" y2="238" stroke="#111" stroke-width="2.8" marker-end="url(#arrow)"/>
</svg>
