<?xml version="1.0" encoding="UTF-8" standalone="no"?>
<!-- Created with Inkscape (http://www.inkscape.org/) -->

<svg
   version="1.1"
   id="svg1"
   width="256.86667"
   height="90.013336"
   viewBox="0 0 256.86667 90.013336"
   sodipodi:docname="25-26-2-电路分析基础-期末-题图12.pdf"
   xmlns:inkscape="http://www.inkscape.org/namespaces/inkscape"
   xmlns:sodipodi="http://sodipodi.sourceforge.net/DTD/sodipodi-0.dtd"
   xmlns="http://www.w3.org/2000/svg"
   xmlns:svg="http://www.w3.org/2000/svg">
  <defs
     id="defs1" />
  <sodipodi:namedview
     id="namedview1"
     pagecolor="#ffffff"
     bordercolor="#111111"
     borderopacity="1"
     inkscape:showpageshadow="0"
     inkscape:pageopacity="0"
     inkscape:pagecheckerboard="1"
     inkscape:deskcolor="#d1d1d1">
    <inkscape:page
       x="0"
       y="0"
       inkscape:label="1"
       id="page1"
       width="256.86667"
       height="90.013336"
       margin="0"
       bleed="0" />
  </sodipodi:namedview>
  <g
     id="g1"
     inkscape:groupmode="layer"
     inkscape:label="1">
    <path
       id="path1"
       d="M 0,0 V 17.85843 M 0,41.66986 V 59.5283 h 51.02426 l -10e-6,-13.88996 m 0,-31.74839 L 51.02426,0 H 0"
       style="fill:none;stroke:#000000;stroke-width:0.3985;stroke-linecap:butt;stroke-linejoin:miter;stroke-miterlimit:10;stroke-dasharray:none;stroke-opacity:1"
       transform="matrix(1.3333333,0,0,-1.3333333,44.649333,87.630667)" />
    <path
       id="path2"
       d="m -11.90572,29.76414 c 0,-6.57542 5.33031,-11.90571 11.90572,-11.90571 6.57541,0 11.90572,5.33029 11.90572,11.90571 0,6.57543 -5.33031,11.90572 -11.90572,11.90572 -6.57541,0 -11.90572,-5.33029 -11.90572,-11.90572 z"
       style="fill:none;stroke:#000000;stroke-width:0.797;stroke-linecap:butt;stroke-linejoin:miter;stroke-miterlimit:10;stroke-dasharray:none;stroke-opacity:1"
       transform="matrix(1.3333333,0,0,-1.3333333,44.649333,87.630667)" />
    <path
       id="path3"
       d="M 0,17.85843 V 41.66986"
       style="fill:none;stroke:#000000;stroke-width:0.797;stroke-linecap:butt;stroke-linejoin:miter;stroke-miterlimit:10;stroke-dasharray:none;stroke-opacity:1"
       transform="matrix(1.3333333,0,0,-1.3333333,44.649333,87.630667)" />
    <path
       id="path4"
       d="m 6.5639375,-2.2974141 c 0.1757812,0 0.3515625,0 0.3515625,-0.1992187 0,-0.1992188 -0.1757813,-0.1992188 -0.3515625,-0.1992188 h -5.390625 c -0.1640625,0 -0.33984375,0 -0.33984375,0.1992188 0,0.1992187 0.17578125,0.1992187 0.33984375,0.1992187 z m 0,0"
       style="fill:#000000;fill-opacity:1;fill-rule:nonzero;stroke:none"
       aria-label="−"
       transform="matrix(1.3333333,0,0,1.3333333,18.529333,63.364)" />
    <path
       id="path5"
       d="m 4.0795625,-2.2968984 h 2.7773437 c 0.140625,0 0.328125,0 0.328125,-0.1992188 0,-0.1992187 -0.1875,-0.1992187 -0.328125,-0.1992187 H 4.0795625 v -2.7890625 c 0,-0.1289063 0,-0.328125 -0.1992188,-0.328125 -0.1992187,0 -0.1992187,0.1992187 -0.1992187,0.328125 v 2.7890625 H 0.8920625 c -0.140625,0 -0.328125,0 -0.328125,0.1992187 0,0.1992188 0.1875,0.1992188 0.328125,0.1992188 H 3.681125 v 2.80078121 c 0,0.12890625 0,0.328125 0.1992187,0.328125 0.1992188,0 0.1992188,-0.19921875 0.1992188,-0.328125 z m 0,0"
       style="fill:#000000;fill-opacity:1;fill-rule:nonzero;stroke:none"
       aria-label="+"
       transform="matrix(1.3333333,0,0,1.3333333,18.529333,39.168)" />
    <g
       id="g5"
       aria-label="˙&#10;U"
       transform="matrix(1.3333333,0,0,1.3333333,10.862667,50.702667)">
      <path
         id="path6"
         d="m 1.9106172,-6.1402813 c 0,-0.2695312 -0.2226563,-0.5273437 -0.5273438,-0.5273437 -0.3398437,0 -0.53906246,0.28125 -0.53906246,0.5273437 0,0.2695313 0.23437496,0.5273438 0.52734376,0.5273438 0.3398437,0 0.5390625,-0.2695313 0.5390625,-0.5273438 z m 0,0"
         style="fill:#000000;fill-opacity:1;fill-rule:nonzero;stroke:none" />
      <path
         id="path7"
         d="m 3.4897187,-3.2369609 c 0.09375,-0.4101563 0.28125,-0.7148438 1.078125,-0.7382813 0.046875,0 0.1640625,-0.011719 0.1640625,-0.1992187 0,-0.011719 0,-0.1171875 -0.1289062,-0.1171875 -0.328125,0 -0.6796875,0.035156 -1.0195313,0.035156 -0.3398437,0 -0.703125,-0.035156 -1.03125,-0.035156 -0.058594,0 -0.1757812,0 -0.1757812,0.1992187 0,0.1171875 0.09375,0.1171875 0.1757812,0.1171875 0.5625,0.011719 0.6796875,0.2109375 0.6796875,0.4335938 0,0.035156 -0.023437,0.1757812 -0.035156,0.2109375 L 2.306125,0.22007031 C 1.9662812,1.5560078 0.81784375,2.4231953 -0.17825,2.4231953 c -0.6796875,0 -1.21875,-0.4335937 -1.21875,-1.2890625 0,-0.023437 0,-0.33984374 0.1171875,-0.77343749 L -0.318875,-3.5182109 c 0.09375,-0.3632813 0.10546875,-0.4570313 0.83203125,-0.4570313 0.26953125,0 0.33984375,0 0.33984375,-0.1992187 0,-0.1171875 -0.10546875,-0.1171875 -0.140625,-0.1171875 -0.26953125,0 -0.99609375,0.035156 -1.265625,0.035156 -0.29296875,0 -0.9960938,-0.035156 -1.2890625,-0.035156 -0.082031,0 -0.1875,0 -0.1875,0.1992187 0,0.1171875 0.09375,0.1171875 0.28125,0.1171875 0.011719,0 0.2109375,0 0.375,0.011719 0.1757812,0.023437 0.2695312,0.035156 0.2695312,0.1640625 0,0.058594 -0.1054687,0.4804687 -0.1757812,0.703125 l -0.2109375,0.878906 c -0.09375,0.3867188 -0.5742188,2.27343751 -0.609375,2.46093751 -0.070312,0.28125 -0.070312,0.43359375 -0.070312,0.57421875 0,1.21875004 0.9023437,1.92187504 1.95703125,1.92187504 1.25390625,0 2.48437495,-1.125 2.81249995,-2.44921879 z m 0,0"
         style="fill:#000000;fill-opacity:1;fill-rule:nonzero;stroke:none" />
    </g>
    <path
       id="path8"
       d="M 0,48.86285 H 1.98425 L 0,53.0794 -1.98425,48.86285 Z"
       style="fill:#000000;fill-opacity:1;fill-rule:nonzero;stroke:#000000;stroke-width:0.3985;stroke-linecap:butt;stroke-linejoin:miter;stroke-miterlimit:10;stroke-dasharray:none;stroke-opacity:1"
       transform="matrix(1.3333333,0,0,-1.3333333,44.649333,87.630667)" />
    <g
       id="g8"
       aria-label="1∠0&#10;◦&#10;A"
       transform="matrix(1.3333333,0,0,1.3333333,49.342667,24.921333)">
      <path
         id="path9"
         d="m 2.9305,-6.3745938 c 0,-0.234375 0,-0.2578125 -0.234375,-0.2578125 -0.609375,0.6328125 -1.4882812,0.6328125 -1.8046875,0.6328125 v 0.3164063 c 0.1992188,0 0.7851563,0 1.3007813,-0.2578125 v 5.15625 c 0,0.3515625 -0.035156,0.48046875 -0.9257813,0.48046875 H 0.95003125 V 4.0625e-4 C 1.3015938,-0.03475 2.1570625,-0.03475 2.5555,-0.03475 c 0.3984375,0 1.265625,0 1.6171875,0.03515625 v -0.3046875 H 3.8562813 C 2.9539375,-0.30428125 2.9305,-0.42146875 2.9305,-0.78475 Z m 0,0"
         style="fill:#000000;fill-opacity:1;fill-rule:nonzero;stroke:none" />
      <path
         id="path10"
         d="m 11.496906,-6.5035 c 0.105469,-0.1171875 0.105469,-0.1757813 0.105469,-0.2109375 0,-0.1054688 -0.08203,-0.1992188 -0.199219,-0.1992188 -0.05859,0 -0.117187,0.035156 -0.210937,0.140625 L 5.6609688,-0.40975 c -0.09375,0.10546875 -0.1171875,0.12890625 -0.1171875,0.2109375 0,0.19921875 0.1875,0.19921875 0.3515625,0.19921875 h 5.3671872 c 0.164063,0 0.339844,0 0.339844,-0.19921875 0,-0.19921875 -0.175781,-0.19921875 -0.339844,-0.19921875 H 6.1765938 Z m 0,0"
         style="fill:#000000;fill-opacity:1;fill-rule:nonzero;stroke:none" />
      <path
         id="path11"
         d="m 16.758625,-3.1870938 c 0,-0.796875 -0.04687,-1.59375 -0.398437,-2.3320312 -0.457032,-0.9609375 -1.277344,-1.1132813 -1.6875,-1.1132813 -0.597657,0 -1.335938,0.2578125 -1.734375,1.1835938 -0.328125,0.6914062 -0.375,1.4648437 -0.375,2.2617187 0,0.75 0.04687,1.640625 0.445312,2.4023438 0.433594,0.80859375 1.160156,1.0078125 1.652344,1.0078125 0.539062,0 1.289062,-0.2109375 1.734375,-1.16015625 C 16.71175,-1.6285 16.758625,-2.4019375 16.758625,-3.1870938 Z M 14.660969,4.0625e-4 c -0.386719,0 -0.984375,-0.24609375 -1.160156,-1.20703125 -0.105469,-0.5976563 -0.105469,-1.5117188 -0.105469,-2.0976563 0,-0.6445312 0,-1.3007812 0.08203,-1.8398437 0.1875,-1.1835938 0.925781,-1.265625 1.183594,-1.265625 0.328125,0 0.984375,0.1757812 1.171875,1.1601562 0.09375,0.5625 0.09375,1.3125 0.09375,1.9453125 0,0.75 0,1.4179688 -0.105469,2.0625 C 15.66878,-0.30428125 15.10628,4.0625e-4 14.660968,4.0625e-4 Z m 0,0"
         style="fill:#000000;fill-opacity:1;fill-rule:nonzero;stroke:none" />
      <path
         id="path12"
         d="m 20.696125,-5.3609219 c 0,-0.84375 -0.679687,-1.5 -1.5,-1.5 -0.84375,0 -1.5,0.6796875 -1.5,1.5 0,0.84375 0.679688,1.5 1.5,1.5 0.832031,0 1.5,-0.6796875 1.5,-1.5 z m -1.5,1.1484375 c -0.65625,0 -1.160156,-0.5273437 -1.160156,-1.1484375 0,-0.6445312 0.515625,-1.1601562 1.160156,-1.1601562 0.65625,0 1.160156,0.5390625 1.160156,1.1601562 0,0.6445313 -0.527343,1.1484375 -1.160156,1.1484375 z m 0,0"
         style="fill:#000000;fill-opacity:1;fill-rule:nonzero;stroke:none" />
      <path
         id="path13"
         d="m 30.534016,4.0625e-4 v -0.3046875 h -0.175782 c -0.597656,0 -0.738281,-0.0703125 -0.84375,-0.3984375 l -2.15625,-6.23437505 c -0.04687,-0.1289062 -0.07031,-0.1992187 -0.222656,-0.1992187 -0.164062,0 -0.1875,0.058594 -0.246094,0.1992187 l -2.0625,5.9648438 c -0.175781,0.50390625 -0.574218,0.65625 -1.113281,0.66796875 V 4.0625e-4 L 24.733234,-0.03475 25.881672,4.0625e-4 v -0.3046875 c -0.503906,0 -0.75,-0.2578125 -0.75,-0.515625 0,-0.0234375 0.01172,-0.12890625 0.02344,-0.140625 l 0.457032,-1.31250005 h 2.460937 l 0.527344,1.52343755 c 0.01172,0.046875 0.02344,0.10546875 0.02344,0.140625 0,0.3046875 -0.550781,0.3046875 -0.820312,0.3046875 V 4.0625e-4 C 28.155109,-0.03475 28.858234,-0.03475 29.233234,-0.03475 Z M 27.955891,-2.5777188 h -2.238282 l 1.113282,-3.234375 z m 0,0"
         style="fill:#000000;fill-opacity:1;fill-rule:nonzero;stroke:none" />
    </g>
    <path
       id="path14"
       d="m 50.86485,46.03685 c 3.28755,0 5.95256,-1.82137 5.95256,-4.06818 0,-2.24681 -2.66501,-4.06817 -5.95256,-4.06817 3.28755,0 5.95256,-1.82137 5.95256,-4.06816 0,-2.24681 -2.66501,-4.06818 -5.95256,-4.06818 3.28755,0 5.95256,-1.82136 5.95256,-4.06818 0,-2.24679 -2.66501,-4.06816 -5.95256,-4.06816 3.28755,0 5.95256,-1.82136 5.95256,-4.06817 0,-2.24681 -2.66501,-4.06818 -5.95256,-4.06818"
       style="fill:none;stroke:#000000;stroke-width:0.797;stroke-linecap:butt;stroke-linejoin:bevel;stroke-miterlimit:10;stroke-dasharray:none;stroke-opacity:1"
       transform="matrix(1.3333333,0,0,-1.3333333,44.649333,87.630667)" />
    <path
       id="path15"
       d="m 76.53639,0 v 13.88995 m 0,31.74839 V 59.5283 l 12.75608,-1e-5 m 0,0 12.75607,1e-5 V 33.73262 m 0,-7.93695 V 0 H 76.53639"
       style="fill:none;stroke:#000000;stroke-width:0.3985;stroke-linecap:butt;stroke-linejoin:miter;stroke-miterlimit:10;stroke-dasharray:none;stroke-opacity:1"
       transform="matrix(1.3333333,0,0,-1.3333333,44.649333,87.630667)" />
    <path
       id="path16"
       d="m 76.69579,13.49144 c -3.28756,0 -5.95256,1.82136 -5.95256,4.06818 0,2.24681 2.665,4.06817 5.95256,4.06817 -3.28756,0 -5.95256,1.82137 -5.95256,4.06816 0,2.24681 2.665,4.06818 5.95256,4.06818 -3.28756,0 -5.95256,1.82137 -5.95256,4.06817 0,2.2468 2.665,4.06817 5.95256,4.06817 -3.28756,0 -5.95256,1.82136 -5.95256,4.06817 0,2.24681 2.665,4.06818 5.95256,4.06818"
       style="fill:none;stroke:#000000;stroke-width:0.797;stroke-linecap:butt;stroke-linejoin:bevel;stroke-miterlimit:10;stroke-dasharray:none;stroke-opacity:1"
       transform="matrix(1.3333333,0,0,-1.3333333,44.649333,87.630667)" />
    <path
       id="path17"
       d="m 87.55624,59.52829 v -1.98425 l 4.21654,1.98425 -4.21654,1.98425 z"
       style="fill:#000000;fill-opacity:1;fill-rule:nonzero;stroke:#000000;stroke-width:0.3985;stroke-linecap:butt;stroke-linejoin:miter;stroke-miterlimit:10;stroke-dasharray:none;stroke-opacity:1"
       transform="matrix(1.3333333,0,0,-1.3333333,44.649333,87.630667)" />
    <g
       id="g17"
       aria-label="˙&#10;I"
       transform="matrix(1.3333333,0,0,1.3333333,163.33733,21.825333)">
      <path
         id="path18"
         d="m 1.9091094,-6.1414609 c 0,-0.2695313 -0.2226563,-0.5273438 -0.5273438,-0.5273438 -0.3398437,0 -0.53906248,0.28125 -0.53906248,0.5273438 0,0.2695312 0.23437498,0.5273437 0.52734378,0.5273437 0.3398437,0 0.5390625,-0.2695312 0.5390625,-0.5273437 z m 0,0"
         style="fill:#000000;fill-opacity:1;fill-rule:nonzero;stroke:none" />
      <path
         id="path19"
         d="m 1.4227812,-3.5164609 c 0.09375,-0.3632813 0.1171875,-0.4570313 0.9023438,-0.4570313 0.2460938,0 0.3164063,0 0.3164063,-0.1875 0,-0.1289062 -0.1054688,-0.1289062 -0.140625,-0.1289062 -0.2929688,0 -1.0312501,0.035156 -1.3125001,0.035156 -0.30468745,0 -1.03124995,-0.035156 -1.33593745,-0.035156 -0.0585938,0 -0.19921875,0 -0.19921875,0.1992187 0,0.1171875 0.09375,0.1171875 0.28125,0.1171875 0.421875,0 0.69140625,0 0.69140625,0.1875 0,0.046875 0,0.070312 -0.0234375,0.1640625 L -0.7451875,1.7452578 c -0.0820313,0.3632813 -0.1171875,0.46875 -0.9023437,0.46875 -0.2226563,0 -0.3164063,0 -0.3164063,0.1992188 0,0.1054687 0.1171875,0.1054687 0.1523438,0.1054687 0.28125,0 1.00781245,-0.035156 1.3007812,-0.035156 0.3046875,0 1.03125,0.035156 1.3359375,0.035156 0.0820313,0 0.1992187,0 0.1992187,-0.1875 0,-0.1171875 -0.0820312,-0.1171875 -0.30468745,-0.1171875 -0.17578125,0 -0.22265625,0 -0.421875,-0.023437 C 0.08684375,2.1671328 0.0516875,2.1319766 0.0516875,2.0147891 c 0,-0.070313 0.01171875,-0.1523438 0.03515625,-0.2226563 z m 0,0"
         style="fill:#000000;fill-opacity:1;fill-rule:nonzero;stroke:none" />
    </g>
    <path
       id="path20"
       d="M 113.95425,33.73262 H 90.1428 m 23.81145,-7.93695 H 90.1428"
       style="fill:none;stroke:#000000;stroke-width:0.797;stroke-linecap:butt;stroke-linejoin:miter;stroke-miterlimit:10;stroke-dasharray:none;stroke-opacity:1"
       transform="matrix(1.3333333,0,0,-1.3333333,44.649333,87.630667)" />
    <path
       id="path21"
       d="m 103.63568,59.5283 c 0,0.87658 -0.71058,1.58716 -1.58714,1.58716 -0.87657,0 -1.58716,-0.71058 -1.58716,-1.58716 0,-0.87655 0.71059,-1.58714 1.58716,-1.58714 0.87656,0 1.58714,0.71059 1.58714,1.58714 z"
       style="fill:#000000;fill-opacity:1;fill-rule:nonzero;stroke:#000000;stroke-width:0.3985;stroke-linecap:butt;stroke-linejoin:miter;stroke-miterlimit:10;stroke-dasharray:none;stroke-opacity:1"
       transform="matrix(1.3333333,0,0,-1.3333333,44.649333,87.630667)" />
    <path
       id="path22"
       d="m 103.63568,0 c 0,0.87656 -0.71058,1.58714 -1.58714,1.58714 -0.87657,0 -1.58716,-0.71058 -1.58716,-1.58714 0,-0.87656 0.71059,-1.58714 1.58716,-1.58714 0.87656,0 1.58714,0.71058 1.58714,1.58714 z"
       style="fill:#000000;fill-opacity:1;fill-rule:nonzero;stroke:#000000;stroke-width:0.3985;stroke-linecap:butt;stroke-linejoin:miter;stroke-miterlimit:10;stroke-dasharray:none;stroke-opacity:1"
       transform="matrix(1.3333333,0,0,-1.3333333,44.649333,87.630667)" />
    <g
       id="g22"
       aria-label="−j1Ω"
       transform="matrix(1.3333333,0,0,1.3333333,200.32267,50.808)">
      <path
         id="path23"
         d="m 6.5636641,-2.2964297 c 0.1757812,0 0.3515625,0 0.3515625,-0.1992187 0,-0.1992188 -0.1757813,-0.1992188 -0.3515625,-0.1992188 h -5.390625 c -0.1640625,0 -0.33984379,0 -0.33984379,0.1992188 0,0.1992187 0.17578129,0.1992187 0.33984379,0.1992187 z m 0,0"
         style="fill:#000000;fill-opacity:1;fill-rule:nonzero;stroke:none" />
      <path
         id="path24"
         d="M 9.8449141,0.50435156 V -4.4058047 l -1.5234375,0.1171875 v 0.3046875 c 0.7734375,0 0.8554687,0.070312 0.8554687,0.5625 v 3.93750001 c 0,0.4453125 -0.082031,1.31249999 -0.7265625,1.31249999 -0.046875,0 -0.2695312,0 -0.5390625,-0.1289062 0.1523438,-0.046875 0.3515625,-0.1875 0.3515625,-0.4570313 0,-0.25781249 -0.1757812,-0.45703124 -0.4570312,-0.45703124 -0.28125,0 -0.4570313,0.19921875 -0.4570313,0.45703124 0,0.515625 0.5625,0.796875 1.125,0.796875 0.75,0 1.3710938,-0.6328125 1.3710938,-1.53515624 z m 0,-6.51562496 c 0,-0.2695313 -0.234375,-0.5273438 -0.5390625,-0.5273438 -0.328125,0 -0.5273438,0.2695313 -0.5273438,0.5273438 0,0.2695312 0.2226563,0.5273437 0.5273438,0.5273437 0.3398437,0 0.5390625,-0.28125 0.5390625,-0.5273437 z m 0,0"
         style="fill:#000000;fill-opacity:1;fill-rule:nonzero;stroke:none" />
      <path
         id="path25"
         d="m 13.72675,-6.3745547 c 0,-0.234375 0,-0.2578125 -0.234375,-0.2578125 -0.609375,0.6328125 -1.488281,0.6328125 -1.804687,0.6328125 v 0.3164063 c 0.199218,0 0.785156,0 1.300781,-0.2578125 v 5.15624996 c 0,0.3515625 -0.03516,0.48046875 -0.925781,0.48046875 H 11.746281 V 4.453125e-4 C 12.097844,-0.03471094 12.953313,-0.03471094 13.35175,-0.03471094 c 0.398438,0 1.265625,0 1.617188,0.0351562525 V -0.30424219 h -0.316407 c -0.902343,0 -0.925781,-0.1171875 -0.925781,-0.48046875 z m 10.444336,4.7578125 h -0.246094 c -0.04687,0.2578125 -0.08203,0.4921875 -0.175781,0.72656251 -0.04687,0.1640625 -0.08203,0.24609375 -0.65625,0.24609375 h -0.796875 c 0.128906,-0.56249996 0.433594,-1.04296876 0.878906,-1.69921876 0.46875,-0.703125 0.878906,-1.3945312 0.878906,-2.1796875 0,-1.3828125 -1.335937,-2.4960937 -3.023437,-2.4960937 -1.710938,0 -3.035156,1.1367187 -3.035156,2.4960937 0,0.7851563 0.398437,1.4765625 0.867187,2.1796875 0.445313,0.65625 0.761719,1.1367188 0.890625,1.69921876 h -0.796875 c -0.574219,0 -0.609375,-0.0820313 -0.65625,-0.234375 -0.08203,-0.22265626 -0.128906,-0.48046876 -0.175781,-0.73828126 h -0.257813 l 0.328125,1.6171875125 h 1.59375 c 0.222657,0 0.257813,0 0.257813,-0.2109375025 0,-0.69140625 -0.316406,-1.57031251 -0.539063,-2.21484371 -0.210937,-0.5742188 -0.492187,-1.359375 -0.492187,-2.109375 0,-1.59375 1.101562,-2.2734375 2.003906,-2.2734375 0.960938,0 2.015625,0.7265625 2.015625,2.2734375 0,0.75 -0.269531,1.5117187 -0.5625,2.3203125 -0.152344,0.421875 -0.46875,1.31249996 -0.46875,2.00390621 0,0.2109375025 0.03516,0.2109375025 0.257813,0.2109375025 h 1.582031 z m 0,0"
         style="fill:#000000;fill-opacity:1;fill-rule:nonzero;stroke:none" />
    </g>
    <path
       id="path26"
       d="m 102.04854,59.5283 9.63792,-1e-5 m 31.7484,0 9.63794,1e-5 m 0,-59.5283 h -51.02426"
       style="fill:none;stroke:#000000;stroke-width:0.3985;stroke-linecap:butt;stroke-linejoin:miter;stroke-miterlimit:10;stroke-dasharray:none;stroke-opacity:1"
       transform="matrix(1.3333333,0,0,-1.3333333,44.649333,87.630667)" />
    <path
       id="path27"
       d="m 111.28796,59.3689 c 0,3.28755 1.82137,5.95256 4.06816,5.95256 2.24682,0 4.06818,-2.66501 4.06818,-5.95256 0,3.28755 1.82137,5.95256 4.06818,5.95256 2.24679,0 4.06816,-2.66501 4.06816,-5.95256 0,3.28755 1.82136,5.95256 4.06817,5.95256 2.24682,0 4.06818,-2.66501 4.06818,-5.95256 0,3.28755 1.82137,5.95256 4.06816,5.95256 2.24681,0 4.06818,-2.66501 4.06818,-5.95256"
       style="fill:none;stroke:#000000;stroke-width:0.797;stroke-linecap:butt;stroke-linejoin:bevel;stroke-miterlimit:10;stroke-dasharray:none;stroke-opacity:1"
       transform="matrix(1.3333333,0,0,-1.3333333,44.649333,87.630667)" />
    <g
       id="g27"
       aria-label="j2Ω"
       transform="matrix(1.3333333,0,0,1.3333333,203.47333,24.474667)">
      <path
         id="path28"
         d="M 2.0971484,0.50532812 V -4.4048281 l -1.52343746,0.1171875 v 0.3046875 c 0.77343746,0 0.85546876,0.070312 0.85546876,0.5625 v 3.93749997 c 0,0.4453125 -0.082031,1.31250003 -0.72656251,1.31250003 -0.046875,0 -0.26953125,0 -0.5390625,-0.1289063 0.15234375,-0.046875 0.3515625,-0.1875 0.3515625,-0.4570312 0,-0.25781253 -0.17578125,-0.45703128 -0.45703125,-0.45703128 -0.28125,0 -0.45703125,0.19921875 -0.45703125,0.45703128 0,0.515625 0.5625,0.796875 1.125,0.796875 0.75000001,0 1.37109371,-0.6328125 1.37109371,-1.53515628 z m 0,-6.51562502 c 0,-0.2695312 -0.234375,-0.5273437 -0.5390625,-0.5273437 -0.328125,0 -0.5273437,0.2695312 -0.5273437,0.5273437 0,0.2695313 0.2226562,0.5273438 0.5273437,0.5273438 0.3398438,0 0.5390625,-0.28125 0.5390625,-0.5273438 z m 0,0"
         style="fill:#000000;fill-opacity:1;fill-rule:nonzero;stroke:none" />
      <path
         id="path29"
         d="M 4.3149219,-0.76029688 5.3696094,-1.7915469 c 1.5585937,-1.3710937 2.15625,-1.9101562 2.15625,-2.90625 0,-1.1367187 -0.9023438,-1.9335937 -2.1210938,-1.9335937 -1.125,0 -1.8515625,0.9140625 -1.8515625,1.8046875 0,0.5507812 0.4921875,0.5507812 0.5273438,0.5507812 0.1640625,0 0.515625,-0.1171875 0.515625,-0.5273437 0,-0.2578125 -0.1875,-0.515625 -0.5273438,-0.515625 -0.082031,0 -0.1054687,0 -0.1289062,0.011719 0.2226562,-0.6445312 0.7617187,-1.0195312 1.3359375,-1.0195312 0.9140625,0 1.3359375,0.8085937 1.3359375,1.6289062 0,0.796875 -0.4921875,1.5820313 -1.0429688,2.203125 L 3.6586719,-0.36185938 C 3.5532031,-0.25639063 3.5532031,-0.23295313 3.5532031,0.00142187 h 3.6914063 l 0.28125,-1.73437497 H 7.2680469 c -0.046875,0.3046875 -0.1171875,0.73828122 -0.2109375,0.89062497 -0.070312,0.0820313 -0.7265625,0.0820313 -0.9492188,0.0820313 z M 16.420391,-1.6157656 h -0.246094 c -0.04687,0.2578125 -0.08203,0.4921875 -0.175781,0.72656247 -0.04687,0.1640625 -0.08203,0.24609375 -0.65625,0.24609375 h -0.796875 c 0.128906,-0.56250002 0.433593,-1.04296872 0.878906,-1.69921872 0.46875,-0.703125 0.878906,-1.3945313 0.878906,-2.1796875 0,-1.3828125 -1.335937,-2.4960938 -3.023437,-2.4960938 -1.710938,0 -3.035157,1.1367188 -3.035157,2.4960938 0,0.7851562 0.398438,1.4765625 0.867188,2.1796875 0.445312,0.65625 0.761719,1.1367187 0.890625,1.69921872 h -0.796875 c -0.574219,0 -0.609375,-0.0820313 -0.65625,-0.234375 -0.08203,-0.22265622 -0.128906,-0.48046872 -0.175781,-0.73828122 h -0.257813 l 0.328125,1.61718747 h 1.59375 c 0.222656,0 0.257813,0 0.257813,-0.2109375 0,-0.69140625 -0.316407,-1.57031247 -0.539063,-2.21484377 -0.210937,-0.5742187 -0.492187,-1.359375 -0.492187,-2.109375 0,-1.59375 1.101562,-2.2734375 2.003906,-2.2734375 0.960937,0 2.015625,0.7265625 2.015625,2.2734375 0,0.75 -0.269531,1.5117188 -0.5625,2.3203125 -0.152344,0.421875 -0.46875,1.31250002 -0.46875,2.00390627 0,0.2109375 0.03516,0.2109375 0.257812,0.2109375 h 1.582032 z m 0,0"
         style="fill:#000000;fill-opacity:1;fill-rule:nonzero;stroke:none" />
    </g>
    <path
       id="path30"
       d="M 4.8167422,-0.89186719 V -1.4426484 H 4.5589297 v 0.55078121 c 0,0.5859375 -0.2460938,0.64453125 -0.3515625,0.64453125 -0.328125,0 -0.375,-0.45703125 -0.375,-0.50390625 V -2.7434297 c 0,-0.4101562 0,-0.8085937 -0.3515625,-1.171875 -0.3867188,-0.3867187 -0.890625,-0.5507812 -1.3710938,-0.5507812 -0.8085937,0 -1.49999996,0.46875 -1.49999996,1.125 0,0.3046875 0.19921875,0.46875 0.45703126,0.46875 0.28125,0 0.4570312,-0.1992188 0.4570312,-0.4570313 0,-0.1171875 -0.046875,-0.4453125 -0.5039062,-0.4570312 0.2695312,-0.3515625 0.75,-0.4570313 1.078125,-0.4570313 0.4804687,0 1.0546875,0.3867188 1.0546875,1.2773438 v 0.3632812 c -0.515625,0.035156 -1.2070313,0.058594 -1.8398438,0.3632813 -0.74999996,0.3398437 -0.99609371,0.8554687 -0.99609371,1.28906246 0,0.80859375 0.97265621,1.0546875 1.59375001,1.0546875 0.65625,0 1.1132812,-0.3984375 1.3125,-0.8671875 0.035156,0.3984375 0.3046875,0.8203125 0.7734375,0.8203125 0.2109375,0 0.8203125,-0.140625 0.8203125,-0.94921875 z M 3.1526797,-1.3957734 c 0,0.94921871 -0.7265625,1.28906246 -1.171875,1.28906246 -0.4804688,0 -0.890625,-0.3515625 -0.890625,-0.85546875 0,-0.53906251 0.4101562,-1.37109371 2.0625,-1.42968751 z m 0,0"
       style="fill:#000000;fill-opacity:1;fill-rule:nonzero;stroke:none"
       aria-label="a"
       transform="matrix(1.3333333,0,0,1.3333333,245.42533,18.904)" />
    <path
       id="path31"
       d="m 154.65994,59.5283 c 0,0.87658 -0.71058,1.58716 -1.58714,1.58716 -0.87656,0 -1.58714,-0.71058 -1.58714,-1.58716 0,-0.87655 0.71058,-1.58714 1.58714,-1.58714 0.87656,0 1.58714,0.71059 1.58714,1.58714 z"
       style="fill:#ffffff;fill-opacity:1;fill-rule:nonzero;stroke:#000000;stroke-width:0.3985;stroke-linecap:butt;stroke-linejoin:miter;stroke-miterlimit:10;stroke-dasharray:none;stroke-opacity:1"
       transform="matrix(1.3333333,0,0,-1.3333333,44.649333,87.630667)" />
    <path
       id="path32"
       d="m 154.65994,0 c 0,0.87656 -0.71058,1.58714 -1.58714,1.58714 -0.87656,0 -1.58714,-0.71058 -1.58714,-1.58714 0,-0.87656 0.71058,-1.58714 1.58714,-1.58714 0.87656,0 1.58714,0.71058 1.58714,1.58714 z"
       style="fill:#ffffff;fill-opacity:1;fill-rule:nonzero;stroke:#000000;stroke-width:0.3985;stroke-linecap:butt;stroke-linejoin:miter;stroke-miterlimit:10;stroke-dasharray:none;stroke-opacity:1"
       transform="matrix(1.3333333,0,0,-1.3333333,44.649333,87.630667)" />
    <path
       id="path33"
       d="m 5.1924219,-2.1555234 c 0,-1.265625 -0.9726563,-2.25 -2.109375,-2.25 -0.7851563,0 -1.2070313,0.46875 -1.3710938,0.65625 v -3.1640625 l -1.42968748,0.1054687 v 0.3164063 c 0.69140625,0 0.77343748,0.070312 0.77343748,0.5507812 V 7.265625e-4 H 1.3017969 L 1.6650781,-0.62036719 c 0.1523438,0.234375 0.5625,0.7265625 1.3007813,0.7265625 1.1835937,0 2.2265625,-0.97265625 2.2265625,-2.26171871 z m -0.8320313,0 c 0,0.3632812 -0.011719,0.9609375 -0.3046875,1.40624996 -0.2109375,0.31640625 -0.5859375,0.64453125 -1.125,0.64453125 -0.4453125,0 -0.8085937,-0.24609375 -1.0429687,-0.609375 -0.140625,-0.2109375 -0.140625,-0.24609375 -0.140625,-0.42187501 v -2.0507812 c 0,-0.1875 0,-0.1992188 0.1054687,-0.3632813 0.3867188,-0.5507812 0.9375,-0.6328125 1.171875,-0.6328125 0.4570313,0 0.8085938,0.2578125 1.0546875,0.6328125 0.2578125,0.4101563 0.28125,0.984375 0.28125,1.3945313 z m 0,0"
       style="fill:#000000;fill-opacity:1;fill-rule:nonzero;stroke:none"
       aria-label="b"
       transform="matrix(1.3333333,0,0,1.3333333,245.05333,82.792)" />
    <path
       id="path34"
       d="m 47.45218,47.62282 c 0,0.98627 -0.68529,1.78578 -1.53066,1.78578 -0.84536,0 -1.53065,-0.79951 -1.53065,-1.78578 0,-0.98625 0.68529,-1.78578 1.53065,-1.78578 0.84537,0 1.53066,0.79953 1.53066,1.78578 z"
       style="fill:#000000;fill-opacity:1;fill-rule:nonzero;stroke:#000000;stroke-width:0.3985;stroke-linecap:butt;stroke-linejoin:miter;stroke-miterlimit:10;stroke-dasharray:none;stroke-opacity:1"
       transform="matrix(1.3333333,0,0,-1.3333333,44.649333,87.630667)" />
    <path
       id="path35"
       d="m 83.16978,47.62282 c 0,0.98627 -0.68528,1.78578 -1.53065,1.78578 -0.84537,0 -1.53066,-0.79951 -1.53066,-1.78578 0,-0.98625 0.68529,-1.78578 1.53066,-1.78578 0.84537,0 1.53065,0.79953 1.53065,1.78578 z"
       style="fill:#000000;fill-opacity:1;fill-rule:nonzero;stroke:#000000;stroke-width:0.3985;stroke-linecap:butt;stroke-linejoin:miter;stroke-miterlimit:10;stroke-dasharray:none;stroke-opacity:1"
       transform="matrix(1.3333333,0,0,-1.3333333,44.649333,87.630667)" />
    <path
       id="path36"
       d="m 2.9284766,-6.3755781 c 0,-0.234375 0,-0.2578125 -0.234375,-0.2578125 -0.609375,0.6328125 -1.4882813,0.6328125 -1.80468754,0.6328125 v 0.3164062 c 0.19921874,0 0.78515624,0 1.30078124,-0.2578125 v 5.15625002 c 0,0.3515625 -0.035156,0.48046875 -0.9257812,0.48046875 H 0.94800781 V -5.78125e-4 C 1.2995703,-0.03573438 2.1550391,-0.03573438 2.5534766,-0.03573438 c 0.3984375,0 1.265625,0 1.6171875,0.035156255 V -0.30526563 H 3.8542578 c -0.9023437,0 -0.9257812,-0.1171875 -0.9257812,-0.48046875 z m 6.7236328,2.6132812 c 0,-0.2929687 -0.234375,-0.5273437 -0.5273438,-0.5273437 -0.28125,0 -0.5273437,0.234375 -0.5273437,0.5273437 0,0.28125 0.2460937,0.5273438 0.5273437,0.5273438 0.2929688,0 0.5273438,-0.2460938 0.5273438,-0.5273438 z m 0,3.23437502 c 0,-0.29296875 -0.234375,-0.52734372 -0.5273438,-0.52734372 -0.28125,0 -0.5273437,0.23437497 -0.5273437,0.52734372 0,0.29296875 0.2460937,0.527343755 0.5273437,0.527343755 0.2929688,0 0.5273438,-0.234375005 0.5273438,-0.527343755 z m 4.8837886,-0.234375 1.054688,-1.03125002 c 1.558594,-1.3710937 2.15625,-1.9101562 2.15625,-2.90625 0,-1.1367187 -0.902344,-1.9335937 -2.121094,-1.9335937 -1.125,0 -1.851562,0.9140625 -1.851562,1.8046875 0,0.5507812 0.492187,0.5507812 0.527343,0.5507812 0.164063,0 0.515625,-0.1171875 0.515625,-0.5273437 0,-0.2578125 -0.1875,-0.515625 -0.527343,-0.515625 -0.08203,0 -0.105469,0 -0.128907,0.011719 0.222657,-0.6445312 0.761719,-1.0195312 1.335938,-1.0195312 0.914062,0 1.335937,0.8085937 1.335937,1.6289062 0,0.796875 -0.492187,1.5820313 -1.042968,2.203125 l -1.910157,2.13281252 C 13.77418,-0.25839063 13.77418,-0.23495313 13.77418,-5.78125e-4 h 3.691406 l 0.28125,-1.734374975 h -0.257813 c -0.04687,0.3046875 -0.117187,0.73828122 -0.210937,0.89062497 -0.07031,0.0820313 -0.726563,0.0820313 -0.949219,0.0820313 z m 0,0"
       style="fill:#000000;fill-opacity:1;fill-rule:nonzero;stroke:none"
       aria-label="1:2"
       transform="matrix(1.3333333,0,0,1.3333333,117.51333,20.477333)" />
  </g>
</svg>
