<?xml version="1.0" encoding="UTF-8" standalone="no"?>
<!-- Created with Inkscape (http://www.inkscape.org/) -->

<svg
   version="1.1"
   id="svg1"
   width="299.21332"
   height="89.573334"
   viewBox="0 0 299.21332 89.573334"
   sodipodi:docname="25-26-2-电路分析基础-期末-题图10.pdf"
   xmlns:inkscape="http://www.inkscape.org/namespaces/inkscape"
   xmlns:sodipodi="http://sodipodi.sourceforge.net/DTD/sodipodi-0.dtd"
   xmlns="http://www.w3.org/2000/svg"
   xmlns:svg="http://www.w3.org/2000/svg">
  <defs
     id="defs1" />
  <sodipodi:namedview
     id="namedview1"
     pagecolor="#ffffff"
     bordercolor="#111111"
     borderopacity="1"
     inkscape:showpageshadow="0"
     inkscape:pageopacity="0"
     inkscape:pagecheckerboard="1"
     inkscape:deskcolor="#d1d1d1">
    <inkscape:page
       x="0"
       y="0"
       inkscape:label="1"
       id="page1"
       width="299.21332"
       height="89.573334"
       margin="0"
       bleed="0" />
  </sodipodi:namedview>
  <g
     id="g1"
     inkscape:groupmode="layer"
     inkscape:label="1">
    <path
       id="path1"
       d="m 71.43365,56.69363 24.94536,-10e-6 m 31.7484,0 24.94539,10e-6 -2e-5,-12.47263 m 0,-31.74839 L 153.0728,0 H 0 v 16.44109 m 0,23.81143 v 16.44111 l 8.99089,-0.20341 m 31.73868,-0.71549 8.99089,-0.2034"
       style="fill:none;stroke:#000000;stroke-width:0.3985;stroke-linecap:butt;stroke-linejoin:miter;stroke-miterlimit:10;stroke-dasharray:none;stroke-opacity:1"
       transform="matrix(1.3333333,0,0,-1.3333333,52.949333,89.308)" />
    <path
       id="path2"
       d="M 70.31136,55.57133 50.42206,50.242"
       style="fill:none;stroke:#000000;stroke-width:3.17429;stroke-linecap:round;stroke-linejoin:miter;stroke-miterlimit:10;stroke-dasharray:none;stroke-opacity:1"
       transform="matrix(1.3333333,0,0,-1.3333333,52.949333,89.308)" />
    <path
       id="path3"
       d="m 63.37929,47.95935 c -1.88477,1.71689 -3.09552,4.1017 -3.32413,6.7146 -0.21096,2.41097 0.43464,4.81993 1.82277,6.80241"
       style="fill:none;stroke:#000000;stroke-width:0.797;stroke-linecap:butt;stroke-linejoin:miter;stroke-miterlimit:10;stroke-dasharray:none;stroke-opacity:1"
       transform="matrix(1.3333333,0,0,-1.3333333,52.949333,89.308)" />
    <path
       id="path4"
       d="m 3.1083,0 c -1.29513,0.25902 -3.62635,0.77707 -5.1805,1.94269 1.29513,-1.42464 1.29513,-2.46074 0,-3.88538 C -0.51805,-0.77707 1.81317,-0.25902 3.1083,0 Z"
       style="fill:#000000;fill-opacity:1;fill-rule:nonzero;stroke:none"
       transform="matrix(1.0296,0.84704,0.84704,-1.0296,137.69616,25.020853)" />
    <path
       id="path5"
       d="m 48.59819,54.44907 c 0.61981,-0.61982 1.62473,-0.61982 2.24455,0 0.61981,0.61981 0.61981,1.62472 0,2.24455 -0.61982,0.61981 -1.62474,0.61981 -2.24455,0 -0.61981,-0.61983 -0.61981,-1.62474 0,-2.24455 z"
       style="fill:#ffffff;fill-opacity:1;fill-rule:nonzero;stroke:#000000;stroke-width:0.3985;stroke-linecap:butt;stroke-linejoin:miter;stroke-miterlimit:10;stroke-dasharray:none;stroke-opacity:1"
       transform="matrix(1.3333333,0,0,-1.3333333,52.949333,89.308)" />
    <path
       id="path6"
       d="m 69.18909,33.85817 c 0.61981,-0.61981 1.62472,-0.61981 2.24455,0 0.61981,0.61981 0.61981,1.62473 0,2.24455 -0.61983,0.61981 -1.62474,0.61981 -2.24455,0 -0.61982,-0.61982 -0.61982,-1.62474 0,-2.24455 z"
       style="fill:#ffffff;fill-opacity:1;fill-rule:nonzero;stroke:#000000;stroke-width:0.3985;stroke-linecap:butt;stroke-linejoin:miter;stroke-miterlimit:10;stroke-dasharray:none;stroke-opacity:1"
       transform="matrix(1.3333333,0,0,-1.3333333,52.949333,89.308)" />
    <path
       id="path7"
       d="m 69.18909,54.44907 c 0.61981,-0.61982 1.62472,-0.61982 2.24455,0 0.61981,0.61981 0.61981,1.62472 0,2.24455 -0.61983,0.61981 -1.62474,0.61981 -2.24455,0 -0.61982,-0.61983 -0.61982,-1.62474 0,-2.24455 z"
       style="fill:#ffffff;fill-opacity:1;fill-rule:nonzero;stroke:#000000;stroke-width:0.3985;stroke-linecap:butt;stroke-linejoin:miter;stroke-miterlimit:10;stroke-dasharray:none;stroke-opacity:1"
       transform="matrix(1.3333333,0,0,-1.3333333,52.949333,89.308)" />
    <path
       id="path8"
       d="m 96.37901,62.64647 h 31.74838 V 50.74077 H 96.37901 Z"
       style="fill:none;stroke:#000000;stroke-width:0.797;stroke-linecap:butt;stroke-linejoin:miter;stroke-miterlimit:10;stroke-dasharray:none;stroke-opacity:1"
       transform="matrix(1.3333333,0,0,-1.3333333,52.949333,89.308)" />
    <path
       id="path9"
       d="M 1.2645234,-0.76028906 2.3192109,-1.7915391 c 1.5585938,-1.3710937 2.15625,-1.9101562 2.15625,-2.90625 0,-1.1367187 -0.9023437,-1.9335937 -2.1210937,-1.9335937 -1.125,0 -1.85156251,0.9140625 -1.85156251,1.8046875 0,0.5507812 0.4921875,0.5507812 0.52734371,0.5507812 0.1640625,0 0.515625,-0.1171875 0.515625,-0.5273437 0,-0.2578125 -0.1875,-0.515625 -0.5273437,-0.515625 -0.0820313,0 -0.10546876,0 -0.12890626,0.011719 C 1.1121797,-5.951695 1.6512422,-6.326695 2.2254609,-6.326695 c 0.9140625,0 1.3359375,0.8085937 1.3359375,1.6289062 0,0.796875 -0.4921875,1.5820313 -1.0429687,2.203125 L 0.60827344,-0.36185156 C 0.50280469,-0.25638281 0.50280469,-0.23294531 0.50280469,0.00142969 H 4.1942109 l 0.28125,-1.73437499 H 4.2176484 c -0.046875,0.3046875 -0.1171875,0.73828124 -0.2109375,0.89062499 -0.070312,0.0820313 -0.7265625,0.0820313 -0.9492187,0.0820313 z M 13.372922,-1.6157578 h -0.246094 c -0.04687,0.2578125 -0.08203,0.4921875 -0.175781,0.72656249 -0.04687,0.1640625 -0.08203,0.24609375 -0.65625,0.24609375 h -0.796875 c 0.128906,-0.56250004 0.433594,-1.04296874 0.878906,-1.69921874 0.46875,-0.703125 0.878906,-1.3945313 0.878906,-2.1796875 0,-1.3828125 -1.335937,-2.4960938 -3.023437,-2.4960938 -1.7109376,0 -3.0351564,1.1367188 -3.0351564,2.4960938 0,0.7851562 0.3984375,1.4765625 0.8671875,2.1796875 0.4453125,0.65625 0.7617188,1.1367187 0.890625,1.69921874 h -0.796875 c -0.5742187,0 -0.609375,-0.0820313 -0.65625,-0.234375 C 7.4197969,-1.1001328 7.3729219,-1.3579453 7.3260469,-1.6157578 H 7.0682344 l 0.328125,1.61718749 h 1.59375 c 0.2226562,0 0.2578125,0 0.2578125,-0.2109375 0,-0.69140625 -0.3164063,-1.57031249 -0.5390625,-2.21484379 -0.2109375,-0.5742187 -0.4921875,-1.359375 -0.4921875,-2.109375 0,-1.59375 1.1015625,-2.2734375 2.0039061,-2.2734375 0.960938,0 2.015625,0.7265625 2.015625,2.2734375 0,0.75 -0.269531,1.5117188 -0.5625,2.3203125 -0.152344,0.421875 -0.46875,1.31250004 -0.46875,2.00390629 0,0.2109375 0.03516,0.2109375 0.257813,0.2109375 h 1.582031 z m 0,0"
       style="fill:#000000;fill-opacity:1;fill-rule:nonzero;stroke:none"
       aria-label="2Ω"
       transform="matrix(1.3333333,0,0,1.3333333,193.396,35.752)" />
    <path
       id="path10"
       d="m 152.91339,44.6195 c 3.28755,0 5.95256,-1.82136 5.95256,-4.06817 0,-2.24681 -2.66501,-4.06818 -5.95256,-4.06818 3.28755,0 5.95256,-1.82136 5.95256,-4.06815 0,-2.24682 -2.66501,-4.06818 -5.95256,-4.06818 3.28755,0 5.95256,-1.82137 5.95256,-4.06818 0,-2.24679 -2.66501,-4.06816 -5.95256,-4.06816 3.28755,0 5.95256,-1.82137 5.95256,-4.06818 0,-2.2468 -2.66501,-4.06817 -5.95256,-4.06817"
       style="fill:none;stroke:#000000;stroke-width:0.797;stroke-linecap:butt;stroke-linejoin:bevel;stroke-miterlimit:10;stroke-dasharray:none;stroke-opacity:1"
       transform="matrix(1.3333333,0,0,-1.3333333,52.949333,89.308)" />
    <g
       id="g10"
       aria-label="0.5H"
       transform="matrix(1.3333333,0,0,1.3333333,267.924,54.374667)">
      <path
         id="path11"
         d="m 4.5833672,-3.18725 c 0,-0.796875 -0.046875,-1.59375 -0.3984375,-2.3320312 -0.4570313,-0.9609375 -1.2773438,-1.1132813 -1.6875,-1.1132813 -0.5976563,0 -1.3359375,0.2578125 -1.73437501,1.1835938 -0.328125,0.6914062 -0.375,1.4648437 -0.375,2.2617187 0,0.75 0.046875,1.640625 0.4453125,2.40234375 0.43359371,0.80859375 1.16015621,1.0078125 1.65234371,1.0078125 0.5390625,0 1.2890625,-0.2109375 1.734375,-1.16015625 0.3164063,-0.6914062 0.3632813,-1.4648437 0.3632813,-2.25 z M 2.4857109,2.5e-4 c -0.3867187,0 -0.984375,-0.24609375 -1.1601562,-1.2070312 C 1.2200859,-1.8044375 1.2200859,-2.7185 1.2200859,-3.3044375 c 0,-0.6445312 0,-1.3007812 0.082031,-1.8398437 0.1875,-1.1835938 0.9257812,-1.265625 1.1835937,-1.265625 0.328125,0 0.984375,0.1757812 1.171875,1.1601562 0.09375,0.5625 0.09375,1.3125 0.09375,1.9453125 0,0.75 0,1.4179688 -0.1054687,2.0625 C 3.4935234,-0.3044375 2.9310234,2.5e-4 2.4857109,2.5e-4 Z m 0,0"
         style="fill:#000000;fill-opacity:1;fill-rule:nonzero;stroke:none" />
      <path
         id="path12"
         d="m 6.8919609,-0.52709375 c 0,-0.29296875 -0.234375,-0.52734375 -0.5273437,-0.52734375 -0.28125,0 -0.5273438,0.234375 -0.5273438,0.52734375 0,0.29296875 0.2460938,0.52734375 0.5273438,0.52734375 0.2929687,0 0.5273437,-0.234375 0.5273437,-0.52734375 z m 0,0"
         style="fill:#000000;fill-opacity:1;fill-rule:nonzero;stroke:none" />
      <path
         id="path13"
         d="m 12.226922,-2.0036562 c 0,-1.1835938 -0.820313,-2.1796875 -1.898438,-2.1796875 -0.4804684,0 -0.9023434,0.1640625 -1.2656246,0.5039062 v -1.9335937 c 0.1992187,0.058594 0.5273437,0.1289062 0.84375,0.1289062 1.2304686,0 1.9335936,-0.9140625 1.9335936,-1.0429687 0,-0.058594 -0.03516,-0.1054688 -0.105469,-0.1054688 -0.01172,0 -0.03516,0 -0.08203,0.023437 -0.199219,0.09375 -0.679687,0.2929688 -1.347656,0.2929688 -0.3984376,0 -0.8554689,-0.070312 -1.3242189,-0.28125 -0.082031,-0.023437 -0.1054687,-0.023437 -0.1289062,-0.023437 -0.09375,0 -0.09375,0.082031 -0.09375,0.234375 v 2.953125 c 0,0.1757812 0,0.2578125 0.140625,0.2578125 0.070312,0 0.082031,-0.035156 0.1289062,-0.09375 0.1054688,-0.1523438 0.4804688,-0.6914063 1.2773439,-0.6914063 0.527344,0 0.773437,0.4570313 0.855469,0.6328125 0.152343,0.375 0.175781,0.7617188 0.175781,1.2539063 0,0.3515625 0,0.9492187 -0.234375,1.3710937 -0.246094,0.38671875 -0.609375,0.64453125 -1.066406,0.64453125 -0.7265629,0 -1.3007816,-0.52734375 -1.4648441,-1.11328125 0.023437,0.011719 0.058594,0.011719 0.1640625,0.011719 0.328125,0 0.5039062,-0.2460938 0.5039062,-0.4804688 0,-0.2460937 -0.1757812,-0.4921875 -0.5039062,-0.4921875 -0.140625,0 -0.4804688,0.070312 -0.4804688,0.5273438 0,0.8554687 0.6796875,1.82812495 1.7929684,1.82812495 1.160157,0 2.179688,-0.9609375 2.179688,-2.22656245 z m 0,0"
         style="fill:#000000;fill-opacity:1;fill-rule:nonzero;stroke:none" />
      <path
         id="path14"
         d="m 21.52575,2.5e-4 v -0.3046875 h -0.246094 c -0.761718,0 -0.785156,-0.1171875 -0.785156,-0.46875 v -5.25 c 0,-0.3632812 0.02344,-0.46875 0.785156,-0.46875 h 0.246094 v -0.3164062 c -0.351562,0.035156 -1.089844,0.035156 -1.464844,0.035156 -0.386718,0 -1.125,0 -1.476562,-0.035156 v 0.3164062 h 0.234375 c 0.773437,0 0.785156,0.1054688 0.785156,0.46875 v 2.3320313 h -2.976562 v -2.3320313 c 0,-0.3632812 0.02344,-0.46875 0.785156,-0.46875 h 0.246094 v -0.3164062 c -0.351563,0.035156 -1.089844,0.035156 -1.464844,0.035156 -0.375,0 -1.125,0 -1.476563,-0.035156 v 0.3164062 h 0.234375 c 0.773438,0 0.796875,0.1054688 0.796875,0.46875 v 5.25 c 0,0.3515625 -0.02344,0.46875 -0.796875,0.46875 H 14.717156 V 2.5e-4 C 15.068719,-0.03490625 15.807,-0.03490625 16.182,-0.03490625 c 0.375,0 1.125,0 1.476563,0.03515625 v -0.3046875 h -0.246094 c -0.761719,0 -0.785156,-0.1171875 -0.785156,-0.46875 v -2.6132812 h 2.976562 v 2.6132812 c 0,0.3515625 -0.01172,0.46875 -0.785156,0.46875 H 18.584344 V 2.5e-4 c 0.351562,-0.03515625 1.089844,-0.03515625 1.464844,-0.03515625 0.375,0 1.125,0 1.476562,0.03515625 z m 0,0"
         style="fill:#000000;fill-opacity:1;fill-rule:nonzero;stroke:none" />
    </g>
    <path
       id="path15"
       d="m 4.0772578,-2.2960156 h 2.7773438 c 0.140625,0 0.328125,0 0.328125,-0.1992188 0,-0.1992187 -0.1875,-0.1992187 -0.328125,-0.1992187 H 4.0772578 v -2.7890625 c 0,-0.1289063 0,-0.328125 -0.1992187,-0.328125 -0.1992188,0 -0.1992188,0.1992187 -0.1992188,0.328125 v 2.7890625 H 0.88975781 c -0.140625,0 -0.328125,0 -0.328125,0.1992187 0,0.1992188 0.1875,0.1992188 0.328125,0.1992188 H 3.6788203 v 2.80078123 c 0,0.12890625 0,0.328125 0.1992188,0.328125 0.1992187,0 0.1992187,-0.19921875 0.1992187,-0.328125 z m 0,0"
       style="fill:#000000;fill-opacity:1;fill-rule:nonzero;stroke:none"
       aria-label="+"
       transform="matrix(1.3333333,0,0,1.3333333,242.216,27.006667)" />
    <path
       id="path16"
       d="m 6.5616328,-2.2967578 c 0.1757813,0 0.3515625,0 0.3515625,-0.1992188 0,-0.1992187 -0.1757812,-0.1992187 -0.3515625,-0.1992187 h -5.390625 c -0.1640625,0 -0.33984374,0 -0.33984374,0.1992187 0,0.1992188 0.17578124,0.1992188 0.33984374,0.1992188 z m 0,0"
       style="fill:#000000;fill-opacity:1;fill-rule:nonzero;stroke:none"
       aria-label="−"
       transform="matrix(1.3333333,0,0,1.3333333,242.216,82.66)" />
    <g
       id="g16"
       aria-label="u(t)"
       transform="matrix(1.3333333,0,0,1.3333333,224.248,54.833333)">
      <path
         id="path17"
         d="m 3.4907578,-0.56347656 c 0.1054688,0.41015625 0.4570313,0.66796875 0.8789063,0.66796875 0.3515625,0 0.5742187,-0.22265625 0.7382812,-0.5390625 0.1757813,-0.36328125 0.3046875,-0.97265629 0.3046875,-0.99609379 0,-0.09375 -0.09375,-0.09375 -0.1289062,-0.09375 -0.09375,0 -0.1054688,0.035156 -0.140625,0.1757813 -0.1289063,0.56249999 -0.328125,1.24218749 -0.7382813,1.24218749 -0.2109375,0 -0.3164062,-0.12890625 -0.3164062,-0.45703125 0,-0.22265625 0.1289062,-0.69140624 0.1992187,-1.04296874 l 0.28125,-1.078125 c 0.035156,-0.140625 0.1289063,-0.5273438 0.1757813,-0.6679688 0.046875,-0.234375 0.140625,-0.609375 0.140625,-0.6679687 0,-0.1875 -0.140625,-0.2695313 -0.28125,-0.2695313 -0.058594,0 -0.3164063,0 -0.3867188,0.3398438 -0.1992187,0.7265625 -0.6328125,2.4726562 -0.75,2.99999999 -0.011719,0.046875 -0.4101562,0.84375 -1.1367187,0.84375 -0.515625,0 -0.6210938,-0.45703125 -0.6210938,-0.8203125 0,-0.56249999 0.28125,-1.34765629 0.5390625,-2.02734379 0.1171875,-0.3046875 0.1757813,-0.4453125 0.1757813,-0.6328125 0,-0.4453125 -0.328125,-0.8203125 -0.8203125,-0.8203125 -0.94921879,0 -1.31250004,1.453125 -1.31250004,1.5351563 0,0.1054687 0.09375,0.1054687 0.1171875,0.1054687 0.09375,0 0.10546875,-0.023437 0.15234375,-0.1875 0.2578125,-0.8671875 0.63281249,-1.2304687 1.00781249,-1.2304687 0.09375,0 0.2578125,0.011719 0.2578125,0.328125 0,0.234375 -0.1171875,0.5273437 -0.1757812,0.6796875 -0.3632813,0.984375 -0.5742188,1.6054687 -0.5742188,2.0859375 0,0.94921874 0.6796875,1.19531249 1.21875,1.19531249 0.65625,0 1.0195313,-0.4453125 1.1953125,-0.66796875 z m 0,0"
         style="fill:#000000;fill-opacity:1;fill-rule:nonzero;stroke:none" />
      <path
         id="path18"
         d="m 8.9956406,2.3896484 c 0,-0.035156 0,-0.046875 -0.1640625,-0.2226562 -1.2421875,-1.25390626 -1.5703125,-3.12890626 -1.5703125,-4.6640625 0,-1.7226563 0.3867188,-3.4570313 1.6054688,-4.7109375 0.1289062,-0.1171875 0.1289062,-0.1289063 0.1289062,-0.1640625 0,-0.070312 -0.035156,-0.1054688 -0.09375,-0.1054688 -0.1054687,0 -0.9960937,0.6796875 -1.5820312,1.9453125 -0.515625,1.1015625 -0.6328125,2.203125 -0.6328125,3.0351563 0,0.7851562 0.1171875,1.99218749 0.65625,3.11718749 0.5976562,1.21875001 1.453125,1.87500001 1.5585937,1.87500001 0.058594,0 0.09375,-0.035156 0.09375,-0.1054688 z m 0,0"
         style="fill:#000000;fill-opacity:1;fill-rule:nonzero;stroke:none" />
      <path
         id="path19"
         d="m 11.62943,-3.9853516 h 0.9375 c 0.199218,0 0.304687,0 0.304687,-0.1992187 0,-0.1054688 -0.105469,-0.1054688 -0.28125,-0.1054688 h -0.878906 c 0.363281,-1.4179687 0.410156,-1.6171875 0.410156,-1.6757812 0,-0.1757813 -0.117187,-0.2695313 -0.292969,-0.2695313 -0.02344,0 -0.304687,0.011719 -0.398437,0.3515625 l -0.386719,1.59375 h -0.9375 c -0.1992186,0 -0.2929686,0 -0.2929686,0.1875 0,0.1171875 0.070312,0.1171875 0.2695316,0.1171875 h 0.878906 c -0.714844,2.8242188 -0.75,3.00000004 -0.75,3.17578129 0,0.5390625 0.375,0.9140625 0.914062,0.9140625 1.007813,0 1.582032,-1.45312499 1.582032,-1.53515629 0,-0.09375 -0.08203,-0.09375 -0.117188,-0.09375 -0.09375,0 -0.105469,0.023437 -0.152344,0.140625 -0.433593,1.03125004 -0.960937,1.27734379 -1.300781,1.27734379 -0.199219,0 -0.304687,-0.12890625 -0.304687,-0.45703125 0,-0.24609375 0.02344,-0.31640625 0.05859,-0.48046874 z m 0,0"
         style="fill:#000000;fill-opacity:1;fill-rule:nonzero;stroke:none" />
      <path
         id="path20"
         d="m 16.059117,-2.4970703 c 0,-0.7734375 -0.117187,-1.9804688 -0.65625,-3.1054688 -0.597656,-1.21875 -1.464844,-1.875 -1.558594,-1.875 -0.05859,0 -0.105468,0.046875 -0.105468,0.1054688 0,0.035156 0,0.046875 0.199218,0.234375 0.972657,0.984375 1.535157,2.5664062 1.535157,4.640625 0,1.71093749 -0.363282,3.45703124 -1.59375,4.7226562 -0.140625,0.1171875 -0.140625,0.1289063 -0.140625,0.1640625 0,0.058594 0.04687,0.1054688 0.105468,0.1054688 0.09375,0 0.996094,-0.6796875 1.582032,-1.94531251 0.503906,-1.1015625 0.632812,-2.20312499 0.632812,-3.04687499 z m 0,0"
         style="fill:#000000;fill-opacity:1;fill-rule:nonzero;stroke:none" />
    </g>
    <path
       id="path21"
       d="m -11.90572,28.3468 c 0,-6.57542 5.33031,-11.90571 11.90572,-11.90571 6.57541,0 11.90572,5.33029 11.90572,11.90571 0,6.57543 -5.33031,11.90572 -11.90572,11.90572 -6.57541,0 -11.90572,-5.33029 -11.90572,-11.90572 z"
       style="fill:none;stroke:#000000;stroke-width:0.797;stroke-linecap:butt;stroke-linejoin:miter;stroke-miterlimit:10;stroke-dasharray:none;stroke-opacity:1"
       transform="matrix(1.3333333,0,0,-1.3333333,52.949333,89.308)" />
    <path
       id="path22"
       d="M 0,16.44109 V 40.25252"
       style="fill:none;stroke:#000000;stroke-width:0.797;stroke-linecap:butt;stroke-linejoin:miter;stroke-miterlimit:10;stroke-dasharray:none;stroke-opacity:1"
       transform="matrix(1.3333333,0,0,-1.3333333,52.949333,89.308)" />
    <path
       id="path23"
       d="m 6.5615938,-2.2956797 c 0.1757812,0 0.3515625,0 0.3515625,-0.1992187 0,-0.1992188 -0.1757813,-0.1992188 -0.3515625,-0.1992188 h -5.390625 c -0.1640625,0 -0.3398438,0 -0.3398438,0.1992188 0,0.1992187 0.1757813,0.1992187 0.3398438,0.1992187 z m 0,0"
       style="fill:#000000;fill-opacity:1;fill-rule:nonzero;stroke:none"
       aria-label="−"
       transform="matrix(1.3333333,0,0,1.3333333,26.829333,66.932)" />
    <path
       id="path24"
       d="m 4.0772188,-2.2970937 h 2.7773437 c 0.140625,0 0.328125,0 0.328125,-0.1992188 0,-0.1992187 -0.1875,-0.1992187 -0.328125,-0.1992187 H 4.0772188 v -2.7890625 c 0,-0.1289063 0,-0.328125 -0.1992188,-0.328125 -0.1992187,0 -0.1992187,0.1992187 -0.1992187,0.328125 v 2.7890625 H 0.88971875 c -0.140625,0 -0.328125,0 -0.328125,0.1992187 0,0.1992188 0.1875,0.1992188 0.328125,0.1992188 H 3.6787813 v 2.8007812 c 0,0.12890625 0,0.328125 0.1992187,0.328125 0.1992188,0 0.1992188,-0.19921875 0.1992188,-0.328125 z m 0,0"
       style="fill:#000000;fill-opacity:1;fill-rule:nonzero;stroke:none"
       aria-label="+"
       transform="matrix(1.3333333,0,0,1.3333333,26.829333,42.734667)" />
    <g
       id="g24"
       aria-label="3V"
       transform="matrix(1.3333333,0,0,1.3333333,7.08,55.902667)">
      <path
         id="path25"
         d="m 2.893125,-3.5041484 c 0.8085938,-0.2695313 1.3945313,-0.9726563 1.3945313,-1.7578125 0,-0.8203125 -0.8789063,-1.3710938 -1.8398438,-1.3710938 C 1.44,-6.6330547 0.69,-6.0353984 0.69,-5.2853984 c 0,0.3398437 0.2109375,0.5273437 0.5039063,0.5273437 0.3046875,0 0.5039062,-0.2226562 0.5039062,-0.515625 0,-0.4921875 -0.46875,-0.4921875 -0.609375,-0.4921875 0.3046875,-0.4921875 0.9609375,-0.6210937 1.3242188,-0.6210937 0.4101562,0 0.9492187,0.2226562 0.9492187,1.1132812 0,0.1289063 -0.011719,0.703125 -0.2695312,1.1367188 -0.3046875,0.4804687 -0.6445313,0.515625 -0.890625,0.515625 -0.082031,0.011719 -0.3164063,0.035156 -0.3867188,0.035156 -0.082031,0.011719 -0.1523437,0.023437 -0.1523437,0.1171875 0,0.1171875 0.070312,0.1171875 0.234375,0.1171875 h 0.4453125 c 0.8085937,0 1.1835937,0.6679688 1.1835937,1.6523438 0,1.34765621 -0.6914062,1.64062496 -1.125,1.64062496 -0.4335937,0 -1.171875,-0.17578125 -1.5234375,-0.76171875 0.3515625,0.0585938 0.65625,-0.1640625 0.65625,-0.53906251 0,-0.3632812 -0.2695312,-0.5625 -0.5625,-0.5625 -0.234375,0 -0.55078125,0.140625 -0.55078125,0.5742188 0,0.91406246 0.92578125,1.57031246 2.00390625,1.57031246 1.21875,0 2.1210938,-0.9140625 2.1210938,-1.92187496 0,-0.8203125 -0.6210938,-1.59375 -1.6523438,-1.8046873 z m 0,0"
         style="fill:#000000;fill-opacity:1;fill-rule:nonzero;stroke:none" />
      <path
         id="path26"
         d="m 13.920469,-6.4924297 v -0.3164062 c -0.316406,0.023437 -0.714844,0.035156 -0.972656,0.035156 l -1.136719,-0.035156 v 0.3164062 c 0.515625,0.011719 0.726562,0.2695313 0.726562,0.4921875 0,0.082031 -0.02344,0.140625 -0.04687,0.1992188 l -1.82813,4.80468746 -1.8984372,-5.02734376 c -0.058594,-0.140625 -0.058594,-0.1875 -0.058594,-0.1875 0,-0.28125 0.5625,-0.28125 0.8203125,-0.28125 v -0.3164062 c -0.363281,0.035156 -1.0546873,0.035156 -1.4296873,0.035156 l -1.265625,-0.035156 v 0.3164062 c 0.6445313,0 0.84375,0 0.9726563,0.375 l 2.3203127,6.1171875125 c 0.07031,0.1874999975 0.117187,0.2226562475 0.246094,0.2226562475 0.164062,0 0.1875,-0.0585938 0.234375,-0.1875 l 2.226562,-5.85937496 c 0.140625,-0.375 0.410156,-0.65625 1.089844,-0.667969 z m 0,0"
         style="fill:#000000;fill-opacity:1;fill-rule:nonzero;stroke:none" />
    </g>
    <path
       id="path27"
       d="M 40.59541,49.8237 8.85672,50.5392 9.12505,62.44125 40.86372,61.72575 Z"
       style="fill:none;stroke:#000000;stroke-width:0.797;stroke-linecap:butt;stroke-linejoin:miter;stroke-miterlimit:10;stroke-dasharray:none;stroke-opacity:1"
       transform="matrix(1.3333333,0,0,-1.3333333,52.949333,89.308)" />
    <path
       id="path28"
       d="m 2.9305234,-6.374 c 0,-0.234375 0,-0.2578125 -0.234375,-0.2578125 C 2.0867734,-5.999 1.2078672,-5.999 0.89146094,-5.999 v 0.3164063 c 0.19921876,0 0.78515626,0 1.30078126,-0.2578125 v 5.15624995 c 0,0.3515625 -0.035156,0.48046875 -0.9257813,0.48046875 H 0.95005469 V 0.001 C 1.3016172,-0.03415625 2.1570859,-0.03415625 2.5555234,-0.03415625 c 0.3984375,0 1.265625,0 1.6171875,0.03515625 V -0.3036875 H 3.8563047 c -0.9023438,0 -0.9257813,-0.1171875 -0.9257813,-0.48046875 z M 13.37193,-1.6161875 h -0.246094 c -0.04687,0.2578125 -0.08203,0.4921875 -0.175781,0.7265625 -0.04687,0.1640625 -0.08203,0.24609375 -0.65625,0.24609375 H 11.49693 C 11.625836,-1.2060312 11.930523,-1.6865 12.375836,-2.34275 c 0.46875,-0.703125 0.878906,-1.3945312 0.878906,-2.1796875 0,-1.3828125 -1.335937,-2.4960937 -3.023437,-2.4960937 -1.7109378,0 -3.0351566,1.1367187 -3.0351566,2.4960937 0,0.7851563 0.3984375,1.4765625 0.8671875,2.1796875 0.4453125,0.65625 0.7617188,1.1367188 0.890625,1.69921875 h -0.796875 c -0.5742187,0 -0.609375,-0.0820313 -0.65625,-0.234375 C 7.4188047,-1.1005625 7.3719297,-1.358375 7.3250547,-1.6161875 H 7.0672422 L 7.3953672,0.001 h 1.59375 c 0.2226562,0 0.2578125,0 0.2578125,-0.2109375 0,-0.69140625 -0.3164063,-1.5703125 -0.5390625,-2.2148437 C 8.4969297,-2.999 8.2156797,-3.7841562 8.2156797,-4.5341562 c 0,-1.59375 1.1015625,-2.2734375 2.0039063,-2.2734375 0.960937,0 2.015625,0.7265625 2.015625,2.2734375 0,0.75 -0.269531,1.5117187 -0.5625,2.3203125 -0.152344,0.421875 -0.46875,1.31249995 -0.46875,2.0039062 0,0.2109375 0.03516,0.2109375 0.257812,0.2109375 h 1.582032 z m 0,0"
       style="fill:#000000;fill-opacity:1;fill-rule:nonzero;stroke:none"
       aria-label="1Ω"
       transform="matrix(1.3333333,0,0,1.3333333,76.674667,36.498667)" />
    <path
       id="path29"
       d="M 4.8158125,-0.889375 V -1.4401563 H 4.558 v 0.5507813 c 0,0.5859375 -0.2460937,0.64453125 -0.3515625,0.64453125 -0.328125,0 -0.375,-0.45703125 -0.375,-0.50390625 v -1.9921875 c 0,-0.4101563 0,-0.8085938 -0.3515625,-1.171875 -0.3867187,-0.3867188 -0.890625,-0.5507813 -1.3710937,-0.5507813 -0.8085938,0 -1.50000005,0.46875 -1.50000005,1.125 0,0.3046875 0.19921875,0.46875 0.45703125,0.46875 0.28125,0 0.4570313,-0.1992187 0.4570313,-0.4570312 0,-0.1171875 -0.046875,-0.4453125 -0.5039063,-0.4570313 0.2695313,-0.3515625 0.75,-0.4570312 1.078125,-0.4570312 0.4804688,0 1.0546875,0.3867187 1.0546875,1.2773437 v 0.3632813 c -0.515625,0.035156 -1.2070312,0.058594 -1.8398437,0.3632812 -0.75000005,0.3398438 -0.9960938,0.8554688 -0.9960938,1.28906255 0,0.80859375 0.9726563,1.0546875 1.59375,1.0546875 0.65625,0 1.1132813,-0.3984375 1.3125,-0.8671875 0.035156,0.3984375 0.3046875,0.8203125 0.7734375,0.8203125 0.2109375,0 0.8203125,-0.140625 0.8203125,-0.94921875 z M 3.15175,-1.3932813 c 0,0.9492188 -0.7265625,1.28906255 -1.171875,1.28906255 -0.4804687,0 -0.890625,-0.3515625 -0.890625,-0.85546875 0,-0.5390625 0.4101563,-1.3710938 2.0625,-1.4296875 z m 0,0"
       style="fill:#000000;fill-opacity:1;fill-rule:nonzero;stroke:none"
       aria-label="a"
       transform="matrix(1.3333333,0,0,1.3333333,115.92267,10.373333)" />
    <path
       id="path30"
       d="m 71.43365,0 -0.17947,5.59105 m -0.76337,23.79834 -0.17945,5.59105"
       style="fill:none;stroke:#000000;stroke-width:0.3985;stroke-linecap:butt;stroke-linejoin:miter;stroke-miterlimit:10;stroke-dasharray:none;stroke-opacity:1"
       transform="matrix(1.3333333,0,0,-1.3333333,52.949333,89.308)" />
    <path
       id="path31"
       d="m 58.97333,17.10854 c 0.2108,-6.5718 5.70904,-11.72828 12.28085,-11.51749 6.57179,0.2108 11.72827,5.70905 11.51749,12.28084 -0.2108,6.57181 -5.70905,11.72828 -12.28086,11.5175 -6.57179,-0.2108 -11.72827,-5.70905 -11.51748,-12.28085 z"
       style="fill:none;stroke:#000000;stroke-width:0.797;stroke-linecap:butt;stroke-linejoin:miter;stroke-miterlimit:10;stroke-dasharray:none;stroke-opacity:1"
       transform="matrix(1.3333333,0,0,-1.3333333,52.949333,89.308)" />
    <path
       id="path32"
       d="M 71.25418,5.59105 70.49081,29.38939"
       style="fill:none;stroke:#000000;stroke-width:0.797;stroke-linecap:butt;stroke-linejoin:miter;stroke-miterlimit:10;stroke-dasharray:none;stroke-opacity:1"
       transform="matrix(1.3333333,0,0,-1.3333333,52.949333,89.308)" />
    <path
       id="path33"
       d="m 4.0790469,-2.2981406 h 2.7773437 c 0.140625,0 0.328125,0 0.328125,-0.1992188 0,-0.1992187 -0.1875,-0.1992187 -0.328125,-0.1992187 H 4.0790469 v -2.7890625 c 0,-0.1289063 0,-0.328125 -0.1992188,-0.328125 -0.1992187,0 -0.1992187,0.1992187 -0.1992187,0.328125 v 2.7890625 H 0.89154687 c -0.140625,0 -0.328125,0 -0.328125,0.1992187 0,0.1992188 0.1875,0.1992188 0.328125,0.1992188 H 3.6806094 v 2.80078123 c 0,0.12890625 0,0.328125 0.1992187,0.328125 0.1992188,0 0.1992188,-0.19921875 0.1992188,-0.328125 z m 0,0"
       style="fill:#000000;fill-opacity:1;fill-rule:nonzero;stroke:none"
       aria-label="+"
       transform="matrix(1.3333333,0,0,1.3333333,121.72533,82.072)" />
    <path
       id="path34"
       d="m 6.5624141,-2.2978359 c 0.1757812,0 0.3515625,0 0.3515625,-0.1992188 0,-0.1992187 -0.1757813,-0.1992187 -0.3515625,-0.1992187 h -5.390625 c -0.1640625,0 -0.33984379,0 -0.33984379,0.1992187 0,0.1992188 0.17578129,0.1992188 0.33984379,0.1992188 z m 0,0"
       style="fill:#000000;fill-opacity:1;fill-rule:nonzero;stroke:none"
       aria-label="−"
       transform="matrix(1.3333333,0,0,1.3333333,120.94933,57.888)" />
    <g
       id="g34"
       aria-label="6V"
       transform="matrix(1.3333333,0,0,1.3333333,101.58933,71.152)">
      <path
         id="path35"
         d="m 1.3128828,-3.2692734 v -0.234375 c 0,-2.5195313 1.2421875,-2.8828125 1.7460938,-2.8828125 0.234375,0 0.65625,0.058594 0.8789062,0.3984375 -0.1523437,0 -0.5507812,0 -0.5507812,0.4453125 0,0.3164062 0.234375,0.4570312 0.4570312,0.4570312 0.1640625,0 0.4570313,-0.082031 0.4570313,-0.46875 0,-0.5976562 -0.4335938,-1.078125 -1.265625,-1.078125 -1.2773438,0 -2.61328129,1.2890625 -2.61328129,3.4804688 0,2.66015621 1.14843749,3.37499996 2.07421879,3.37499996 1.1132812,0 2.0507812,-0.9375 2.0507812,-2.24999996 0,-1.265625 -0.8789062,-2.2265625 -1.9921875,-2.2265625 -0.6679687,0 -1.0429687,0.5039062 -1.2421875,0.984375 z m 1.1835938,3.21093746 c -0.6210938,0 -0.9257813,-0.59765625 -0.984375,-0.75 C 1.3363203,-1.2770859 1.3363203,-2.0739609 1.3363203,-2.2497422 c 0,-0.7734375 0.3164063,-1.7695312 1.21875,-1.7695312 0.1523438,0 0.609375,0 0.9257813,0.609375 0.1757812,0.375 0.1757812,0.8789062 0.1757812,1.3710937 0,0.4804688 0,0.9726563 -0.1640625,1.33593751 -0.3046875,0.59765625 -0.7617187,0.64453125 -0.9960937,0.64453125 z m 0,0"
         style="fill:#000000;fill-opacity:1;fill-rule:nonzero;stroke:none" />
      <path
         id="path36"
         d="m 13.919328,-6.4919297 v -0.3164062 c -0.316406,0.023437 -0.714844,0.035156 -0.972656,0.035156 l -1.136719,-0.035156 v 0.3164062 c 0.515625,0.011719 0.726563,0.2695313 0.726563,0.4921875 0,0.082031 -0.02344,0.140625 -0.04687,0.1992188 l -1.82813,4.80468746 -1.8984379,-5.02734376 c -0.058594,-0.140625 -0.058594,-0.1875 -0.058594,-0.1875 0,-0.28125 0.5625,-0.28125 0.8203125,-0.28125 v -0.3164062 c -0.3632813,0.035156 -1.0546875,0.035156 -1.4296875,0.035156 l -1.265625,-0.035156 v 0.3164062 c 0.6445312,0 0.84375,0 0.9726562,0.375 L 10.122453,2.578125e-4 c 0.07031,0.1874999975 0.117188,0.2226562475 0.246094,0.2226562475 0.164062,0 0.1875,-0.0585938 0.234375,-0.1875 l 2.226562,-5.85937496 c 0.140625,-0.375 0.410157,-0.65625 1.089844,-0.6679688 z m 0,0"
         style="fill:#000000;fill-opacity:1;fill-rule:nonzero;stroke:none" />
    </g>
    <path
       id="path37"
       d="m 5.191375,-2.1569062 c 0,-1.265625 -0.9726562,-2.25 -2.109375,-2.25 -0.7851562,0 -1.2070312,0.46875 -1.3710937,0.65625 V -6.9147187 L 0.28121875,-6.80925 v 0.3164063 c 0.69140625,0 0.77343755,0.070312 0.77343755,0.5507812 V -6.5625e-4 H 1.30075 L 1.6640313,-0.62175 c 0.1523437,0.234375 0.5625,0.7265625 1.3007812,0.7265625 1.1835938,0 2.2265625,-0.97265625 2.2265625,-2.2617187 z m -0.8320312,0 c 0,0.3632812 -0.011719,0.9609375 -0.3046875,1.40624995 -0.2109375,0.31640625 -0.5859375,0.64453125 -1.125,0.64453125 -0.4453125,0 -0.8085938,-0.24609375 -1.0429688,-0.609375 -0.140625,-0.2109375 -0.140625,-0.24609375 -0.140625,-0.421875 v -2.0507812 c 0,-0.1875 0,-0.1992188 0.1054688,-0.3632813 0.3867187,-0.5507812 0.9375,-0.6328125 1.171875,-0.6328125 0.4570312,0 0.8085937,0.2578125 1.0546875,0.6328125 0.2578125,0.4101563 0.28125,0.984375 0.28125,1.3945313 z m 0,0"
       style="fill:#000000;fill-opacity:1;fill-rule:nonzero;stroke:none"
       aria-label="b"
       transform="matrix(1.3333333,0,0,1.3333333,151.39067,47.204)" />
  </g>
</svg>
