<?xml version="1.0" encoding="UTF-8" standalone="no"?>
<!-- Created with Inkscape (http://www.inkscape.org/) -->

<svg
   version="1.1"
   id="svg1"
   width="224.81332"
   height="123.46667"
   viewBox="0 0 224.81332 123.46667"
   sodipodi:docname="25-26-2-电路分析基础-期末-题图14.pdf"
   xmlns:inkscape="http://www.inkscape.org/namespaces/inkscape"
   xmlns:sodipodi="http://sodipodi.sourceforge.net/DTD/sodipodi-0.dtd"
   xmlns="http://www.w3.org/2000/svg"
   xmlns:svg="http://www.w3.org/2000/svg">
  <defs
     id="defs1" />
  <sodipodi:namedview
     id="namedview1"
     pagecolor="#ffffff"
     bordercolor="#111111"
     borderopacity="1"
     inkscape:showpageshadow="0"
     inkscape:pageopacity="0"
     inkscape:pagecheckerboard="1"
     inkscape:deskcolor="#d1d1d1">
    <inkscape:page
       x="0"
       y="0"
       inkscape:label="1"
       id="page1"
       width="224.81332"
       height="123.46667"
       margin="0"
       bleed="0" />
  </sodipodi:namedview>
  <g
     id="g1"
     inkscape:groupmode="layer"
     inkscape:label="1">
    <path
       id="path1"
       d="m 0,68.03236 20.12634,-1e-5 m 27.77965,0 20.12637,1e-5 -1e-5,-30.04771 m 0,-7.93697 L 68.03236,0 H 0"
       style="fill:none;stroke:#000000;stroke-width:0.3985;stroke-linecap:butt;stroke-linejoin:miter;stroke-miterlimit:10;stroke-dasharray:none;stroke-opacity:1"
       transform="matrix(1.3333333,0,0,-1.3333333,23.912,114.04667)" />
    <g
       id="g2"
       aria-label="1&#10;′"
       transform="matrix(1.3333333,0,0,1.3333333,8.8506667,119.04)">
      <path
         id="path2"
         d="m 2.9303594,-6.3757031 c 0,-0.234375 0,-0.2578125 -0.234375,-0.2578125 -0.609375,0.6328125 -1.4882813,0.6328125 -1.80468753,0.6328125 v 0.3164062 c 0.19921873,0 0.78515623,0 1.30078123,-0.2578125 v 5.15625002 c 0,0.3515625 -0.035156,0.48046875 -0.9257812,0.48046875 H 0.94989062 V -7.03125e-4 C 1.3014531,-0.03585938 2.1569219,-0.03585938 2.5553594,-0.03585938 c 0.3984375,0 1.265625,0 1.6171875,0.035156255 V -0.30539063 H 3.8561406 c -0.9023437,0 -0.9257812,-0.1171875 -0.9257812,-0.48046875 z m 0,0"
         style="fill:#000000;fill-opacity:1;fill-rule:nonzero;stroke:none" />
      <path
         id="path3"
         d="m 7.0084844,-6.9089063 c 0.046875,-0.1171875 0.058594,-0.1757812 0.058594,-0.2226562 0,-0.2109375 -0.1992187,-0.3867188 -0.4101562,-0.3867188 -0.2695313,0 -0.3515625,0.2226563 -0.3867188,0.328125 l -0.9140625,3.0234375 c -0.011719,0.011719 -0.035156,0.1054688 -0.035156,0.1171875 0,0.082031 0.2109375,0.1523438 0.2695312,0.1523438 0.046875,0 0.058594,-0.023437 0.1054688,-0.1289063 z m 0,0"
         style="fill:#000000;fill-opacity:1;fill-rule:nonzero;stroke:none" />
    </g>
    <path
       id="path4"
       d="M 1.58714,0 C 1.58714,0.87656 0.87656,1.58714 0,1.58714 -0.87656,1.58714 -1.58714,0.87656 -1.58714,0 c 0,-0.87656 0.71058,-1.58714 1.58714,-1.58714 0.87656,0 1.58714,0.71058 1.58714,1.58714 z"
       style="fill:#ffffff;fill-opacity:1;fill-rule:nonzero;stroke:#000000;stroke-width:0.3985;stroke-linecap:butt;stroke-linejoin:miter;stroke-miterlimit:10;stroke-dasharray:none;stroke-opacity:1"
       transform="matrix(1.3333333,0,0,-1.3333333,23.912,114.04667)" />
    <path
       id="path5"
       d="m 1.58714,68.03236 c 0,0.87656 -0.71058,1.58714 -1.58714,1.58714 -0.87656,0 -1.58714,-0.71058 -1.58714,-1.58714 0,-0.87657 0.71058,-1.58716 1.58714,-1.58716 0.87656,0 1.58714,0.71059 1.58714,1.58716 z"
       style="fill:#ffffff;fill-opacity:1;fill-rule:nonzero;stroke:#000000;stroke-width:0.3985;stroke-linecap:butt;stroke-linejoin:miter;stroke-miterlimit:10;stroke-dasharray:none;stroke-opacity:1"
       transform="matrix(1.3333333,0,0,-1.3333333,23.912,114.04667)" />
    <path
       id="path6"
       d="m 6.5620703,-2.2957812 c 0.1757813,0 0.3515625,0 0.3515625,-0.1992188 0,-0.1992187 -0.1757812,-0.1992187 -0.3515625,-0.1992187 h -5.390625 c -0.1640625,0 -0.33984374,0 -0.33984374,0.1992187 0,0.1992188 0.17578124,0.1992188 0.33984374,0.1992188 z m 0,0"
       style="fill:#000000;fill-opacity:1;fill-rule:nonzero;stroke:none"
       aria-label="−"
       transform="matrix(1.3333333,0,0,1.3333333,18.746667,103.82667)" />
    <path
       id="path7"
       d="m 4.0776953,-2.2964609 h 2.7773438 c 0.140625,0 0.328125,0 0.328125,-0.1992188 0,-0.1992187 -0.1875,-0.1992187 -0.328125,-0.1992187 H 4.0776953 v -2.7890625 c 0,-0.1289063 0,-0.328125 -0.1992187,-0.328125 -0.1992188,0 -0.1992188,0.1992187 -0.1992188,0.328125 v 2.7890625 H 0.89019531 c -0.140625,0 -0.328125,0 -0.328125,0.1992187 0,0.1992188 0.1875,0.1992188 0.328125,0.1992188 H 3.6792578 v 2.80078121 c 0,0.12890625 0,0.328125 0.1992188,0.328125 0.1992187,0 0.1992187,-0.19921875 0.1992187,-0.328125 z m 0,0"
       style="fill:#000000;fill-opacity:1;fill-rule:nonzero;stroke:none"
       aria-label="+"
       transform="matrix(1.3333333,0,0,1.3333333,18.746667,40.198667)" />
    <g
       id="g7"
       aria-label="˙&#10;U&#10;1"
       transform="matrix(1.3333333,0,0,1.3333333,20.181333,70.453333)">
      <path
         id="path8"
         d="m 1.9089219,-6.1407812 c 0,-0.2695313 -0.2226563,-0.5273438 -0.5273438,-0.5273438 -0.3398437,0 -0.53906247,0.28125 -0.53906247,0.5273438 0,0.2695312 0.23437497,0.5273437 0.52734377,0.5273437 0.3398437,0 0.5390625,-0.2695312 0.5390625,-0.5273437 z m 0,0"
         style="fill:#000000;fill-opacity:1;fill-rule:nonzero;stroke:none" />
      <path
         id="path9"
         d="m 3.4909531,-3.2345312 c 0.09375,-0.4101563 0.28125,-0.7148438 1.078125,-0.7382813 0.046875,0 0.1640625,-0.011719 0.1640625,-0.1992187 0,-0.011719 0,-0.1171875 -0.1289062,-0.1171875 -0.328125,0 -0.6796875,0.035156 -1.0195313,0.035156 -0.3398437,0 -0.703125,-0.035156 -1.03125,-0.035156 -0.058594,0 -0.1757812,0 -0.1757812,0.1992187 0,0.1171875 0.09375,0.1171875 0.1757812,0.1171875 0.5625,0.011719 0.6796875,0.2109375 0.6796875,0.4335938 0,0.035156 -0.023437,0.1757812 -0.035156,0.2109375 L 2.3073594,0.2225 c -0.3398438,1.3359375 -1.48828127,2.203125 -2.48437502,2.203125 -0.6796875,0 -1.21874998,-0.4335937 -1.21874998,-1.2890625 0,-0.023437 0,-0.33984375 0.1171875,-0.7734375 l 0.96093748,-3.8789062 c 0.09375,-0.3632813 0.10546875,-0.4570313 0.83203125,-0.4570313 0.26953125,0 0.33984375,0 0.33984375,-0.1992187 0,-0.1171875 -0.10546875,-0.1171875 -0.140625,-0.1171875 -0.26953125,0 -0.99609375,0.035156 -1.265625,0.035156 -0.29296875,0 -0.99609378,-0.035156 -1.28906248,-0.035156 -0.082031,0 -0.1875,0 -0.1875,0.1992187 0,0.1171875 0.09375,0.1171875 0.28125,0.1171875 0.011719,0 0.2109375,0 0.375,0.011719 0.1757812,0.023437 0.2695312,0.035156 0.2695312,0.1640625 0,0.058594 -0.1054687,0.4804687 -0.1757812,0.703125 L -1.4895156,-2.215 c -0.09375,0.3867188 -0.5742188,2.2734375 -0.609375,2.4609375 -0.070312,0.28125 -0.070312,0.43359375 -0.070312,0.57421875 0,1.21875005 0.9023437,1.92187505 1.95703123,1.92187505 1.25390627,0 2.48437497,-1.125 2.81249997,-2.4492188 z m 0,0"
         style="fill:#000000;fill-opacity:1;fill-rule:nonzero;stroke:none" />
      <path
         id="path10"
         d="m 6.2975938,-0.41910156 c 0,-0.1875 -0.011719,-0.19921875 -0.2109375,-0.19921875 -0.4453125,0.43359375 -1.078125,0.4453125 -1.359375,0.4453125 v 0.24609375 c 0.1640625,0 0.6210937,0 1.0078125,-0.1875 V 3.4363672 c 0,0.234375 0,0.328125 -0.6914063,0.328125 H 4.7741563 v 0.2460937 c 0.1289062,-0.011719 0.984375,-0.023437 1.2421875,-0.023437 0.2109375,0 1.0898437,0.011719 1.2421875,0.023437 V 3.7644922 H 7.0007188 c -0.703125,0 -0.703125,-0.09375 -0.703125,-0.328125 z m 0,0"
         style="fill:#000000;fill-opacity:1;fill-rule:nonzero;stroke:none" />
    </g>
    <path
       id="path11"
       d="m 2.9302812,-6.3751094 c 0,-0.234375 0,-0.2578125 -0.234375,-0.2578125 -0.609375,0.6328125 -1.4882812,0.6328125 -1.80468745,0.6328125 v 0.3164063 c 0.19921875,0 0.78515625,0 1.30078125,-0.2578125 v 5.15624998 c 0,0.3515625 -0.035156,0.48046875 -0.9257813,0.48046875 H 0.9498125 V -1.09375e-4 C 1.301375,-0.03526562 2.1568437,-0.03526562 2.5552812,-0.03526562 c 0.3984375,0 1.265625,0 1.6171875,0.035156245 V -0.30479687 H 3.8560625 c -0.9023438,0 -0.9257813,-0.1171875 -0.9257813,-0.48046875 z m 0,0"
       style="fill:#000000;fill-opacity:1;fill-rule:nonzero;stroke:none"
       aria-label="1"
       transform="matrix(1.3333333,0,0,1.3333333,12.577333,27.617333)" />
    <path
       id="path12"
       d="M 20.12634,68.03235 34.01617,81.92216 47.90599,68.03235 34.01617,54.14252 Z"
       style="fill:none;stroke:#000000;stroke-width:0.797;stroke-linecap:butt;stroke-linejoin:miter;stroke-miterlimit:10;stroke-dasharray:none;stroke-opacity:1"
       transform="matrix(1.3333333,0,0,-1.3333333,23.912,114.04667)" />
    <path
       id="path13"
       d="M 20.12634,68.03235 H 47.90599"
       style="fill:none;stroke:#000000;stroke-width:0.797;stroke-linecap:butt;stroke-linejoin:miter;stroke-miterlimit:10;stroke-dasharray:none;stroke-opacity:1"
       transform="matrix(1.3333333,0,0,-1.3333333,23.912,114.04667)" />
    <path
       id="path14"
       d="m 4.0793359,-2.2957734 h 2.7773438 c 0.140625,0 0.328125,0 0.328125,-0.1992188 0,-0.1992187 -0.1875,-0.1992187 -0.328125,-0.1992187 H 4.0793359 v -2.7890625 c 0,-0.1289063 0,-0.328125 -0.1992187,-0.328125 -0.1992188,0 -0.1992188,0.1992187 -0.1992188,0.328125 v 2.7890625 H 0.89183594 c -0.140625,0 -0.328125,0 -0.328125,0.1992187 0,0.1992188 0.1875,0.1992188 0.328125,0.1992188 H 3.6808984 v 2.80078121 c 0,0.12890625 0,0.328125 0.1992188,0.328125 0.1992187,0 0.1992187,-0.19921875 0.1992187,-0.328125 z m 0,0"
       style="fill:#000000;fill-opacity:1;fill-rule:nonzero;stroke:none"
       aria-label="+"
       transform="matrix(1.3333333,0,0,1.3333333,49.986667,51.104)" />
    <path
       id="path15"
       d="m 6.5616328,-2.2957734 c 0.1757813,0 0.3515625,0 0.3515625,-0.1992188 0,-0.1992187 -0.1757812,-0.1992187 -0.3515625,-0.1992187 h -5.390625 c -0.1640625,0 -0.33984374,0 -0.33984374,0.1992187 0,0.1992188 0.17578124,0.1992188 0.33984374,0.1992188 z m 0,0"
       style="fill:#000000;fill-opacity:1;fill-rule:nonzero;stroke:none"
       aria-label="−"
       transform="matrix(1.3333333,0,0,1.3333333,78.216,51.104)" />
    <g
       id="g15"
       aria-label="4&#10;˙&#10;I&#10;2"
       transform="matrix(1.3333333,0,0,1.3333333,60.046667,66.638667)">
      <path
         id="path16"
         d="m 2.9298437,-1.6420859 v 0.86718746 c 0,0.3515625 -0.023437,0.46875 -0.7617187,0.46875 H 1.9571875 v 0.3046875 c 0.4101562,-0.03515625 0.9375,-0.03515625 1.3476562,-0.03515625 0.421875,0 0.9492188,0 1.359375,0.03515625 v -0.3046875 H 4.4532812 c -0.7382812,0 -0.7617187,-0.1171875 -0.7617187,-0.46875 V -1.6420859 H 4.6876562 V -1.9584922 H 3.6915625 v -4.5234375 c 0,-0.1992187 0,-0.2578125 -0.1523438,-0.2578125 -0.09375,0 -0.1171875,0 -0.1992187,0.1171875 l -3.05859375,4.6640625 v 0.3164063 z m 0.058594,-0.3164063 H 0.56265625 L 2.9884375,-5.6733359 Z m 6.2080078,-6.7001953 c 0,-0.2695312 -0.2226562,-0.5273437 -0.5273437,-0.5273437 -0.3398438,0 -0.5390625,0.28125 -0.5390625,0.5273437 0,0.2695313 0.234375,0.5273438 0.5273437,0.5273438 0.3398438,0 0.5390625,-0.2695313 0.5390625,-0.5273438 z m 0,0"
         style="fill:#000000;fill-opacity:1;fill-rule:nonzero;stroke:none" />
      <path
         id="path17"
         d="m 8.7071875,-6.0366172 c 0.09375,-0.3632812 0.1171875,-0.4570312 0.9023437,-0.4570312 0.2460938,0 0.3164063,0 0.3164063,-0.1875 0,-0.1289063 -0.1054688,-0.1289063 -0.140625,-0.1289063 -0.2929688,0 -1.03125,0.035156 -1.3125,0.035156 -0.3046875,0 -1.03125,-0.035156 -1.3359375,-0.035156 -0.058594,0 -0.1992188,0 -0.1992188,0.1992188 0,0.1171875 0.09375,0.1171875 0.28125,0.1171875 0.421875,0 0.6914063,0 0.6914063,0.1875 0,0.046875 0,0.070312 -0.023437,0.1640625 l -1.3476563,5.36718746 c -0.082031,0.36328125 -0.1171875,0.46875 -0.9023437,0.46875 -0.2226563,0 -0.3164063,0 -0.3164063,0.19921875 0,0.10546875 0.1171875,0.10546875 0.1523438,0.10546875 0.28125,0 1.0078125,-0.03515625 1.3007812,-0.03515625 0.3046875,0 1.03125,0.03515625 1.3359375,0.03515625 0.082031,0 0.1992188,0 0.1992188,-0.1875 0,-0.1171875 -0.082031,-0.1171875 -0.3046875,-0.1171875 -0.1757813,0 -0.2226563,0 -0.421875,-0.0234375 -0.2109375,-0.0234375 -0.2460938,-0.0585938 -0.2460938,-0.17578125 0,-0.0703125 0.011719,-0.15234375 0.035156,-0.22265625 z m 0,0"
         style="fill:#000000;fill-opacity:1;fill-rule:nonzero;stroke:none" />
      <path
         id="path18"
         d="m 12.876133,0.22705469 h -0.234375 c -0.02344,0.15234375 -0.08203,0.5625 -0.175781,0.6328125 -0.05859,0.0351563 -0.597657,0.0351563 -0.691407,0.0351563 h -1.289062 c 0.738281,-0.64453125 0.984375,-0.84375 1.394531,-1.171875 0.515625,-0.41015625 0.996094,-0.84374999 0.996094,-1.49999999 0,-0.8437501 -0.738281,-1.3593751 -1.628906,-1.3593751 -0.867188,0 -1.4531254,0.609375 -1.4531254,1.2421876 0,0.3632813 0.3046874,0.3984375 0.3750004,0.3984375 0.164062,0 0.375,-0.1171875 0.375,-0.375 0,-0.1289062 -0.05859,-0.3632812 -0.421875,-0.3632812 0.222656,-0.5039064 0.691406,-0.65625 1.019531,-0.65625 0.703125,0 1.066406,0.5507811 1.066406,1.1132812 0,0.609375 -0.433594,1.08984374 -0.65625,1.33593749 L 9.8644141,1.2231484 c -0.070312,0.058594 -0.070312,0.070312 -0.070312,0.2695313 h 2.8828129 z m 0,0"
         style="fill:#000000;fill-opacity:1;fill-rule:nonzero;stroke:none" />
    </g>
    <path
       id="path19"
       d="M 8.32695,68.03235 V 66.0481 l 4.21654,1.98425 -4.21654,1.98425 z"
       style="fill:#000000;fill-opacity:1;fill-rule:nonzero;stroke:#000000;stroke-width:0.3985;stroke-linecap:butt;stroke-linejoin:miter;stroke-miterlimit:10;stroke-dasharray:none;stroke-opacity:1"
       transform="matrix(1.3333333,0,0,-1.3333333,23.912,114.04667)" />
    <g
       id="g19"
       aria-label="˙&#10;I&#10;1"
       transform="matrix(1.3333333,0,0,1.3333333,34.502667,13.293333)">
      <path
         id="path20"
         d="m 1.9110859,-6.1408984 c 0,-0.2695313 -0.2226562,-0.5273438 -0.5273437,-0.5273438 -0.3398438,0 -0.53906251,0.28125 -0.53906251,0.5273438 0,0.2695312 0.23437501,0.5273437 0.52734371,0.5273437 0.3398438,0 0.5390625,-0.2695312 0.5390625,-0.5273437 z m 0,0"
         style="fill:#000000;fill-opacity:1;fill-rule:nonzero;stroke:none" />
      <path
         id="path21"
         d="m 1.4218281,-3.5158984 c 0.09375,-0.3632813 0.1171875,-0.4570313 0.9023438,-0.4570313 0.2460937,0 0.3164062,0 0.3164062,-0.1875 0,-0.1289062 -0.1054687,-0.1289062 -0.140625,-0.1289062 -0.2929687,0 -1.03125,0.035156 -1.3125,0.035156 -0.30468747,0 -1.03124997,-0.035156 -1.33593747,-0.035156 -0.0585938,0 -0.19921875,0 -0.19921875,0.1992187 0,0.1171875 0.09375,0.1171875 0.28125,0.1171875 0.421875,0 0.69140625,0 0.69140625,0.1875 0,0.046875 0,0.070312 -0.0234375,0.1640625 l -1.34765625,5.3671875 c -0.0820313,0.3632813 -0.1171875,0.46875 -0.90234378,0.46875 -0.2226562,0 -0.3164062,0 -0.3164062,0.1992188 0,0.1054687 0.1171875,0.1054687 0.1523437,0.1054687 0.28125,0 1.00781253,-0.035156 1.30078128,-0.035156 0.3046875,0 1.03125,0.035156 1.3359375,0.035156 0.0820313,0 0.19921872,0 0.19921872,-0.1875 0,-0.1171875 -0.0820312,-0.1171875 -0.30468747,-0.1171875 -0.17578125,0 -0.22265625,0 -0.421875,-0.023437 -0.2109375,-0.023437 -0.24609375,-0.058594 -0.24609375,-0.1757812 0,-0.070312 0.01171875,-0.1523438 0.03515625,-0.2226563 z m 0,0"
         style="fill:#000000;fill-opacity:1;fill-rule:nonzero;stroke:none" />
      <path
         id="path22"
         d="m 4.4071797,-0.41628906 c 0,-0.1875 -0.011719,-0.19921875 -0.2109375,-0.19921875 -0.4453125,0.43359375 -1.078125,0.4453125 -1.359375,0.4453125 v 0.24609375 c 0.1640625,0 0.6210937,0 1.0078125,-0.1875 V 3.4391797 c 0,0.234375 0,0.328125 -0.6914063,0.328125 H 2.8837422 v 0.2460937 c 0.1289062,-0.011719 0.984375,-0.023437 1.2421875,-0.023437 0.2109375,0 1.0898437,0.011719 1.2421875,0.023437 V 3.7673047 H 5.1103047 c -0.703125,0 -0.703125,-0.09375 -0.703125,-0.328125 z m 0,0"
         style="fill:#000000;fill-opacity:1;fill-rule:nonzero;stroke:none" />
    </g>
    <path
       id="path23"
       d="M 79.93806,37.98465 H 56.12662 M 79.93806,30.04768 H 56.12662"
       style="fill:none;stroke:#000000;stroke-width:0.797;stroke-linecap:butt;stroke-linejoin:miter;stroke-miterlimit:10;stroke-dasharray:none;stroke-opacity:1"
       transform="matrix(1.3333333,0,0,-1.3333333,23.912,114.04667)" />
    <path
       id="path24"
       d="m 69.6195,68.03236 c 0,0.87656 -0.71058,1.58714 -1.58714,1.58714 -0.87657,0 -1.58716,-0.71058 -1.58716,-1.58714 0,-0.87657 0.71059,-1.58716 1.58716,-1.58716 0.87656,0 1.58714,0.71059 1.58714,1.58716 z"
       style="fill:#000000;fill-opacity:1;fill-rule:nonzero;stroke:#000000;stroke-width:0.3985;stroke-linecap:butt;stroke-linejoin:miter;stroke-miterlimit:10;stroke-dasharray:none;stroke-opacity:1"
       transform="matrix(1.3333333,0,0,-1.3333333,23.912,114.04667)" />
    <path
       id="path25"
       d="m 69.6195,0 c 0,0.87656 -0.71058,1.58714 -1.58714,1.58714 -0.87657,0 -1.58716,-0.71058 -1.58716,-1.58714 0,-0.87656 0.71059,-1.58714 1.58716,-1.58714 0.87656,0 1.58714,0.71058 1.58714,1.58714 z"
       style="fill:#000000;fill-opacity:1;fill-rule:nonzero;stroke:#000000;stroke-width:0.3985;stroke-linecap:butt;stroke-linejoin:miter;stroke-miterlimit:10;stroke-dasharray:none;stroke-opacity:1"
       transform="matrix(1.3333333,0,0,-1.3333333,23.912,114.04667)" />
    <g
       id="g25"
       aria-label="−j10Ω"
       transform="matrix(1.3333333,0,0,1.3333333,134.23067,71.554667)">
      <path
         id="path26"
         d="m 6.5623516,-2.2968594 c 0.1757812,0 0.3515625,0 0.3515625,-0.1992187 0,-0.1992188 -0.1757813,-0.1992188 -0.3515625,-0.1992188 h -5.390625 c -0.1640625,0 -0.33984379,0 -0.33984379,0.1992188 0,0.1992187 0.17578129,0.1992187 0.33984379,0.1992187 z m 0,0"
         style="fill:#000000;fill-opacity:1;fill-rule:nonzero;stroke:none" />
      <path
         id="path27"
         d="M 9.8465312,0.50392188 V -4.4062344 l -1.5234375,0.1171875 v 0.3046875 c 0.7734375,0 0.8554688,0.070312 0.8554688,0.5625 v 3.93750003 c 0,0.4453125 -0.082031,1.31249997 -0.7265625,1.31249997 -0.046875,0 -0.2695313,0 -0.5390625,-0.1289062 C 8.0652812,1.6523594 8.2645,1.5117344 8.2645,1.2422031 c 0,-0.25781247 -0.1757813,-0.45703122 -0.4570313,-0.45703122 -0.28125,0 -0.4570312,0.19921875 -0.4570312,0.45703122 0,0.515625 0.5625,0.796875 1.125,0.796875 0.75,0 1.3710937,-0.6328125 1.3710937,-1.53515622 z m 0,-6.51562498 c 0,-0.2695313 -0.234375,-0.5273438 -0.5390625,-0.5273438 -0.328125,0 -0.5273437,0.2695313 -0.5273437,0.5273438 0,0.2695312 0.2226562,0.5273437 0.5273437,0.5273437 0.3398438,0 0.5390625,-0.28125 0.5390625,-0.5273437 z m 0,0"
         style="fill:#000000;fill-opacity:1;fill-rule:nonzero;stroke:none" />
      <path
         id="path28"
         d="m 13.728367,-6.3749844 c 0,-0.234375 0,-0.2578125 -0.234375,-0.2578125 -0.609375,0.6328125 -1.488281,0.6328125 -1.804687,0.6328125 v 0.3164063 c 0.199218,0 0.785156,0 1.300781,-0.2578125 v 5.15624998 c 0,0.3515625 -0.03516,0.48046875 -0.925781,0.48046875 H 11.747898 V 1.5625e-5 c 0.351563,-0.035156245 1.207032,-0.035156245 1.605469,-0.035156245 0.398438,0 1.265625,0 1.617188,0.035156245 V -0.30467187 h -0.316407 c -0.902343,0 -0.925781,-0.1171875 -0.925781,-0.48046875 z m 6.632813,3.1875 c 0,-0.796875 -0.04687,-1.59375 -0.398438,-2.3320312 -0.457031,-0.9609375 -1.277344,-1.1132813 -1.6875,-1.1132813 -0.597656,0 -1.335937,0.2578125 -1.734375,1.1835938 -0.328125,0.6914062 -0.375,1.4648437 -0.375,2.2617187 0,0.75 0.04687,1.640625 0.445313,2.40234378 0.433593,0.80859375 1.160156,1.0078125 1.652343,1.0078125 0.539063,0 1.289063,-0.2109375 1.734375,-1.16015625 C 20.314305,-1.6288906 20.36118,-2.4023281 20.36118,-3.1874844 Z M 18.263523,1.5625e-5 c -0.386718,0 -0.984375,-0.246093745 -1.160156,-1.207031225 -0.105469,-0.5976563 -0.105469,-1.5117188 -0.105469,-2.0976563 0,-0.6445312 0,-1.3007812 0.08203,-1.8398437 0.1875,-1.1835938 0.925781,-1.265625 1.183593,-1.265625 0.328125,0 0.984375,0.1757812 1.171875,1.1601562 0.09375,0.5625 0.09375,1.3125 0.09375,1.9453125 0,0.75 0,1.4179688 -0.105468,2.0625 C 19.271336,-0.30467187 18.708836,1.5625e-5 18.263523,1.5625e-5 Z M 29.153172,-1.6171719 h -0.246094 c -0.04687,0.2578125 -0.08203,0.4921875 -0.175781,0.72656253 -0.04687,0.1640625 -0.08203,0.24609375 -0.65625,0.24609375 h -0.796875 c 0.128906,-0.56249998 0.433594,-1.04296878 0.878906,-1.69921878 0.46875,-0.703125 0.878906,-1.3945312 0.878906,-2.1796875 0,-1.3828125 -1.335937,-2.4960937 -3.023437,-2.4960937 -1.710938,0 -3.035156,1.1367187 -3.035156,2.4960937 0,0.7851563 0.398437,1.4765625 0.867187,2.1796875 0.445313,0.65625 0.761719,1.1367188 0.890625,1.69921878 h -0.796875 c -0.574219,0 -0.609375,-0.0820313 -0.65625,-0.234375 C 23.200047,-1.1015469 23.153172,-1.3593594 23.106297,-1.6171719 H 22.848484 L 23.176609,1.5625e-5 h 1.59375 c 0.222657,0 0.257813,0 0.257813,-0.210937495 0,-0.69140625 -0.316406,-1.57031253 -0.539063,-2.21484373 -0.210937,-0.5742188 -0.492187,-1.359375 -0.492187,-2.109375 0,-1.59375 1.101562,-2.2734375 2.003906,-2.2734375 0.960938,0 2.015625,0.7265625 2.015625,2.2734375 0,0.75 -0.269531,1.5117187 -0.5625,2.3203125 -0.152344,0.421875 -0.46875,1.31249998 -0.46875,2.00390623 0,0.210937495 0.03516,0.210937495 0.257813,0.210937495 h 1.582031 z m 0,0"
         style="fill:#000000;fill-opacity:1;fill-rule:nonzero;stroke:none" />
    </g>
    <path
       id="path29"
       d="m 68.03236,0 h 68.03237 m 0,68.03236 -18.142,-1e-5 m -31.7484,0 -18.14197,1e-5"
       style="fill:none;stroke:#000000;stroke-width:0.3985;stroke-linecap:butt;stroke-linejoin:miter;stroke-miterlimit:10;stroke-dasharray:none;stroke-opacity:1"
       transform="matrix(1.3333333,0,0,-1.3333333,23.912,114.04667)" />
    <g
       id="g29"
       aria-label="2&#10;′"
       transform="matrix(1.3333333,0,0,1.3333333,210.02533,119.04)">
      <path
         id="path30"
         d="M 1.2642031,-0.76242188 2.3188906,-1.7936719 c 1.5585938,-1.3710937 2.15625,-1.9101562 2.15625,-2.90625 0,-1.1367187 -0.9023437,-1.9335937 -2.1210937,-1.9335937 -1.125,0 -1.85156253,0.9140625 -1.85156253,1.8046875 0,0.5507812 0.4921875,0.5507812 0.52734373,0.5507812 0.1640625,0 0.515625,-0.1171875 0.515625,-0.5273437 0,-0.2578125 -0.1875,-0.515625 -0.5273437,-0.515625 -0.0820313,0 -0.10546878,0 -0.12890628,0.011719 0.22265628,-0.6445312 0.76171878,-1.0195312 1.33593748,-1.0195312 0.9140625,0 1.3359375,0.8085937 1.3359375,1.6289062 0,0.796875 -0.4921875,1.5820313 -1.0429687,2.203125 L 0.60795312,-0.36398438 C 0.50248437,-0.25851563 0.50248437,-0.23507813 0.50248437,-7.03125e-4 H 4.1938906 L 4.4751406,-1.7350781 H 4.2173281 c -0.046875,0.3046875 -0.1171875,0.73828122 -0.2109375,0.89062497 -0.070312,0.0820313 -0.7265625,0.0820313 -0.9492187,0.0820313 z m 0,0"
         style="fill:#000000;fill-opacity:1;fill-rule:nonzero;stroke:none" />
      <path
         id="path31"
         d="m 7.0093203,-6.9089063 c 0.046875,-0.1171875 0.058594,-0.1757812 0.058594,-0.2226562 0,-0.2109375 -0.1992188,-0.3867188 -0.4101563,-0.3867188 -0.2695312,0 -0.3515625,0.2226563 -0.3867187,0.328125 l -0.9140625,3.0234375 c -0.011719,0.011719 -0.035156,0.1054688 -0.035156,0.1171875 0,0.082031 0.2109375,0.1523438 0.2695313,0.1523438 0.046875,0 0.058594,-0.023437 0.1054687,-0.1289063 z m 0,0"
         style="fill:#000000;fill-opacity:1;fill-rule:nonzero;stroke:none" />
    </g>
    <path
       id="path32"
       d="m 137.65187,0 c 0,0.87656 -0.71059,1.58714 -1.58714,1.58714 -0.87657,0 -1.58716,-0.71058 -1.58716,-1.58714 0,-0.87656 0.71059,-1.58714 1.58716,-1.58714 0.87655,0 1.58714,0.71058 1.58714,1.58714 z"
       style="fill:#ffffff;fill-opacity:1;fill-rule:nonzero;stroke:#000000;stroke-width:0.3985;stroke-linecap:butt;stroke-linejoin:miter;stroke-miterlimit:10;stroke-dasharray:none;stroke-opacity:1"
       transform="matrix(1.3333333,0,0,-1.3333333,23.912,114.04667)" />
    <path
       id="path33"
       d="m 137.65187,68.03236 c 0,0.87656 -0.71059,1.58714 -1.58714,1.58714 -0.87657,0 -1.58716,-0.71058 -1.58716,-1.58714 0,-0.87657 0.71059,-1.58716 1.58716,-1.58716 0.87655,0 1.58714,0.71059 1.58714,1.58716 z"
       style="fill:#ffffff;fill-opacity:1;fill-rule:nonzero;stroke:#000000;stroke-width:0.3985;stroke-linecap:butt;stroke-linejoin:miter;stroke-miterlimit:10;stroke-dasharray:none;stroke-opacity:1"
       transform="matrix(1.3333333,0,0,-1.3333333,23.912,114.04667)" />
    <path
       id="path34"
       d="m 6.5615469,-2.2957812 c 0.1757812,0 0.3515625,0 0.3515625,-0.1992188 0,-0.1992187 -0.1757813,-0.1992187 -0.3515625,-0.1992187 h -5.390625 c -0.1640625,0 -0.33984377,0 -0.33984377,0.1992187 0,0.1992188 0.17578127,0.1992188 0.33984377,0.1992188 z m 0,0"
       style="fill:#000000;fill-opacity:1;fill-rule:nonzero;stroke:none"
       aria-label="−"
       transform="matrix(1.3333333,0,0,1.3333333,200.16533,103.82667)" />
    <path
       id="path35"
       d="m 4.0771719,-2.2964609 h 2.7773437 c 0.140625,0 0.328125,0 0.328125,-0.1992188 0,-0.1992187 -0.1875,-0.1992187 -0.328125,-0.1992187 H 4.0771719 v -2.7890625 c 0,-0.1289063 0,-0.328125 -0.1992188,-0.328125 -0.1992187,0 -0.1992187,0.1992187 -0.1992187,0.328125 v 2.7890625 H 0.88967188 c -0.140625,0 -0.328125,0 -0.328125,0.1992187 0,0.1992188 0.1875,0.1992188 0.328125,0.1992188 H 3.6787344 v 2.80078121 c 0,0.12890625 0,0.328125 0.1992187,0.328125 0.1992188,0 0.1992188,-0.19921875 0.1992188,-0.328125 z m 0,0"
       style="fill:#000000;fill-opacity:1;fill-rule:nonzero;stroke:none"
       aria-label="+"
       transform="matrix(1.3333333,0,0,1.3333333,200.16533,40.198667)" />
    <g
       id="g35"
       aria-label="˙&#10;U&#10;2"
       transform="matrix(1.3333333,0,0,1.3333333,201.60133,70.453333)">
      <path
         id="path36"
         d="m 1.9103281,-6.1407812 c 0,-0.2695313 -0.2226562,-0.5273438 -0.5273437,-0.5273438 -0.3398438,0 -0.53906252,0.28125 -0.53906252,0.5273438 0,0.2695312 0.23437502,0.5273437 0.52734372,0.5273437 0.3398438,0 0.5390625,-0.2695312 0.5390625,-0.5273437 z m 0,0"
         style="fill:#000000;fill-opacity:1;fill-rule:nonzero;stroke:none" />
      <path
         id="path37"
         d="m 3.4894297,-3.2345312 c 0.09375,-0.4101563 0.28125,-0.7148438 1.078125,-0.7382813 0.046875,0 0.1640625,-0.011719 0.1640625,-0.1992187 0,-0.011719 0,-0.1171875 -0.1289063,-0.1171875 -0.328125,0 -0.6796875,0.035156 -1.0195312,0.035156 -0.3398438,0 -0.703125,-0.035156 -1.03125,-0.035156 -0.058594,0 -0.1757813,0 -0.1757813,0.1992187 0,0.1171875 0.09375,0.1171875 0.1757813,0.1171875 0.5625,0.011719 0.6796875,0.2109375 0.6796875,0.4335938 0,0.035156 -0.023437,0.1757812 -0.035156,0.2109375 L 2.3058359,0.2225 c -0.3398437,1.3359375 -1.48828121,2.203125 -2.48437496,2.203125 -0.6796875,0 -1.21875004,-0.4335937 -1.21875004,-1.2890625 0,-0.023437 0,-0.33984375 0.1171875,-0.7734375 l 0.96093754,-3.8789062 c 0.09375,-0.3632813 0.10546875,-0.4570313 0.83203125,-0.4570313 0.26953125,0 0.33984375,0 0.33984375,-0.1992187 0,-0.1171875 -0.10546875,-0.1171875 -0.140625,-0.1171875 -0.26953125,0 -0.99609375,0.035156 -1.265625,0.035156 -0.29296875,0 -0.99609374,-0.035156 -1.28906254,-0.035156 -0.082031,0 -0.1875,0 -0.1875,0.1992187 0,0.1171875 0.09375,0.1171875 0.28125,0.1171875 0.011719,0 0.2109375,0 0.375,0.011719 0.1757813,0.023437 0.2695313,0.035156 0.2695313,0.1640625 0,0.058594 -0.1054688,0.4804687 -0.1757813,0.703125 L -1.4910391,-2.215 c -0.09375,0.3867188 -0.5742187,2.2734375 -0.609375,2.4609375 -0.070312,0.28125 -0.070312,0.43359375 -0.070312,0.57421875 0,1.21875005 0.9023438,1.92187505 1.95703129,1.92187505 1.25390621,0 2.48437501,-1.125 2.81250001,-2.4492188 z m 0,0"
         style="fill:#000000;fill-opacity:1;fill-rule:nonzero;stroke:none" />
      <path
         id="path38"
         d="m 7.4796641,2.7449609 h -0.234375 c -0.023437,0.1523438 -0.082031,0.5625 -0.1757813,0.6328125 -0.058594,0.035156 -0.5976562,0.035156 -0.6914062,0.035156 H 5.0890391 c 0.7382812,-0.6445313 0.984375,-0.84375 1.3945312,-1.171875 0.515625,-0.4101563 0.9960938,-0.84375 0.9960938,-1.50000001 0,-0.84375 -0.7382813,-1.359375 -1.6289063,-1.359375 -0.8671875,0 -1.453125,0.609375 -1.453125,1.2421875 0,0.36328125 0.3046875,0.39843751 0.375,0.39843751 0.1640625,0 0.375,-0.11718751 0.375,-0.37500001 0,-0.12890625 -0.058594,-0.36328125 -0.421875,-0.36328125 0.2226563,-0.50390625 0.6914063,-0.65625 1.0195313,-0.65625 0.703125,0 1.0664062,0.55078125 1.0664062,1.11328125 0,0.60937501 -0.4335937,1.08984371 -0.65625,1.33593751 l -1.6875,1.6640625 c -0.070312,0.058594 -0.070312,0.070312 -0.070312,0.2695312 h 2.8828125 z m 0,0"
         style="fill:#000000;fill-opacity:1;fill-rule:nonzero;stroke:none" />
    </g>
    <path
       id="path39"
       d="M 1.2642031,-0.76182812 2.3188906,-1.7930781 c 1.5585938,-1.3710938 2.15625,-1.9101563 2.15625,-2.90625 0,-1.1367188 -0.9023437,-1.9335938 -2.1210937,-1.9335938 -1.125,0 -1.85156253,0.9140625 -1.85156253,1.8046875 0,0.5507813 0.4921875,0.5507813 0.52734373,0.5507813 0.1640625,0 0.515625,-0.1171875 0.515625,-0.5273438 0,-0.2578125 -0.1875,-0.515625 -0.5273437,-0.515625 -0.0820313,0 -0.10546878,0 -0.12890628,0.011719 0.22265628,-0.6445313 0.76171878,-1.0195313 1.33593748,-1.0195313 0.9140625,0 1.3359375,0.8085938 1.3359375,1.6289063 0,0.796875 -0.4921875,1.5820312 -1.0429687,2.203125 L 0.60795312,-0.36339062 C 0.50248437,-0.25792187 0.50248437,-0.23448437 0.50248437,-1.09375e-4 H 4.1938906 L 4.4751406,-1.7344844 H 4.2173281 c -0.046875,0.3046875 -0.1171875,0.73828128 -0.2109375,0.89062503 -0.070312,0.0820313 -0.7265625,0.0820313 -0.9492187,0.0820313 z m 0,0"
       style="fill:#000000;fill-opacity:1;fill-rule:nonzero;stroke:none"
       aria-label="2"
       transform="matrix(1.3333333,0,0,1.3333333,210.02533,27.617333)" />
    <path
       id="path40"
       d="m 86.17433,73.9852 h 31.7484 V 62.07948 h -31.7484 z"
       style="fill:none;stroke:#000000;stroke-width:0.797;stroke-linecap:butt;stroke-linejoin:miter;stroke-miterlimit:10;stroke-dasharray:none;stroke-opacity:1"
       transform="matrix(1.3333333,0,0,-1.3333333,23.912,114.04667)" />
    <path
       id="path41"
       d="m 2.8959609,-3.5026562 c 0.8085938,-0.2695313 1.3945313,-0.9726563 1.3945313,-1.7578125 0,-0.8203125 -0.8789063,-1.3710938 -1.8398438,-1.3710938 -1.0078125,0 -1.75781246,0.5976563 -1.75781246,1.3476563 0,0.3398437 0.2109375,0.5273437 0.50390626,0.5273437 0.3046875,0 0.5039062,-0.2226562 0.5039062,-0.515625 0,-0.4921875 -0.46875,-0.4921875 -0.609375,-0.4921875 0.3046875,-0.4921875 0.9609375,-0.6210937 1.3242188,-0.6210937 0.4101562,0 0.9492187,0.2226562 0.9492187,1.1132812 0,0.1289063 -0.011719,0.703125 -0.2695312,1.1367188 -0.3046875,0.4804687 -0.6445313,0.515625 -0.890625,0.515625 -0.082031,0.011719 -0.3164063,0.035156 -0.3867188,0.035156 -0.082031,0.011719 -0.1523437,0.023437 -0.1523437,0.1171875 0,0.1171875 0.070312,0.1171875 0.234375,0.1171875 h 0.4453125 c 0.8085937,0 1.1835937,0.6679688 1.1835937,1.6523438 0,1.3476562 -0.6914062,1.64062495 -1.125,1.64062495 -0.4335937,0 -1.171875,-0.17578125 -1.52343746,-0.76171875 0.35156246,0.0585938 0.65624996,-0.1640625 0.65624996,-0.5390625 0,-0.3632812 -0.2695312,-0.5625 -0.56249996,-0.5625 -0.234375,0 -0.55078125,0.140625 -0.55078125,0.5742188 0,0.91406245 0.92578121,1.57031245 2.00390621,1.57031245 1.21875,0 2.1210938,-0.9140625 2.1210938,-1.92187495 0,-0.8203125 -0.6210938,-1.59375 -1.6523438,-1.8046873 z M 13.372523,-1.6159375 H 13.12643 c -0.04687,0.2578125 -0.08203,0.4921875 -0.175782,0.7265625 -0.04687,0.1640625 -0.08203,0.24609375 -0.65625,0.24609375 H 11.497523 C 11.62643,-1.2057812 11.931117,-1.68625 12.37643,-2.3425 c 0.46875,-0.703125 0.878906,-1.3945312 0.878906,-2.1796875 0,-1.3828125 -1.335938,-2.4960937 -3.023438,-2.4960937 -1.7109371,0 -3.0351558,1.1367187 -3.0351558,2.4960937 0,0.7851563 0.3984375,1.4765625 0.8671875,2.1796875 0.4453125,0.65625 0.7617187,1.1367188 0.890625,1.69921875 h -0.796875 c -0.5742188,0 -0.609375,-0.0820313 -0.65625,-0.234375 C 7.4193984,-1.1003125 7.3725234,-1.358125 7.3256484,-1.6159375 H 7.0678359 L 7.3959609,0.00125 h 1.59375 c 0.2226563,0 0.2578125,0 0.2578125,-0.2109375 0,-0.69140625 -0.3164062,-1.5703125 -0.5390625,-2.2148437 -0.2109375,-0.5742188 -0.4921875,-1.359375 -0.4921875,-2.109375 0,-1.59375 1.1015625,-2.2734375 2.0039066,-2.2734375 0.960937,0 2.015625,0.7265625 2.015625,2.2734375 0,0.75 -0.269532,1.5117187 -0.5625,2.3203125 -0.152344,0.421875 -0.46875,1.31249995 -0.46875,2.0039062 0,0.2109375 0.03516,0.2109375 0.257812,0.2109375 h 1.582031 z m 0,0"
       style="fill:#000000;fill-opacity:1;fill-rule:nonzero;stroke:none"
       aria-label="3Ω"
       transform="matrix(1.3333333,0,0,1.3333333,150.752,45.373333)" />
    <path
       id="path42"
       d="m 128.72993,68.03235 v 1.98425 l -4.21653,-1.98425 4.21653,-1.98425 z"
       style="fill:#000000;fill-opacity:1;fill-rule:nonzero;stroke:#000000;stroke-width:0.3985;stroke-linecap:butt;stroke-linejoin:miter;stroke-miterlimit:10;stroke-dasharray:none;stroke-opacity:1"
       transform="matrix(1.3333333,0,0,-1.3333333,23.912,114.04667)" />
    <g
       id="g42"
       aria-label="˙&#10;I&#10;2"
       transform="matrix(1.3333333,0,0,1.3333333,190.40933,13.293333)">
      <path
         id="path43"
         d="m 1.9107734,-6.1408984 c 0,-0.2695313 -0.2226562,-0.5273438 -0.5273437,-0.5273438 -0.3398438,0 -0.53906251,0.28125 -0.53906251,0.5273438 0,0.2695312 0.23437501,0.5273437 0.52734371,0.5273437 0.3398438,0 0.5390625,-0.2695312 0.5390625,-0.5273437 z m 0,0"
         style="fill:#000000;fill-opacity:1;fill-rule:nonzero;stroke:none" />
      <path
         id="path44"
         d="m 1.4215156,-3.5158984 c 0.09375,-0.3632813 0.1171875,-0.4570313 0.9023438,-0.4570313 0.2460937,0 0.3164062,0 0.3164062,-0.1875 0,-0.1289062 -0.1054687,-0.1289062 -0.140625,-0.1289062 -0.2929687,0 -1.03125,0.035156 -1.3125,0.035156 -0.30468748,0 -1.03124998,-0.035156 -1.33593748,-0.035156 -0.0585938,0 -0.19921875,0 -0.19921875,0.1992187 0,0.1171875 0.09375,0.1171875 0.28125,0.1171875 0.421875,0 0.69140625,0 0.69140625,0.1875 0,0.046875 0,0.070312 -0.0234375,0.1640625 l -1.34765625,5.3671875 c -0.0820313,0.3632813 -0.1171875,0.46875 -0.90234377,0.46875 -0.2226562,0 -0.3164062,0 -0.3164062,0.1992188 0,0.1054687 0.1171875,0.1054687 0.1523437,0.1054687 0.28125,0 1.00781252,-0.035156 1.30078127,-0.035156 0.3046875,0 1.03125,0.035156 1.3359375,0.035156 0.0820313,0 0.19921873,0 0.19921873,-0.1875 0,-0.1171875 -0.0820312,-0.1171875 -0.30468748,-0.1171875 -0.17578125,0 -0.22265625,0 -0.421875,-0.023437 -0.2109375,-0.023437 -0.24609375,-0.058594 -0.24609375,-0.1757812 0,-0.070312 0.01171875,-0.1523438 0.03515625,-0.2226563 z m 0,0"
         style="fill:#000000;fill-opacity:1;fill-rule:nonzero;stroke:none" />
      <path
         id="path45"
         d="m 5.5904609,2.7477734 h -0.234375 c -0.023437,0.1523438 -0.082031,0.5625 -0.1757812,0.6328125 -0.058594,0.035156 -0.5976563,0.035156 -0.6914063,0.035156 H 3.1998359 c 0.7382813,-0.6445313 0.984375,-0.84375 1.3945313,-1.171875 0.515625,-0.4101563 0.9960937,-0.84375 0.9960937,-1.50000001 0,-0.84375 -0.7382812,-1.359375 -1.6289062,-1.359375 -0.8671875,0 -1.453125,0.609375 -1.453125,1.2421875 0,0.36328125 0.3046875,0.39843751 0.375,0.39843751 0.1640625,0 0.375,-0.11718751 0.375,-0.37500001 0,-0.12890625 -0.058594,-0.36328125 -0.421875,-0.36328125 0.2226562,-0.50390625 0.6914062,-0.65625 1.0195312,-0.65625 0.703125,0 1.0664063,0.55078125 1.0664063,1.11328125 0,0.60937501 -0.4335938,1.08984371 -0.65625,1.33593751 l -1.6875,1.6640625 c -0.070312,0.058594 -0.070312,0.070312 -0.070312,0.2695312 h 2.8828125 z m 0,0"
         style="fill:#000000;fill-opacity:1;fill-rule:nonzero;stroke:none" />
    </g>
  </g>
</svg>
