<?xml version="1.0" encoding="UTF-8" standalone="no"?>
<!-- Created with Inkscape (http://www.inkscape.org/) -->

<svg
   version="1.1"
   id="svg1"
   width="208.53333"
   height="139.49333"
   viewBox="0 0 208.53333 139.49333"
   sodipodi:docname="25-26-2-电路分析基础-期末-题图11.pdf"
   xmlns:inkscape="http://www.inkscape.org/namespaces/inkscape"
   xmlns:sodipodi="http://sodipodi.sourceforge.net/DTD/sodipodi-0.dtd"
   xmlns="http://www.w3.org/2000/svg"
   xmlns:svg="http://www.w3.org/2000/svg">
  <defs
     id="defs1" />
  <sodipodi:namedview
     id="namedview1"
     pagecolor="#ffffff"
     bordercolor="#111111"
     borderopacity="1"
     inkscape:showpageshadow="0"
     inkscape:pageopacity="0"
     inkscape:pagecheckerboard="1"
     inkscape:deskcolor="#d1d1d1">
    <inkscape:page
       x="0"
       y="0"
       inkscape:label="1"
       id="page1"
       width="208.53333"
       height="139.49333"
       margin="0"
       bleed="0" />
  </sodipodi:namedview>
  <g
     id="g1"
     inkscape:groupmode="layer"
     inkscape:label="1">
    <path
       id="path1"
       d="M 42.52022,0 H 0 v 76.5364 l 5.3859,-1e-5 m 31.7484,0 5.38592,1e-5 H 85.04044 V 54.14238 m 0,-31.74838 V 0"
       style="fill:none;stroke:#000000;stroke-width:0.3985;stroke-linecap:butt;stroke-linejoin:miter;stroke-miterlimit:10;stroke-dasharray:none;stroke-opacity:1"
       transform="matrix(1.3333333,0,0,-1.3333333,4.6893333,137.112)" />
    <path
       id="path2"
       d="M 5.3859,82.48924 H 37.13428 V 70.58354 H 5.3859 Z"
       style="fill:none;stroke:#000000;stroke-width:0.797;stroke-linecap:butt;stroke-linejoin:miter;stroke-miterlimit:10;stroke-dasharray:none;stroke-opacity:1"
       transform="matrix(1.3333333,0,0,-1.3333333,4.6893333,137.112)" />
    <path
       id="path3"
       d="m 4.4769375,-2.0036094 c 0,-1.1835937 -0.8203125,-2.1796875 -1.8984375,-2.1796875 -0.4804688,0 -0.9023438,0.1640625 -1.265625,0.5039063 v -1.9335938 c 0.1992187,0.058594 0.5273437,0.1289063 0.84375,0.1289063 1.2304687,0 1.9335937,-0.9140625 1.9335937,-1.0429688 0,-0.058594 -0.035156,-0.1054687 -0.1054687,-0.1054687 -0.011719,0 -0.035156,0 -0.082031,0.023437 -0.1992187,0.09375 -0.6796875,0.2929687 -1.3476562,0.2929687 -0.3984375,0 -0.8554688,-0.070312 -1.3242188,-0.28125 -0.082031,-0.023437 -0.1054687,-0.023437 -0.1289062,-0.023437 -0.09375,0 -0.09375,0.082031 -0.09375,0.234375 v 2.953125 c 0,0.1757813 0,0.2578125 0.140625,0.2578125 0.070312,0 0.082031,-0.035156 0.1289062,-0.09375 0.1054688,-0.1523437 0.4804688,-0.6914062 1.2773438,-0.6914062 0.5273437,0 0.7734375,0.4570312 0.8554687,0.6328125 0.1523438,0.375 0.1757813,0.7617187 0.1757813,1.2539062 0,0.3515625 0,0.9492188 -0.234375,1.37109377 -0.2460938,0.38671875 -0.609375,0.64453125 -1.0664063,0.64453125 -0.7265625,0 -1.3007812,-0.52734375 -1.4648437,-1.11328122 0.0234375,0.011719 0.0585938,0.011719 0.1640625,0.011719 0.328125,0 0.5039062,-0.2460937 0.5039062,-0.4804687 0,-0.2460938 -0.1757812,-0.4921875 -0.5039062,-0.4921875 -0.140625,0 -0.48046875,0.070312 -0.48046875,0.5273437 0,0.85546877 0.67968745,1.82812502 1.79296875,1.82812502 1.1601562,0 2.1796875,-0.9609375 2.1796872,-2.22656282 z m 8.8974605,0.3867188 h -0.246093 c -0.04687,0.2578125 -0.08203,0.4921875 -0.175782,0.72656247 -0.04687,0.1640625 -0.08203,0.24609375 -0.65625,0.24609375 h -0.796875 c 0.128907,-0.56250002 0.433594,-1.04296872 0.878907,-1.69921872 0.46875,-0.703125 0.878906,-1.3945313 0.878906,-2.1796875 0,-1.3828125 -1.335938,-2.4960938 -3.023438,-2.4960938 -1.7109371,0 -3.0351558,1.1367188 -3.0351558,2.4960938 0,0.7851562 0.3984375,1.4765625 0.8671875,2.1796875 0.4453125,0.65625 0.7617187,1.1367187 0.890625,1.69921872 h -0.796875 c -0.5742188,0 -0.609375,-0.0820313 -0.65625,-0.234375 C 7.4212734,-1.1012656 7.3743984,-1.3590781 7.3275234,-1.6168906 H 7.0697109 l 0.328125,1.617187475 h 1.59375 c 0.2226563,0 0.2578125,0 0.2578125,-0.210937505 0,-0.69140625 -0.3164062,-1.57031247 -0.5390625,-2.21484377 -0.2109375,-0.5742187 -0.4921875,-1.359375 -0.4921875,-2.109375 0,-1.59375 1.1015625,-2.2734375 2.0039066,-2.2734375 0.960937,0 2.015625,0.7265625 2.015625,2.2734375 0,0.75 -0.269532,1.5117188 -0.5625,2.3203125 -0.152344,0.421875 -0.46875,1.31250002 -0.46875,2.00390627 0,0.210937505 0.03516,0.210937505 0.257812,0.210937505 h 1.582031 z m 0,0"
       style="fill:#000000;fill-opacity:1;fill-rule:nonzero;stroke:none"
       aria-label="5Ω"
       transform="matrix(1.3333333,0,0,1.3333333,23.812,22.038667)" />
    <path
       id="path4"
       d="m 84.88104,54.5409 c 3.28756,0 5.95256,-1.82137 5.95256,-4.06818 0,-2.24682 -2.665,-4.06818 -5.95256,-4.06818 3.28756,0 5.95256,-1.82135 5.95256,-4.06816 0,-2.24681 -2.665,-4.06818 -5.95256,-4.06818 3.28756,0 5.95256,-1.82136 5.95256,-4.06816 0,-2.24681 -2.665,-4.06817 -5.95256,-4.06817 3.28756,0 5.95256,-1.82137 5.95256,-4.06818 0,-2.24681 -2.665,-4.06816 -5.95256,-4.06816"
       style="fill:none;stroke:#000000;stroke-width:0.797;stroke-linecap:butt;stroke-linejoin:bevel;stroke-miterlimit:10;stroke-dasharray:none;stroke-opacity:1"
       transform="matrix(1.3333333,0,0,-1.3333333,4.6893333,137.112)" />
    <path
       id="path5"
       d="m 86.62758,76.5364 c 0,0.87656 -0.71059,1.58715 -1.58714,1.58715 -0.87656,0 -1.58714,-0.71059 -1.58714,-1.58715 0,-0.87655 0.71058,-1.58714 1.58714,-1.58714 0.87655,0 1.58714,0.71059 1.58714,1.58714 z"
       style="fill:#000000;fill-opacity:1;fill-rule:nonzero;stroke:#000000;stroke-width:0.3985;stroke-linecap:butt;stroke-linejoin:miter;stroke-miterlimit:10;stroke-dasharray:none;stroke-opacity:1"
       transform="matrix(1.3333333,0,0,-1.3333333,4.6893333,137.112)" />
    <path
       id="path6"
       d="m 86.62758,0 c 0,0.87656 -0.71059,1.58714 -1.58714,1.58714 -0.87656,0 -1.58714,-0.71058 -1.58714,-1.58714 0,-0.87656 0.71058,-1.58714 1.58714,-1.58714 0.87655,0 1.58714,0.71058 1.58714,1.58714 z"
       style="fill:#000000;fill-opacity:1;fill-rule:nonzero;stroke:#000000;stroke-width:0.3985;stroke-linecap:butt;stroke-linejoin:miter;stroke-miterlimit:10;stroke-dasharray:none;stroke-opacity:1"
       transform="matrix(1.3333333,0,0,-1.3333333,4.6893333,137.112)" />
    <g
       id="g6"
       aria-label="j10Ω"
       transform="matrix(1.3333333,0,0,1.3333333,83.862667,88.950667)">
      <path
         id="path7"
         d="M 2.0981172,0.50282031 V -4.4073359 l -1.52343751,0.1171875 v 0.3046875 c 0.77343751,0 0.85546871,0.070312 0.85546871,0.5625 v 3.93749996 c 0,0.4453125 -0.082031,1.31250004 -0.72656246,1.31250004 -0.046875,0 -0.26953125,0 -0.5390625,-0.1289063 0.15234375,-0.046875 0.3515625,-0.1875 0.3515625,-0.4570312 0,-0.25781254 -0.17578125,-0.45703129 -0.45703125,-0.45703129 -0.28125,0 -0.45703125,0.19921875 -0.45703125,0.45703129 0,0.515625 0.5625,0.796875 1.125,0.796875 0.74999996,0 1.37109376,-0.6328125 1.37109376,-1.53515629 z m 0,-6.51562501 c 0,-0.2695312 -0.234375,-0.5273437 -0.5390625,-0.5273437 -0.328125,0 -0.5273438,0.2695312 -0.5273438,0.5273437 0,0.2695313 0.2226563,0.5273438 0.5273438,0.5273438 0.3398437,0 0.5390625,-0.28125 0.5390625,-0.5273438 z m 0,0"
         style="fill:#000000;fill-opacity:1;fill-rule:nonzero;stroke:none" />
      <path
         id="path8"
         d="m 5.9770234,-6.3760859 c 0,-0.234375 0,-0.2578125 -0.234375,-0.2578125 -0.609375,0.6328125 -1.4882812,0.6328125 -1.8046875,0.6328125 v 0.3164062 c 0.1992188,0 0.7851563,0 1.3007813,-0.2578125 v 5.15625001 c 0,0.3515625 -0.035156,0.48046875 -0.9257813,0.48046875 H 3.9965547 v 0.3046875 c 0.3515625,-0.03515625 1.2070312,-0.03515625 1.6054687,-0.03515625 0.3984375,0 1.265625,0 1.6171875,0.03515625 v -0.3046875 H 6.9028047 c -0.9023438,0 -0.9257813,-0.1171875 -0.9257813,-0.48046875 z m 6.6357426,3.1875 c 0,-0.796875 -0.04687,-1.59375 -0.398438,-2.3320313 -0.457031,-0.9609375 -1.277344,-1.1132812 -1.6875,-1.1132812 -0.5976561,0 -1.3359374,0.2578125 -1.7343749,1.1835937 -0.328125,0.6914063 -0.375,1.4648438 -0.375,2.2617188 0,0.75 0.046875,1.640625 0.4453125,2.40234371 0.4335938,0.80859375 1.1601564,1.0078125 1.6523434,1.0078125 0.539063,0 1.289063,-0.2109375 1.734375,-1.16015625 0.316407,-0.69140626 0.363282,-1.46484376 0.363282,-2.24999996 z m -2.097657,3.18749996 c -0.386718,0 -0.9843746,-0.24609375 -1.1601559,-1.20703126 -0.1054687,-0.5976562 -0.1054687,-1.5117187 -0.1054687,-2.0976562 0,-0.6445313 0,-1.3007813 0.082031,-1.8398438 0.1875,-1.1835937 0.9257816,-1.265625 1.1835936,-1.265625 0.328125,0 0.984375,0.1757813 1.171875,1.1601563 0.09375,0.5625 0.09375,1.3125 0.09375,1.9453125 0,0.75 0,1.4179687 -0.105468,2.0625 -0.152344,0.93749996 -0.714844,1.24218746 -1.160157,1.24218746 z M 21.401828,-1.6182734 h -0.246094 c -0.04687,0.2578125 -0.08203,0.4921875 -0.175781,0.72656246 -0.04687,0.1640625 -0.08203,0.24609375 -0.65625,0.24609375 h -0.796875 c 0.128906,-0.56250001 0.433594,-1.04296871 0.878906,-1.69921871 0.46875,-0.703125 0.878907,-1.3945313 0.878907,-2.1796875 0,-1.3828125 -1.335938,-2.4960938 -3.023438,-2.4960938 -1.710937,0 -3.035156,1.1367188 -3.035156,2.4960938 0,0.7851562 0.398437,1.4765625 0.867187,2.1796875 0.445313,0.65625 0.761719,1.1367187 0.890625,1.69921871 h -0.796875 c -0.574218,0 -0.609375,-0.0820313 -0.65625,-0.234375 -0.08203,-0.22265621 -0.128906,-0.48046871 -0.175781,-0.73828121 h -0.257812 l 0.328125,1.61718746 h 1.59375 c 0.222656,0 0.257812,0 0.257812,-0.2109375 0,-0.69140625 -0.316406,-1.57031246 -0.539062,-2.21484376 -0.210938,-0.5742187 -0.492188,-1.359375 -0.492188,-2.109375 0,-1.59375 1.101563,-2.2734375 2.003906,-2.2734375 0.960938,0 2.015625,0.7265625 2.015625,2.2734375 0,0.75 -0.269531,1.5117188 -0.5625,2.3203125 -0.152343,0.421875 -0.46875,1.31250001 -0.46875,2.00390626 0,0.2109375 0.03516,0.2109375 0.257813,0.2109375 h 1.582031 z m 0,0"
         style="fill:#000000;fill-opacity:1;fill-rule:nonzero;stroke:none" />
    </g>
    <path
       id="path9"
       d="m 85.04044,76.5364 17.29162,-1e-5 m 7.93695,0 17.29164,1e-5 -10e-6,-22.39402 m 0,-31.74838 L 127.56065,0 H 42.52022 l -2e-5,26.36247 m 0,23.81143 2e-5,26.3625"
       style="fill:none;stroke:#000000;stroke-width:0.3985;stroke-linecap:butt;stroke-linejoin:miter;stroke-miterlimit:10;stroke-dasharray:none;stroke-opacity:1"
       transform="matrix(1.3333333,0,0,-1.3333333,4.6893333,137.112)" />
    <path
       id="path10"
       d="M 102.33206,88.44211 V 64.63068 m 7.93695,23.81143 V 64.63068"
       style="fill:none;stroke:#000000;stroke-width:0.797;stroke-linecap:butt;stroke-linejoin:miter;stroke-miterlimit:10;stroke-dasharray:none;stroke-opacity:1"
       transform="matrix(1.3333333,0,0,-1.3333333,4.6893333,137.112)" />
    <g
       id="g10"
       aria-label="−j5Ω"
       transform="matrix(1.3333333,0,0,1.3333333,130,13.308)">
      <path
         id="path11"
         d="m 6.5625,-2.2964297 c 0.1757812,0 0.3515625,0 0.3515625,-0.1992187 0,-0.1992188 -0.1757813,-0.1992188 -0.3515625,-0.1992188 H 1.171875 c -0.1640625,0 -0.33984375,0 -0.33984375,0.1992188 0,0.1992187 0.17578125,0.1992187 0.33984375,0.1992187 z m 0,0"
         style="fill:#000000;fill-opacity:1;fill-rule:nonzero;stroke:none" />
      <path
         id="path12"
         d="M 9.8466797,0.50435156 V -4.4058047 l -1.5234375,0.1171875 v 0.3046875 c 0.7734375,0 0.8554687,0.070312 0.8554687,0.5625 v 3.93750001 c 0,0.4453125 -0.082031,1.31249999 -0.7265625,1.31249999 -0.046875,0 -0.2695312,0 -0.5390625,-0.1289062 0.1523438,-0.046875 0.3515625,-0.1875 0.3515625,-0.4570313 0,-0.25781249 -0.1757812,-0.45703124 -0.4570312,-0.45703124 -0.28125,0 -0.4570313,0.19921875 -0.4570313,0.45703124 0,0.515625 0.5625,0.796875 1.125,0.796875 0.75,0 1.3710938,-0.6328125 1.3710938,-1.53515624 z m 0,-6.51562496 c 0,-0.2695313 -0.234375,-0.5273438 -0.5390625,-0.5273438 -0.328125,0 -0.5273438,0.2695313 -0.5273438,0.5273438 0,0.2695312 0.2226563,0.5273437 0.5273438,0.5273437 0.3398437,0 0.5390625,-0.28125 0.5390625,-0.5273437 z m 0,0"
         style="fill:#000000;fill-opacity:1;fill-rule:nonzero;stroke:none" />
      <path
         id="path13"
         d="m 15.272461,-2.0034609 c 0,-1.1835938 -0.820313,-2.1796875 -1.898438,-2.1796875 -0.480468,0 -0.902343,0.1640625 -1.265625,0.5039062 v -1.9335937 c 0.199219,0.058594 0.527344,0.1289062 0.84375,0.1289062 1.230469,0 1.933594,-0.9140625 1.933594,-1.0429687 0,-0.058594 -0.03516,-0.1054688 -0.105469,-0.1054688 -0.01172,0 -0.03516,0 -0.08203,0.023437 -0.199219,0.09375 -0.679687,0.2929688 -1.347656,0.2929688 -0.398438,0 -0.855469,-0.070312 -1.324219,-0.28125 -0.08203,-0.023437 -0.105469,-0.023437 -0.128906,-0.023437 -0.09375,0 -0.09375,0.082031 -0.09375,0.234375 v 2.953125 c 0,0.1757812 0,0.2578125 0.140625,0.2578125 0.07031,0 0.08203,-0.035156 0.128906,-0.09375 0.105469,-0.1523438 0.480469,-0.6914063 1.277344,-0.6914063 0.527344,0 0.773437,0.4570313 0.855469,0.6328125 0.152343,0.375 0.175781,0.7617188 0.175781,1.2539063 0,0.3515625 0,0.9492187 -0.234375,1.37109371 -0.246094,0.38671875 -0.609375,0.64453125 -1.066406,0.64453125 -0.726563,0 -1.300782,-0.52734375 -1.464844,-1.11328126 0.02344,0.011719 0.05859,0.011719 0.164062,0.011719 0.328125,0 0.503907,-0.2460938 0.503907,-0.4804688 0,-0.2460937 -0.175782,-0.4921875 -0.503907,-0.4921875 -0.140625,0 -0.480468,0.070312 -0.480468,0.5273438 0,0.85546871 0.679687,1.82812496 1.792968,1.82812496 1.160157,0 2.179688,-0.9609375 2.179688,-2.22656246 z m 8.897461,0.3867187 h -0.246094 c -0.04687,0.2578125 -0.08203,0.4921875 -0.175781,0.72656251 -0.04687,0.1640625 -0.08203,0.24609375 -0.65625,0.24609375 h -0.796875 c 0.128906,-0.56249996 0.433594,-1.04296876 0.878906,-1.69921876 0.46875,-0.703125 0.878906,-1.3945312 0.878906,-2.1796875 0,-1.3828125 -1.335937,-2.4960937 -3.023437,-2.4960937 -1.710938,0 -3.035156,1.1367187 -3.035156,2.4960937 0,0.7851563 0.398437,1.4765625 0.867187,2.1796875 0.445313,0.65625 0.761719,1.1367188 0.890625,1.69921876 h -0.796875 c -0.574219,0 -0.609375,-0.0820313 -0.65625,-0.234375 -0.08203,-0.22265626 -0.128906,-0.48046876 -0.175781,-0.73828126 h -0.257813 l 0.328125,1.6171875125 h 1.59375 c 0.222657,0 0.257813,0 0.257813,-0.2109375025 0,-0.69140625 -0.316406,-1.57031251 -0.539063,-2.21484371 -0.210937,-0.5742188 -0.492187,-1.359375 -0.492187,-2.109375 0,-1.59375 1.101562,-2.2734375 2.003906,-2.2734375 0.960938,0 2.015625,0.7265625 2.015625,2.2734375 0,0.75 -0.269531,1.5117187 -0.5625,2.3203125 -0.152344,0.421875 -0.46875,1.31249996 -0.46875,2.00390621 0,0.2109375025 0.03516,0.2109375025 0.257813,0.2109375025 h 1.582031 z m 0,0"
         style="fill:#000000;fill-opacity:1;fill-rule:nonzero;stroke:none" />
    </g>
    <path
       id="path14"
       d="m 121.61589,22.394 v 31.74838 h 11.8895 V 22.394 Z"
       style="fill:none;stroke:#000000;stroke-width:0.797;stroke-linecap:butt;stroke-linejoin:miter;stroke-miterlimit:10;stroke-dasharray:none;stroke-opacity:1"
       transform="matrix(1.3333333,0,0,-1.3333333,4.6893333,137.112)" />
    <path
       id="path15"
       d="m 136.05318,22.394 -18.68355,22.22377 v 9.52461"
       style="fill:none;stroke:#000000;stroke-width:0.797;stroke-linecap:butt;stroke-linejoin:miter;stroke-miterlimit:10;stroke-dasharray:none;stroke-opacity:1"
       transform="matrix(1.3333333,0,0,-1.3333333,4.6893333,137.112)" />
    <g
       id="g15"
       aria-label="Z&#10;L"
       transform="matrix(1.3333333,0,0,1.3333333,189.37333,88.950667)">
      <path
         id="path16"
         d="m 7.173125,-6.5635859 c 0.011719,-0.046875 0.035156,-0.09375 0.035156,-0.1523438 0,-0.09375 -0.058594,-0.09375 -0.2578125,-0.09375 H 2.7551563 c -0.2460938,0 -0.2578125,0.011719 -0.3164063,0.1992188 l -0.5390625,1.7929687 c -0.023437,0.058594 -0.035156,0.1289063 -0.035156,0.140625 0,0.011719 0,0.1171875 0.1171875,0.1171875 0.09375,0 0.1171875,-0.070312 0.1289062,-0.1054687 0.3867188,-1.171875 0.9023438,-1.828125 2.4492188,-1.828125 H 6.18875 l -5.56640625,6.22265621 c 0,0.0117188 -0.046875,0.15234375 -0.046875,0.17578125 0,0.09375 0.0703125,0.09375 0.2578125,0.09375 H 5.1575 c 0.2460938,0 0.2578125,-0.01171875 0.3164063,-0.19921875 l 0.703125,-2.20312501 c 0.011719,-0.035156 0.035156,-0.1054687 0.035156,-0.1523437 0,-0.046875 -0.035156,-0.1054688 -0.1289062,-0.1054688 -0.082031,0 -0.09375,0.035156 -0.1640625,0.2460938 -0.4335938,1.359375 -0.9140625,2.07421871 -2.6132813,2.07421871 H 1.6067188 Z m 0,0"
         style="fill:#000000;fill-opacity:1;fill-rule:nonzero;stroke:none" />
      <path
         id="path17"
         d="m 9.6721484,-2.7022578 c 0.058594,-0.2460938 0.082031,-0.3164063 0.7265626,-0.3164063 0.210937,0 0.28125,0 0.28125,-0.1523437 0,-0.011719 0,-0.09375 -0.117188,-0.09375 -0.152343,0 -0.339843,0.011719 -0.515625,0.011719 -0.1757808,0.011719 -0.3749996,0.011719 -0.5507808,0.011719 -0.1523438,0 -0.3398438,-0.011719 -0.4804688,-0.011719 -0.1523437,0 -0.3164062,-0.011719 -0.4570312,-0.011719 -0.046875,0 -0.1523438,0 -0.1523438,0.1523437 0,0.09375 0.09375,0.09375 0.2226563,0.09375 0.011719,0 0.140625,0 0.2695312,0.011719 0.1523438,0.011719 0.1640625,0.035156 0.1640625,0.1054687 0,0.011719 0,0.046875 -0.035156,0.1523438 L 8.1018359,0.95399219 C 8.0432422,1.1883672 8.0315234,1.2469609 7.4924609,1.2469609 c -0.1171875,0 -0.2109375,0 -0.2109375,0.140625 0,0.1054688 0.082031,0.1054688 0.2109375,0.1054688 h 3.5039061 c 0.175781,0 0.1875,-0.011719 0.234375,-0.140625 0.07031,-0.1875 0.597656,-1.53515626 0.597656,-1.59375001 0,-0.0234375 -0.01172,-0.09375 -0.117187,-0.09375 -0.08203,0 -0.09375,0.0234375 -0.140625,0.140625 C 11.301055,0.47352344 10.996367,1.2469609 9.7190234,1.2469609 H 8.9338672 c -0.2109375,0 -0.2226563,-0.011719 -0.2226563,-0.070312 0,-0.011719 0,-0.046875 0.023437,-0.1523437 z m 0,0"
         style="fill:#000000;fill-opacity:1;fill-rule:nonzero;stroke:none" />
    </g>
    <path
       id="path18"
       d="m 30.61449,38.26819 c 0,-6.57541 5.33029,-11.90572 11.90571,-11.90572 6.57541,0 11.90572,5.33031 11.90572,11.90572 0,6.57542 -5.33031,11.90571 -11.90572,11.90571 -6.57542,0 -11.90571,-5.33029 -11.90571,-11.90571 z m 0,0 h 23.81143"
       style="fill:none;stroke:#000000;stroke-width:0.797;stroke-linecap:butt;stroke-linejoin:miter;stroke-miterlimit:10;stroke-dasharray:none;stroke-opacity:1"
       transform="matrix(1.3333333,0,0,-1.3333333,4.6893333,137.112)" />
    <path
       id="path19"
       d="m 42.5202,61.61893 h 1.98426 l -1.98426,4.21655 -1.98425,-4.21655 z"
       style="fill:#000000;fill-opacity:1;fill-rule:nonzero;stroke:#000000;stroke-width:0.3985;stroke-linecap:butt;stroke-linejoin:miter;stroke-miterlimit:10;stroke-dasharray:none;stroke-opacity:1"
       transform="matrix(1.3333333,0,0,-1.3333333,4.6893333,137.112)" />
    <g
       id="g19"
       aria-label="˙&#10;I&#10;s"
       transform="matrix(1.3333333,0,0,1.3333333,48.244,54.398667)">
      <path
         id="path20"
         d="m 1.9087969,-6.1407969 c 0,-0.2695312 -0.2226563,-0.5273437 -0.5273438,-0.5273437 -0.3398437,0 -0.53906248,0.28125 -0.53906248,0.5273437 0,0.2695313 0.23437498,0.5273438 0.52734378,0.5273438 0.3398437,0 0.5390625,-0.2695313 0.5390625,-0.5273438 z m 0,0"
         style="fill:#000000;fill-opacity:1;fill-rule:nonzero;stroke:none" />
      <path
         id="path21"
         d="m 1.4224687,-3.5157969 c 0.09375,-0.3632812 0.1171875,-0.4570312 0.9023438,-0.4570312 0.2460937,0 0.3164062,0 0.3164062,-0.1875 0,-0.1289063 -0.1054687,-0.1289063 -0.140625,-0.1289063 -0.2929687,0 -1.03125,0.035156 -1.3125,0.035156 -0.30468745,0 -1.03124995,-0.035156 -1.33593745,-0.035156 -0.0585938,0 -0.19921875,0 -0.19921875,0.1992188 0,0.1171875 0.09375,0.1171875 0.28125,0.1171875 0.421875,0 0.69140625,0 0.69140625,0.1875 0,0.046875 0,0.070312 -0.0234375,0.1640625 L -0.7455,1.7459219 c -0.0820313,0.3632812 -0.1171875,0.46875 -0.9023438,0.46875 -0.2226562,0 -0.3164062,0 -0.3164062,0.1992187 0,0.1054688 0.1171875,0.1054688 0.1523437,0.1054688 0.28125,0 1.00781255,-0.035156 1.3007813,-0.035156 0.3046875,0 1.03125,0.035156 1.3359375,0.035156 0.0820313,0 0.1992187,0 0.1992187,-0.1875 0,-0.1171875 -0.0820312,-0.1171875 -0.30468745,-0.1171875 -0.17578125,0 -0.22265625,0 -0.421875,-0.023437 C 0.08653125,2.1677969 0.051375,2.1326406 0.051375,2.0154531 c 0,-0.070313 0.01171875,-0.1523437 0.03515625,-0.2226562 z m 0,0"
         style="fill:#000000;fill-opacity:1;fill-rule:nonzero;stroke:none" />
      <path
         id="path22"
         d="M 5.0757891,1.3885 C 4.9000078,1.435375 4.7828203,1.576 4.7828203,1.716625 c 0,0.1640625 0.140625,0.2226563 0.234375,0.2226563 0.070312,0 0.3398438,-0.035156 0.3398438,-0.3984375 0,-0.4453125 -0.5039063,-0.5976563 -0.9257813,-0.5976563 -1.0898437,0 -1.2890625,0.796875 -1.2890625,1.0078125 0,0.2578125 0.1523438,0.4335938 0.2460938,0.515625 0.1757812,0.140625 0.3046875,0.1640625 0.7851562,0.2460938 0.1523438,0.035156 0.5976563,0.1171875 0.5976563,0.46875 0,0.1171875 -0.082031,0.375 -0.375,0.5507812 -0.2695313,0.1523438 -0.609375,0.1523438 -0.6914063,0.1523438 -0.28125,0 -0.6796875,-0.058594 -0.84375,-0.2929688 0.234375,-0.023437 0.3867188,-0.1992187 0.3867188,-0.3984375 0,-0.1640625 -0.1289063,-0.2578125 -0.2695313,-0.2578125 -0.1992187,0 -0.4101562,0.1640625 -0.4101562,0.46875 0,0.421875 0.4453125,0.6796875 1.125,0.6796875 1.2890625,0 1.5234375,-0.8789062 1.5234375,-1.1484375 0,-0.6445312 -0.703125,-0.7734375 -0.9609375,-0.8203125 -0.070312,-0.011719 -0.2460938,-0.035156 -0.28125,-0.058594 -0.2578125,-0.046875 -0.3867188,-0.1875 -0.3867188,-0.3398438 0,-0.1640625 0.1289063,-0.3515625 0.28125,-0.4453125 0.1875,-0.1289062 0.4335938,-0.140625 0.5507813,-0.140625 0.140625,0 0.5039062,0.023437 0.65625,0.2578128 z m 0,0"
         style="fill:#000000;fill-opacity:1;fill-rule:nonzero;stroke:none" />
    </g>
  </g>
</svg>
