<?xml version="1.0" encoding="UTF-8" standalone="no"?>
<!-- Created with Inkscape (http://www.inkscape.org/) -->

<svg
   version="1.1"
   id="svg1"
   width="193.37334"
   height="107.12"
   viewBox="0 0 193.37334 107.12"
   sodipodi:docname="25-26-2-电路分析基础-期末-题图9.pdf"
   xmlns:inkscape="http://www.inkscape.org/namespaces/inkscape"
   xmlns:sodipodi="http://sodipodi.sourceforge.net/DTD/sodipodi-0.dtd"
   xmlns="http://www.w3.org/2000/svg"
   xmlns:svg="http://www.w3.org/2000/svg">
  <defs
     id="defs1" />
  <sodipodi:namedview
     id="namedview1"
     pagecolor="#ffffff"
     bordercolor="#111111"
     borderopacity="1"
     inkscape:showpageshadow="0"
     inkscape:pageopacity="0"
     inkscape:pagecheckerboard="1"
     inkscape:deskcolor="#d1d1d1">
    <inkscape:page
       x="0"
       y="0"
       inkscape:label="1"
       id="page1"
       width="193.37334"
       height="107.12"
       margin="0"
       bleed="0" />
  </sodipodi:namedview>
  <g
     id="g1"
     inkscape:groupmode="layer"
     inkscape:label="1">
    <path
       id="path1"
       d="m 0,51.02426 25.51212,-10e-6 m 0,0 25.51214,10e-6 -10e-6,-9.63796 m 0,-31.74838 L 51.02426,0 H 0"
       style="fill:none;stroke:#000000;stroke-width:0.3985;stroke-linecap:butt;stroke-linejoin:miter;stroke-miterlimit:10;stroke-dasharray:none;stroke-opacity:1"
       transform="matrix(1.3333333,0,0,-1.3333333,13.861333,104.208)" />
    <path
       id="path2"
       d="M 1.58714,0 C 1.58714,0.87656 0.87656,1.58714 0,1.58714 -0.87656,1.58714 -1.58714,0.87656 -1.58714,0 c 0,-0.87656 0.71058,-1.58714 1.58714,-1.58714 0.87656,0 1.58714,0.71058 1.58714,1.58714 z"
       style="fill:#ffffff;fill-opacity:1;fill-rule:nonzero;stroke:#000000;stroke-width:0.3985;stroke-linecap:butt;stroke-linejoin:miter;stroke-miterlimit:10;stroke-dasharray:none;stroke-opacity:1"
       transform="matrix(1.3333333,0,0,-1.3333333,13.861333,104.208)" />
    <path
       id="path3"
       d="m 1.58714,51.02426 c 0,0.87656 -0.71058,1.58714 -1.58714,1.58714 -0.87656,0 -1.58714,-0.71058 -1.58714,-1.58714 0,-0.87656 0.71058,-1.58714 1.58714,-1.58714 0.87656,0 1.58714,0.71058 1.58714,1.58714 z"
       style="fill:#ffffff;fill-opacity:1;fill-rule:nonzero;stroke:#000000;stroke-width:0.3985;stroke-linecap:butt;stroke-linejoin:miter;stroke-miterlimit:10;stroke-dasharray:none;stroke-opacity:1"
       transform="matrix(1.3333333,0,0,-1.3333333,13.861333,104.208)" />
    <path
       id="path4"
       d="m 6.5619844,-2.2969063 c 0.1757812,0 0.3515625,0 0.3515625,-0.1992187 0,-0.1992188 -0.1757813,-0.1992188 -0.3515625,-0.1992188 h -5.390625 c -0.1640625,0 -0.33984377,0 -0.33984377,0.1992188 0,0.1992187 0.17578127,0.1992187 0.33984377,0.1992187 z m 0,0"
       style="fill:#000000;fill-opacity:1;fill-rule:nonzero;stroke:none"
       aria-label="−"
       transform="matrix(1.3333333,0,0,1.3333333,8.696,97.390667)" />
    <path
       id="path5"
       d="m 4.0776094,-2.2963359 h 2.7773437 c 0.140625,0 0.328125,0 0.328125,-0.1992188 0,-0.1992187 -0.1875,-0.1992187 -0.328125,-0.1992187 H 4.0776094 v -2.7890625 c 0,-0.1289063 0,-0.328125 -0.1992188,-0.328125 -0.1992187,0 -0.1992187,0.1992187 -0.1992187,0.328125 v 2.7890625 H 0.89010938 c -0.140625,0 -0.328125,0 -0.328125,0.1992187 0,0.1992188 0.1875,0.1992188 0.328125,0.1992188 H 3.6791719 v 2.80078121 c 0,0.12890625 0,0.328125 0.1992187,0.328125 0.1992188,0 0.1992188,-0.19921875 0.1992188,-0.328125 z m 0,0"
       style="fill:#000000;fill-opacity:1;fill-rule:nonzero;stroke:none"
       aria-label="+"
       transform="matrix(1.3333333,0,0,1.3333333,8.696,49.636)" />
    <g
       id="g5"
       aria-label="u&#10;1"
       transform="matrix(1.3333333,0,0,1.3333333,7.08,72.054667)">
      <path
         id="path6"
         d="m 3.4907813,-0.56248438 c 0.1054687,0.41015625 0.4570312,0.66796875 0.8789062,0.66796875 0.3515625,0 0.5742188,-0.22265625 0.7382813,-0.5390625 0.1757812,-0.36328125 0.3046875,-0.97265627 0.3046875,-0.99609377 0,-0.09375 -0.09375,-0.09375 -0.1289063,-0.09375 -0.09375,0 -0.1054687,0.035156 -0.140625,0.1757813 -0.1289062,0.56249997 -0.328125,1.24218747 -0.7382812,1.24218747 -0.2109375,0 -0.3164063,-0.12890625 -0.3164063,-0.45703125 0,-0.22265625 0.1289063,-0.69140622 0.1992188,-1.04296872 l 0.28125,-1.078125 c 0.035156,-0.140625 0.1289062,-0.5273438 0.1757812,-0.6679688 0.046875,-0.234375 0.140625,-0.609375 0.140625,-0.6679687 0,-0.1875 -0.140625,-0.2695313 -0.28125,-0.2695313 -0.058594,0 -0.3164062,0 -0.3867187,0.3398438 -0.1992188,0.7265625 -0.6328125,2.4726562 -0.75,2.99999997 -0.011719,0.046875 -0.4101563,0.84375 -1.1367188,0.84375 -0.515625,0 -0.6210937,-0.45703125 -0.6210937,-0.8203125 0,-0.56249997 0.28125,-1.34765627 0.5390625,-2.02734377 0.1171875,-0.3046875 0.1757812,-0.4453125 0.1757812,-0.6328125 0,-0.4453125 -0.328125,-0.8203125 -0.8203125,-0.8203125 -0.94921875,0 -1.3125,1.453125 -1.3125,1.5351563 0,0.1054687 0.09375,0.1054687 0.1171875,0.1054687 0.09375,0 0.10546875,-0.023437 0.15234375,-0.1875 0.2578125,-0.8671875 0.63281255,-1.2304687 1.00781255,-1.2304687 0.09375,0 0.2578125,0.011719 0.2578125,0.328125 0,0.234375 -0.1171875,0.5273437 -0.1757813,0.6796875 -0.3632812,0.984375 -0.5742187,1.6054687 -0.5742187,2.0859375 0,0.94921872 0.6796875,1.19531247 1.21875,1.19531247 0.65625,0 1.0195312,-0.4453125 1.1953125,-0.66796875 z m 0,0"
         style="fill:#000000;fill-opacity:1;fill-rule:nonzero;stroke:none" />
      <path
         id="path7"
         d="m 8.0347266,-2.9355313 c 0,-0.1875 -0.011719,-0.1992187 -0.2109375,-0.1992187 -0.4453125,0.4335937 -1.078125,0.4453125 -1.359375,0.4453125 v 0.2460937 c 0.1640625,0 0.6210937,0 1.0078125,-0.1875 v 3.5507813 c 0,0.234375 0,0.328125 -0.6914063,0.328125 H 6.5112891 v 0.2460937 c 0.1289062,-0.011719 0.984375,-0.023437 1.2421875,-0.023437 0.2109375,0 1.0898437,0.011719 1.2421875,0.023437 V 1.2480625 H 8.7378516 c -0.703125,0 -0.703125,-0.09375 -0.703125,-0.328125 z m 0,0"
         style="fill:#000000;fill-opacity:1;fill-rule:nonzero;stroke:none" />
    </g>
    <path
       id="path8"
       d="M 23.7759,51.02425 V 49.04 l 4.21655,1.98425 -4.21655,1.98425 z"
       style="fill:#000000;fill-opacity:1;fill-rule:nonzero;stroke:#000000;stroke-width:0.3985;stroke-linecap:butt;stroke-linejoin:miter;stroke-miterlimit:10;stroke-dasharray:none;stroke-opacity:1"
       transform="matrix(1.3333333,0,0,-1.3333333,13.861333,104.208)" />
    <g
       id="g8"
       aria-label="i&#10;1"
       transform="matrix(1.3333333,0,0,1.3333333,42.609333,49.629333)">
      <path
         id="path9"
         d="m 2.82425,-6.2229766 c 0,-0.1992187 -0.1289062,-0.3632812 -0.3632812,-0.3632812 -0.2695313,0 -0.5390625,0.2578125 -0.5390625,0.5273437 0,0.1875 0.140625,0.3632813 0.375,0.3632813 0.234375,0 0.5273437,-0.234375 0.5273437,-0.5273438 z m -0.75,3.7382813 c 0.1171875,-0.28125 0.1171875,-0.3046875 0.2226563,-0.5742188 0.070312,-0.1992187 0.1289062,-0.3398437 0.1289062,-0.5273437 0,-0.4453125 -0.328125,-0.8203125 -0.8203125,-0.8203125 -0.9375,0 -1.3125,1.453125 -1.3125,1.5351562 0,0.1054688 0.09375,0.1054688 0.1171875,0.1054688 0.09375,0 0.10546875,-0.023437 0.15234375,-0.1875 0.26953125,-0.9375 0.66796875,-1.2304688 1.00781255,-1.2304688 0.082031,0 0.2578125,0 0.2578125,0.3164063 0,0.2109375 -0.070312,0.421875 -0.1171875,0.515625 -0.082031,0.2578125 -0.5273438,1.4179687 -0.6796875,1.8515625 -0.1054688,0.2578125 -0.23437505,0.58593749 -0.23437505,0.79687499 0,0.46875 0.33984375,0.80859375 0.82031255,0.80859375 0.9375,0 1.3007812,-1.44140624 1.3007812,-1.53515624 0,-0.09375 -0.09375,-0.09375 -0.1171875,-0.09375 -0.1054687,0 -0.1054687,0.023437 -0.1523437,0.1757812 -0.1757813,0.63281254 -0.5039063,1.24218754 -1.0195313,1.24218754 -0.1640625,0 -0.234375,-0.10546875 -0.234375,-0.328125 0,-0.2578125 0.058594,-0.3984375 0.2929688,-0.99609374 z m 0,0"
         style="fill:#000000;fill-opacity:1;fill-rule:nonzero;stroke:none" />
      <path
         id="path10"
         d="m 5.7656563,-2.9358672 c 0,-0.1875 -0.011719,-0.1992187 -0.2109375,-0.1992187 -0.4453125,0.4335937 -1.078125,0.4453125 -1.359375,0.4453125 v 0.2460937 c 0.1640625,0 0.6210937,0 1.0078125,-0.1875 v 3.55078126 c 0,0.23437504 0,0.32812504 -0.6914063,0.32812504 H 4.2422188 v 0.2460937 c 0.1289062,-0.011719 0.984375,-0.023437 1.2421875,-0.023437 0.2109375,0 1.0898437,0.011719 1.2421875,0.023437 V 1.2477266 H 6.4687813 c -0.703125,0 -0.703125,-0.09375 -0.703125,-0.32812504 z m 0,0"
         style="fill:#000000;fill-opacity:1;fill-rule:nonzero;stroke:none" />
    </g>
    <path
       id="path11"
       d="m 50.86485,41.78482 c 3.28755,0 5.95256,-1.82136 5.95256,-4.06818 0,-2.24679 -2.66501,-4.06816 -5.95256,-4.06816 3.28755,0 5.95256,-1.82136 5.95256,-4.06818 0,-2.2468 -2.66501,-4.06817 -5.95256,-4.06817 3.28755,0 5.95256,-1.82136 5.95256,-4.06816 0,-2.24681 -2.66501,-4.06817 -5.95256,-4.06817 3.28755,0 5.95256,-1.82137 5.95256,-4.06818 0,-2.2468 -2.66501,-4.06816 -5.95256,-4.06816"
       style="fill:none;stroke:#000000;stroke-width:0.797;stroke-linecap:butt;stroke-linejoin:bevel;stroke-miterlimit:10;stroke-dasharray:none;stroke-opacity:1"
       transform="matrix(1.3333333,0,0,-1.3333333,13.861333,104.208)" />
    <g
       id="g11"
       aria-label="L&#10;1"
       transform="matrix(1.3333333,0,0,1.3333333,61.837333,73.054667)">
      <path
         id="path12"
         d="m 3.7255156,-6.0234219 c 0.09375,-0.3632812 0.1171875,-0.46875 1.0546875,-0.46875 0.3046875,0 0.375,0 0.375,-0.1875 0,-0.1289062 -0.1054687,-0.1289062 -0.1523437,-0.1289062 -0.328125,0 -1.1484375,0.035156 -1.4765625,0.035156 -0.3046875,0 -1.03125,-0.035156 -1.3242188,-0.035156 -0.070312,0 -0.1875,0 -0.1875,0.1992187 0,0.1171875 0.082031,0.1171875 0.28125,0.1171875 0.011719,0 0.1992188,0 0.375,0.011719 0.1757813,0.023437 0.2695313,0.035156 0.2695313,0.1640625 0,0.035156 -0.011719,0.070312 -0.046875,0.1875 l -1.3359375,5.35546872 c -0.09375,0.38671875 -0.1171875,0.46875 -0.90234378,0.46875 -0.1640625,0 -0.26953125,0 -0.26953125,0.19921875 0,0.105468755 0.09375,0.105468755 0.26953125,0.105468755 H 5.2723906 c 0.234375,0 0.2460938,0 0.3046875,-0.164062505 L 6.3622344,-2.3202969 c 0.046875,-0.1054687 0.046875,-0.1289062 0.046875,-0.140625 0,-0.035156 -0.035156,-0.1054687 -0.1289063,-0.1054687 -0.082031,0 -0.09375,0.046875 -0.1640625,0.2109375 -0.3398437,0.9140625 -0.7734375,2.05078122 -2.4960937,2.05078122 h -0.9375 c -0.140625,0 -0.1640625,0 -0.2226563,-0.0117188 -0.1054687,-0.0117188 -0.1289062,-0.0234375 -0.1289062,-0.10546875 0,-0.0234375 0,-0.046875 0.046875,-0.22265625 z m 0,0"
         style="fill:#000000;fill-opacity:1;fill-rule:nonzero;stroke:none" />
      <path
         id="path13"
         d="m 9.1132109,-2.9355313 c 0,-0.1875 -0.011719,-0.1992187 -0.2109375,-0.1992187 -0.4453125,0.4335937 -1.078125,0.4453125 -1.359375,0.4453125 v 0.2460937 c 0.1640625,0 0.6210938,0 1.0078125,-0.1875 v 3.5507813 c 0,0.234375 0,0.328125 -0.6914062,0.328125 H 7.5897734 v 0.2460937 c 0.1289063,-0.011719 0.984375,-0.023437 1.2421875,-0.023437 0.2109375,0 1.0898438,0.011719 1.2421871,0.023437 V 1.2480625 H 9.8163359 c -0.703125,0 -0.703125,-0.09375 -0.703125,-0.328125 z m 0,0"
         style="fill:#000000;fill-opacity:1;fill-rule:nonzero;stroke:none" />
    </g>
    <path
       id="path14"
       d="m 76.53639,0 v 9.63792 m 0,31.74838 v 9.63796 h 51.02426 m 0,-51.02426 h -25.51213 m 0,0 H 76.53639"
       style="fill:none;stroke:#000000;stroke-width:0.3985;stroke-linecap:butt;stroke-linejoin:miter;stroke-miterlimit:10;stroke-dasharray:none;stroke-opacity:1"
       transform="matrix(1.3333333,0,0,-1.3333333,13.861333,104.208)" />
    <path
       id="path15"
       d="m 76.69579,9.23943 c -3.28756,0 -5.95256,1.82136 -5.95256,4.06816 0,2.24681 2.665,4.06817 5.95256,4.06817 -3.28756,0 -5.95256,1.82137 -5.95256,4.06818 0,2.24679 2.665,4.06816 5.95256,4.06816 -3.28756,0 -5.95256,1.82137 -5.95256,4.06818 0,2.24681 2.665,4.06817 5.95256,4.06817 -3.28756,0 -5.95256,1.82137 -5.95256,4.06816 0,2.24681 2.665,4.06818 5.95256,4.06818"
       style="fill:none;stroke:#000000;stroke-width:0.797;stroke-linecap:butt;stroke-linejoin:bevel;stroke-miterlimit:10;stroke-dasharray:none;stroke-opacity:1"
       transform="matrix(1.3333333,0,0,-1.3333333,13.861333,104.208)" />
    <g
       id="g15"
       aria-label="L&#10;2"
       transform="matrix(1.3333333,0,0,1.3333333,120.96667,73.054667)">
      <path
         id="path16"
         d="m 3.7251953,-6.0234219 c 0.09375,-0.3632812 0.1171875,-0.46875 1.0546875,-0.46875 0.3046875,0 0.375,0 0.375,-0.1875 0,-0.1289062 -0.1054687,-0.1289062 -0.1523437,-0.1289062 -0.328125,0 -1.1484375,0.035156 -1.4765625,0.035156 -0.3046875,0 -1.03125,-0.035156 -1.3242188,-0.035156 -0.070312,0 -0.1875,0 -0.1875,0.1992187 0,0.1171875 0.082031,0.1171875 0.28125,0.1171875 0.011719,0 0.1992188,0 0.375,0.011719 0.1757813,0.023437 0.2695313,0.035156 0.2695313,0.1640625 0,0.035156 -0.011719,0.070312 -0.046875,0.1875 l -1.3359375,5.35546872 c -0.09375,0.38671875 -0.1171875,0.46875 -0.90234379,0.46875 -0.1640625,0 -0.26953125,0 -0.26953125,0.19921875 0,0.105468755 0.09375,0.105468755 0.26953125,0.105468755 H 5.2720703 c 0.234375,0 0.2460938,0 0.3046875,-0.164062505 L 6.3619141,-2.3202969 c 0.046875,-0.1054687 0.046875,-0.1289062 0.046875,-0.140625 0,-0.035156 -0.035156,-0.1054687 -0.1289063,-0.1054687 -0.082031,0 -0.09375,0.046875 -0.1640625,0.2109375 -0.3398437,0.9140625 -0.7734375,2.05078122 -2.4960937,2.05078122 h -0.9375 c -0.140625,0 -0.1640625,0 -0.2226563,-0.0117188 -0.1054687,-0.0117188 -0.1289062,-0.0234375 -0.1289062,-0.10546875 0,-0.0234375 0,-0.046875 0.046875,-0.22265625 z m 0,0"
         style="fill:#000000;fill-opacity:1;fill-rule:nonzero;stroke:none" />
      <path
         id="path17"
         d="M 10.296484,0.22853125 H 10.062109 C 10.038669,0.380875 9.980078,0.79103125 9.8863281,0.86134375 9.8277344,0.8965 9.2886719,0.8965 9.1949219,0.8965 H 7.9058594 c 0.7382812,-0.64453125 0.984375,-0.84375 1.3945312,-1.171875 0.515625,-0.41015625 0.9960934,-0.84375 0.9960934,-1.5 0,-0.84375 -0.7382809,-1.359375 -1.6289059,-1.359375 -0.8671875,0 -1.453125,0.609375 -1.453125,1.2421875 0,0.3632812 0.3046875,0.3984375 0.375,0.3984375 0.1640625,0 0.375,-0.1171875 0.375,-0.375 0,-0.1289063 -0.058594,-0.3632813 -0.421875,-0.3632813 0.2226563,-0.5039062 0.6914063,-0.65625 1.0195313,-0.65625 0.703125,0 1.0664062,0.5507813 1.0664062,1.1132813 0,0.609375 -0.4335937,1.08984375 -0.65625,1.3359375 l -1.6875,1.6640625 c -0.070312,0.058594 -0.070312,0.070312 -0.070312,0.2695312 h 2.8828134 z m 0,0"
         style="fill:#000000;fill-opacity:1;fill-rule:nonzero;stroke:none" />
    </g>
    <path
       id="path18"
       d="m 129.14781,51.02426 c 0,0.87656 -0.71058,1.58714 -1.58716,1.58714 -0.87655,0 -1.58714,-0.71058 -1.58714,-1.58714 0,-0.87656 0.71059,-1.58714 1.58714,-1.58714 0.87658,0 1.58716,0.71058 1.58716,1.58714 z"
       style="fill:#ffffff;fill-opacity:1;fill-rule:nonzero;stroke:#000000;stroke-width:0.3985;stroke-linecap:butt;stroke-linejoin:miter;stroke-miterlimit:10;stroke-dasharray:none;stroke-opacity:1"
       transform="matrix(1.3333333,0,0,-1.3333333,13.861333,104.208)" />
    <path
       id="path19"
       d="m 129.14781,0 c 0,0.87656 -0.71058,1.58714 -1.58716,1.58714 -0.87655,0 -1.58714,-0.71058 -1.58714,-1.58714 0,-0.87656 0.71059,-1.58714 1.58714,-1.58714 0.87658,0 1.58716,0.71058 1.58716,1.58714 z"
       style="fill:#ffffff;fill-opacity:1;fill-rule:nonzero;stroke:#000000;stroke-width:0.3985;stroke-linecap:butt;stroke-linejoin:miter;stroke-miterlimit:10;stroke-dasharray:none;stroke-opacity:1"
       transform="matrix(1.3333333,0,0,-1.3333333,13.861333,104.208)" />
    <path
       id="path20"
       d="m 6.5635078,-2.2963359 c 0.1757813,0 0.3515625,0 0.3515625,-0.1992188 0,-0.1992187 -0.1757812,-0.1992187 -0.3515625,-0.1992187 h -5.390625 c -0.1640625,0 -0.33984374,0 -0.33984374,0.1992187 0,0.1992188 0.17578124,0.1992188 0.33984374,0.1992188 z m 0,0"
       style="fill:#000000;fill-opacity:1;fill-rule:nonzero;stroke:none"
       aria-label="−"
       transform="matrix(1.3333333,0,0,1.3333333,178.776,49.636)" />
    <path
       id="path21"
       d="m 4.0791328,-2.2969063 h 2.7773438 c 0.140625,0 0.328125,0 0.328125,-0.1992187 0,-0.1992188 -0.1875,-0.1992188 -0.328125,-0.1992188 H 4.0791328 v -2.7890625 c 0,-0.1289062 0,-0.328125 -0.1992187,-0.328125 -0.1992188,0 -0.1992188,0.1992188 -0.1992188,0.328125 v 2.7890625 H 0.89163281 c -0.140625,0 -0.328125,0 -0.328125,0.1992188 0,0.1992187 0.1875,0.1992187 0.328125,0.1992187 H 3.6806953 V 0.503875 c 0,0.12890625 0,0.328125 0.1992188,0.328125 0.1992187,0 0.1992187,-0.19921875 0.1992187,-0.328125 z m 0,0"
       style="fill:#000000;fill-opacity:1;fill-rule:nonzero;stroke:none"
       aria-label="+"
       transform="matrix(1.3333333,0,0,1.3333333,178.776,97.390667)" />
    <g
       id="g21"
       aria-label="u&#10;2"
       transform="matrix(1.3333333,0,0,1.3333333,177.16,72.054667)">
      <path
         id="path22"
         d="m 3.4923047,-0.56248438 c 0.1054687,0.41015625 0.4570312,0.66796875 0.8789062,0.66796875 0.3515625,0 0.5742188,-0.22265625 0.7382813,-0.5390625 0.1757812,-0.36328125 0.3046875,-0.97265627 0.3046875,-0.99609377 0,-0.09375 -0.09375,-0.09375 -0.1289063,-0.09375 -0.09375,0 -0.1054687,0.035156 -0.140625,0.1757813 -0.1289062,0.56249997 -0.328125,1.24218747 -0.7382812,1.24218747 -0.2109375,0 -0.3164063,-0.12890625 -0.3164063,-0.45703125 0,-0.22265625 0.1289063,-0.69140622 0.1992188,-1.04296872 l 0.28125,-1.078125 c 0.035156,-0.140625 0.1289062,-0.5273438 0.1757812,-0.6679688 0.046875,-0.234375 0.140625,-0.609375 0.140625,-0.6679687 0,-0.1875 -0.140625,-0.2695313 -0.28125,-0.2695313 -0.058594,0 -0.3164062,0 -0.3867187,0.3398438 -0.1992188,0.7265625 -0.6328125,2.4726562 -0.75,2.99999997 -0.011719,0.046875 -0.4101563,0.84375 -1.1367188,0.84375 -0.515625,0 -0.6210937,-0.45703125 -0.6210937,-0.8203125 0,-0.56249997 0.28125,-1.34765627 0.5390625,-2.02734377 0.1171875,-0.3046875 0.1757812,-0.4453125 0.1757812,-0.6328125 0,-0.4453125 -0.328125,-0.8203125 -0.8203125,-0.8203125 -0.94921871,0 -1.31249996,1.453125 -1.31249996,1.5351563 0,0.1054687 0.09375,0.1054687 0.1171875,0.1054687 0.09375,0 0.10546875,-0.023437 0.15234375,-0.1875 0.2578125,-0.8671875 0.63281251,-1.2304687 1.00781251,-1.2304687 0.09375,0 0.2578125,0.011719 0.2578125,0.328125 0,0.234375 -0.1171875,0.5273437 -0.1757813,0.6796875 -0.3632812,0.984375 -0.5742187,1.6054687 -0.5742187,2.0859375 0,0.94921872 0.6796875,1.19531247 1.21875,1.19531247 0.65625,0 1.0195312,-0.4453125 1.1953125,-0.66796875 z m 0,0"
         style="fill:#000000;fill-opacity:1;fill-rule:nonzero;stroke:none" />
      <path
         id="path23"
         d="M 9.2198437,0.22853125 H 8.9854687 C 8.9620312,0.380875 8.9034375,0.79103125 8.8096875,0.86134375 8.7510937,0.8965 8.2120312,0.8965 8.1182812,0.8965 H 6.8292187 C 7.5675,0.25196875 7.8135937,0.05275 8.22375,-0.275375 c 0.515625,-0.41015625 0.9960937,-0.84375 0.9960937,-1.5 0,-0.84375 -0.7382812,-1.359375 -1.6289062,-1.359375 -0.8671875,0 -1.453125,0.609375 -1.453125,1.2421875 0,0.3632812 0.3046875,0.3984375 0.375,0.3984375 0.1640625,0 0.375,-0.1171875 0.375,-0.375 0,-0.1289063 -0.058594,-0.3632813 -0.421875,-0.3632813 0.2226562,-0.5039062 0.6914062,-0.65625 1.0195312,-0.65625 0.703125,0 1.0664063,0.5507813 1.0664063,1.1132813 0,0.609375 -0.4335938,1.08984375 -0.65625,1.3359375 L 6.208125,1.224625 C 6.137813,1.283219 6.137813,1.294937 6.137813,1.4941562 h 2.882812 z m 0,0"
         style="fill:#000000;fill-opacity:1;fill-rule:nonzero;stroke:none" />
    </g>
    <path
       id="path24"
       d="M 103.78473,0 V 1.98425 L 99.56819,0 l 4.21654,-1.98425 z"
       style="fill:#000000;fill-opacity:1;fill-rule:nonzero;stroke:#000000;stroke-width:0.3985;stroke-linecap:butt;stroke-linejoin:miter;stroke-miterlimit:10;stroke-dasharray:none;stroke-opacity:1"
       transform="matrix(1.3333333,0,0,-1.3333333,13.861333,104.208)" />
    <g
       id="g24"
       aria-label="i&#10;2"
       transform="matrix(1.3333333,0,0,1.3333333,144.65867,97.522667)">
      <path
         id="path25"
         d="m 2.8253359,-6.2220781 c 0,-0.1992188 -0.1289062,-0.3632813 -0.3632812,-0.3632813 -0.2695313,0 -0.5390625,0.2578125 -0.5390625,0.5273438 0,0.1875 0.140625,0.3632812 0.375,0.3632812 0.234375,0 0.5273437,-0.234375 0.5273437,-0.5273437 z m -0.75,3.7382812 c 0.1171875,-0.28125 0.1171875,-0.3046875 0.2226563,-0.5742187 0.070312,-0.1992188 0.1289062,-0.3398438 0.1289062,-0.5273438 0,-0.4453125 -0.328125,-0.8203125 -0.8203125,-0.8203125 -0.93749996,0 -1.31249996,1.453125 -1.31249996,1.5351563 0,0.1054687 0.09375,0.1054687 0.1171875,0.1054687 0.09375,0 0.10546875,-0.023437 0.15234375,-0.1875 0.26953125,-0.9375 0.66796871,-1.2304687 1.00781251,-1.2304687 0.082031,0 0.2578125,0 0.2578125,0.3164062 0,0.2109375 -0.070312,0.421875 -0.1171875,0.515625 -0.082031,0.2578125 -0.5273438,1.4179688 -0.6796875,1.8515625 -0.10546876,0.2578125 -0.23437501,0.58593752 -0.23437501,0.79687502 0,0.46875 0.33984371,0.80859375 0.82031251,0.80859375 0.9375,0 1.3007812,-1.44140627 1.3007812,-1.53515627 0,-0.09375 -0.09375,-0.09375 -0.1171875,-0.09375 -0.1054687,0 -0.1054687,0.023437 -0.1523437,0.1757813 -0.1757813,0.63281247 -0.5039063,1.24218747 -1.0195313,1.24218747 -0.1640625,0 -0.234375,-0.10546875 -0.234375,-0.328125 0,-0.2578125 0.058594,-0.3984375 0.2929688,-0.99609377 z m 0,0"
         style="fill:#000000;fill-opacity:1;fill-rule:nonzero;stroke:none" />
      <path
         id="path26"
         d="M 6.9474063,0.22909375 H 6.7130313 C 6.6895938,0.3814375 6.631,0.79159375 6.53725,0.86190625 6.4786563,0.8970625 5.9395938,0.8970625 5.8458438,0.8970625 H 4.5567813 c 0.7382812,-0.64453125 0.984375,-0.84375 1.3945312,-1.171875 0.515625,-0.41015625 0.9960938,-0.84375 0.9960938,-1.5 0,-0.84375 -0.7382813,-1.359375 -1.6289063,-1.359375 -0.8671875,0 -1.453125,0.609375 -1.453125,1.2421875 0,0.3632812 0.3046875,0.3984375 0.375,0.3984375 0.1640625,0 0.375,-0.1171875 0.375,-0.375 0,-0.1289063 -0.058594,-0.3632813 -0.421875,-0.3632813 0.2226563,-0.5039062 0.6914063,-0.65625 1.0195313,-0.65625 0.703125,0 1.0664062,0.5507813 1.0664062,1.1132813 0,0.609375 -0.4335937,1.08984375 -0.65625,1.3359375 l -1.6875,1.6640625 C 3.865375,1.2837812 3.865375,1.2955 3.865375,1.4947187 h 2.8828125 z m 0,0"
         style="fill:#000000;fill-opacity:1;fill-rule:nonzero;stroke:none" />
    </g>
    <path
       id="path27"
       d="m 47.45218,43.37093 c 0,0.84537 -0.68529,1.53067 -1.53066,1.53067 -0.84536,0 -1.53065,-0.6853 -1.53065,-1.53067 0,-0.84537 0.68529,-1.53066 1.53065,-1.53066 0.84537,0 1.53066,0.68529 1.53066,1.53066 z"
       style="fill:#000000;fill-opacity:1;fill-rule:nonzero;stroke:#000000;stroke-width:0.3985;stroke-linecap:butt;stroke-linejoin:miter;stroke-miterlimit:10;stroke-dasharray:none;stroke-opacity:1"
       transform="matrix(1.3333333,0,0,-1.3333333,13.861333,104.208)" />
    <path
       id="path28"
       d="m 83.16978,7.6533 c 0,0.84537 -0.68528,1.53066 -1.53065,1.53066 -0.84537,0 -1.53066,-0.68529 -1.53066,-1.53066 0,-0.84536 0.68529,-1.53065 1.53066,-1.53065 0.84537,0 1.53065,0.68529 1.53065,1.53065 z"
       style="fill:#000000;fill-opacity:1;fill-rule:nonzero;stroke:#000000;stroke-width:0.3985;stroke-linecap:butt;stroke-linejoin:miter;stroke-miterlimit:10;stroke-dasharray:none;stroke-opacity:1"
       transform="matrix(1.3333333,0,0,-1.3333333,13.861333,104.208)" />
    <path
       id="path29"
       d="m 9.2224375,-6.0361563 c 0.09375,-0.3632812 0.1054687,-0.4570312 0.8554685,-0.4570312 0.234375,0 0.316406,0 0.316406,-0.1992188 0,-0.1171875 -0.09375,-0.1171875 -0.269531,-0.1171875 H 8.8122812 c -0.2578125,0 -0.2695312,0 -0.3867187,0.1992188 L 4.79275,-0.9385 4.0193125,-6.5752188 c -0.035156,-0.234375 -0.058594,-0.234375 -0.3164063,-0.234375 h -1.359375 c -0.1875,0 -0.3046875,0 -0.3046875,0.1992188 0,0.1171875 0.09375,0.1171875 0.2929688,0.1171875 0.1289062,0 0.3046875,0.011719 0.421875,0.011719 0.1640625,0.023437 0.2226562,0.058594 0.2226562,0.1640625 0,0.035156 -0.011719,0.070312 -0.035156,0.1875 l -1.265625,5.0742188 c -0.1054688,0.3984375 -0.2695313,0.71484375 -1.078125,0.75 -0.046875,0 -0.17578125,0 -0.17578125,0.1875 0,0.08203125 0.0585938,0.1171875 0.140625,0.1171875 0.31640625,0 0.66796875,-0.03515625 0.99609375,-0.03515625 0.3398437,0 0.6914062,0.03515625 1.0195312,0.03515625 0.046875,0 0.1757813,0 0.1757813,-0.19921875 0,-0.10546875 -0.1054688,-0.10546875 -0.1757813,-0.10546875 -0.5625,-0.0117188 -0.6796875,-0.2109375 -0.6796875,-0.4453125 0,-0.0703125 0.011719,-0.1171875 0.046875,-0.22265625 L 3.29275,-6.4111563 h 0.011719 l 0.8554688,6.1757813 c 0.023437,0.12890625 0.035156,0.234375 0.1523437,0.234375 0.1054688,0 0.1757813,-0.10546875 0.2226563,-0.17578125 L 8.5544687,-6.4814688 h 0.011719 L 7.1365,-0.7744375 c -0.09375,0.38671875 -0.1171875,0.46875 -0.9023438,0.46875 -0.1640625,0 -0.28125,0 -0.28125,0.1875 0,0.1171875 0.1289063,0.1171875 0.1523438,0.1171875 0.28125,0 0.9609375,-0.03515625 1.2304687,-0.03515625 0.4101563,0 0.84375,0.03515625 1.2539063,0.03515625 0.058594,0 0.1875,0 0.1875,-0.19921875 0,-0.10546875 -0.09375,-0.10546875 -0.28125,-0.10546875 -0.3632813,0 -0.6445313,0 -0.6445313,-0.1875 0,-0.0351563 0,-0.0585938 0.046875,-0.234375 z m 0,0"
       style="fill:#000000;fill-opacity:1;fill-rule:nonzero;stroke:none"
       aria-label="M"
       transform="matrix(1.3333333,0,0,1.3333333,91.734667,13.501333)" />
    <path
       id="path30"
       d="M 58.0112,64.50989 51.27939,56.43307"
       style="fill:none;stroke:#000000;stroke-width:0.3985;stroke-linecap:butt;stroke-linejoin:miter;stroke-miterlimit:10;stroke-dasharray:none;stroke-opacity:1"
       transform="matrix(1.3333333,0,0,-1.3333333,13.861333,104.208)" />
    <path
       id="path31"
       d="M -2.07224,2.39104 C -1.69365,0.95639 -0.84999,0.27895 0,0 -0.84999,-0.27895 -1.69365,-0.95639 -2.07224,-2.39104"
       style="fill:none;stroke:#000000;stroke-width:0.3985;stroke-linecap:round;stroke-linejoin:round;stroke-miterlimit:10;stroke-dasharray:none;stroke-opacity:1"
       transform="matrix(-0.85361333,1.0241733,1.0241733,0.85361333,82.06376,29.167947)" />
    <path
       id="path32"
       d="m 69.54944,64.50989 6.73183,-8.07682"
       style="fill:none;stroke:#000000;stroke-width:0.3985;stroke-linecap:butt;stroke-linejoin:miter;stroke-miterlimit:10;stroke-dasharray:none;stroke-opacity:1"
       transform="matrix(1.3333333,0,0,-1.3333333,13.861333,104.208)" />
    <path
       id="path33"
       d="M -2.07224,2.39104 C -1.69365,0.95639 -0.84999,0.27895 0,0 -0.84999,-0.27895 -1.69365,-0.95639 -2.07224,-2.39104"
       style="fill:none;stroke:#000000;stroke-width:0.3985;stroke-linecap:round;stroke-linejoin:round;stroke-miterlimit:10;stroke-dasharray:none;stroke-opacity:1"
       transform="matrix(0.85361333,1.0241733,1.0241733,-0.85361333,115.73977,29.167947)" />
  </g>
</svg>
