<?xml version="1.0" encoding="UTF-8" standalone="no"?>
<!-- Created with Inkscape (http://www.inkscape.org/) -->

<svg
   version="1.1"
   id="svg1"
   width="163.60001"
   height="164.77333"
   viewBox="0 0 163.60001 164.77333"
   sodipodi:docname="25-26-2-电路分析基础-期末-题图12.pdf"
   xmlns:inkscape="http://www.inkscape.org/namespaces/inkscape"
   xmlns:sodipodi="http://sodipodi.sourceforge.net/DTD/sodipodi-0.dtd"
   xmlns="http://www.w3.org/2000/svg"
   xmlns:svg="http://www.w3.org/2000/svg">
  <defs
     id="defs1" />
  <sodipodi:namedview
     id="namedview1"
     pagecolor="#ffffff"
     bordercolor="#111111"
     borderopacity="1"
     inkscape:showpageshadow="0"
     inkscape:pageopacity="0"
     inkscape:pagecheckerboard="1"
     inkscape:deskcolor="#d1d1d1">
    <inkscape:page
       x="0"
       y="0"
       inkscape:label="1"
       id="page1"
       width="163.60001"
       height="164.77333"
       margin="0"
       bleed="0" />
  </sodipodi:namedview>
  <g
     id="g1"
     inkscape:groupmode="layer"
     inkscape:label="1">
    <path
       id="path1"
       d="m 0,102.04854 h 13.88995 m 31.74839,0 H 59.5283 89.29247 v -47.0558 m 0,-7.93695 0,-47.05579 H 0"
       style="fill:none;stroke:#000000;stroke-width:0.3985;stroke-linecap:butt;stroke-linejoin:miter;stroke-miterlimit:10;stroke-dasharray:none;stroke-opacity:1"
       transform="matrix(1.3333333,0,0,-1.3333333,12.338667,162.392)" />
    <path
       id="path2"
       d="M 1.58714,0 C 1.58714,0.87656 0.87656,1.58714 0,1.58714 -0.87656,1.58714 -1.58714,0.87656 -1.58714,0 c 0,-0.87656 0.71058,-1.58714 1.58714,-1.58714 0.87656,0 1.58714,0.71058 1.58714,1.58714 z"
       style="fill:#ffffff;fill-opacity:1;fill-rule:nonzero;stroke:#000000;stroke-width:0.3985;stroke-linecap:butt;stroke-linejoin:miter;stroke-miterlimit:10;stroke-dasharray:none;stroke-opacity:1"
       transform="matrix(1.3333333,0,0,-1.3333333,12.338667,162.392)" />
    <path
       id="path3"
       d="m 1.58714,102.04854 c 0,0.87656 -0.71058,1.58714 -1.58714,1.58714 -0.87656,0 -1.58714,-0.71058 -1.58714,-1.58714 0,-0.87657 0.71058,-1.58716 1.58714,-1.58716 0.87656,0 1.58714,0.71059 1.58714,1.58716 z"
       style="fill:#ffffff;fill-opacity:1;fill-rule:nonzero;stroke:#000000;stroke-width:0.3985;stroke-linecap:butt;stroke-linejoin:miter;stroke-miterlimit:10;stroke-dasharray:none;stroke-opacity:1"
       transform="matrix(1.3333333,0,0,-1.3333333,12.338667,162.392)" />
    <path
       id="path4"
       d="m 6.5614063,-2.2955547 c 0.1757812,0 0.3515625,0 0.3515625,-0.1992187 0,-0.1992188 -0.1757813,-0.1992188 -0.3515625,-0.1992188 h -5.390625 c -0.1640625,0 -0.3398438,0 -0.3398438,0.1992188 0,0.1992187 0.1757813,0.1992187 0.3398438,0.1992187 z m 0,0"
       style="fill:#000000;fill-opacity:1;fill-rule:nonzero;stroke:none"
       aria-label="−"
       transform="matrix(1.3333333,0,0,1.3333333,7.1733333,145.36933)" />
    <path
       id="path5"
       d="M 4.0770313,-2.2967344 H 6.854375 c 0.140625,0 0.328125,0 0.328125,-0.1992187 0,-0.1992188 -0.1875,-0.1992188 -0.328125,-0.1992188 H 4.0770313 v -2.7890625 c 0,-0.1289062 0,-0.328125 -0.1992188,-0.328125 -0.1992187,0 -0.1992187,0.1992188 -0.1992187,0.328125 v 2.7890625 H 0.88953125 c -0.140625,0 -0.328125,0 -0.328125,0.1992188 0,0.1992187 0.1875,0.1992187 0.328125,0.1992187 H 3.6785938 v 2.80078128 c 0,0.12890625 0,0.328125 0.1992187,0.328125 0.1992188,0 0.1992188,-0.19921875 0.1992188,-0.328125 z m 0,0"
       style="fill:#000000;fill-opacity:1;fill-rule:nonzero;stroke:none"
       aria-label="+"
       transform="matrix(1.3333333,0,0,1.3333333,7.1733333,49.992)" />
    <g
       id="g5"
       aria-label="˙&#10;U"
       transform="matrix(1.3333333,0,0,1.3333333,10.864,97.116)">
      <path
         id="path6"
         d="m 1.9096172,-6.1397344 c 0,-0.2695312 -0.2226563,-0.5273437 -0.5273438,-0.5273437 -0.3398437,0 -0.53906246,0.28125 -0.53906246,0.5273437 0,0.2695313 0.23437496,0.5273438 0.52734376,0.5273438 0.3398437,0 0.5390625,-0.2695313 0.5390625,-0.5273438 z m 0,0"
         style="fill:#000000;fill-opacity:1;fill-rule:nonzero;stroke:none" />
      <path
         id="path7"
         d="m 3.4887187,-3.2334844 c 0.09375,-0.4101562 0.28125,-0.7148437 1.078125,-0.7382812 0.046875,0 0.1640625,-0.011719 0.1640625,-0.1992188 0,-0.011719 0,-0.1171875 -0.1289062,-0.1171875 -0.328125,0 -0.6796875,0.035156 -1.0195313,0.035156 -0.3398437,0 -0.703125,-0.035156 -1.03125,-0.035156 -0.058594,0 -0.1757812,0 -0.1757812,0.1992188 0,0.1171875 0.09375,0.1171875 0.1757812,0.1171875 0.5625,0.011719 0.6796875,0.2109375 0.6796875,0.4335937 0,0.035156 -0.023437,0.1757813 -0.035156,0.2109375 L 2.305125,0.22354688 C 1.9652812,1.5594844 0.81684375,2.4266719 -0.17925,2.4266719 c -0.6796875,0 -1.21875,-0.4335938 -1.21875,-1.2890625 0,-0.023437 0,-0.33984377 0.1171875,-0.77343752 L -0.319875,-3.5147344 c 0.09375,-0.3632812 0.10546875,-0.4570312 0.83203125,-0.4570312 0.26953125,0 0.33984375,0 0.33984375,-0.1992188 0,-0.1171875 -0.10546875,-0.1171875 -0.140625,-0.1171875 -0.26953125,0 -0.99609375,0.035156 -1.265625,0.035156 -0.29296875,0 -0.9960938,-0.035156 -1.2890625,-0.035156 -0.082031,0 -0.1875,0 -0.1875,0.1992188 0,0.1171875 0.09375,0.1171875 0.28125,0.1171875 0.011719,0 0.2109375,0 0.375,0.011719 0.1757812,0.023437 0.2695312,0.035156 0.2695312,0.1640625 0,0.058594 -0.1054687,0.4804688 -0.1757812,0.703125 l -0.2109375,0.878906 c -0.09375,0.3867187 -0.5742188,2.27343748 -0.609375,2.46093748 -0.070312,0.28125 -0.070312,0.43359375 -0.070312,0.57421875 0,1.21874997 0.9023437,1.92187497 1.95703125,1.92187497 1.25390625,0 2.48437495,-1.125 2.81249995,-2.44921872 z m 0,0"
         style="fill:#000000;fill-opacity:1;fill-rule:nonzero;stroke:none" />
    </g>
    <path
       id="path8"
       d="M 13.88995,108.00139 H 45.63833 V 96.09569 H 13.88995 Z"
       style="fill:none;stroke:#000000;stroke-width:0.797;stroke-linecap:butt;stroke-linejoin:miter;stroke-miterlimit:10;stroke-dasharray:none;stroke-opacity:1"
       transform="matrix(1.3333333,0,0,-1.3333333,12.338667,162.392)" />
    <path
       id="path9"
       d="M 1.2662109,-0.76313281 2.3208984,-1.7943828 c 1.5585938,-1.3710938 2.15625,-1.9101563 2.15625,-2.90625 0,-1.1367188 -0.9023437,-1.9335938 -2.1210937,-1.9335938 -1.125,0 -1.85156251,0.9140625 -1.85156251,1.8046875 0,0.5507813 0.4921875,0.5507813 0.52734371,0.5507813 0.1640625,0 0.515625,-0.1171875 0.515625,-0.5273438 0,-0.2578125 -0.1875,-0.515625 -0.5273437,-0.515625 -0.0820313,0 -0.10546876,0 -0.12890626,0.011719 0.22265626,-0.6445313 0.76171876,-1.0195313 1.33593746,-1.0195313 0.9140625,0 1.3359375,0.8085938 1.3359375,1.6289063 0,0.796875 -0.4921875,1.5820312 -1.0429687,2.203125 L 0.60996094,-0.36469531 C 0.50449219,-0.25922656 0.50449219,-0.23578906 0.50449219,-0.00141406 H 4.1958984 l 0.28125,-1.73437504 H 4.2193359 c -0.046875,0.3046875 -0.1171875,0.73828129 -0.2109375,0.89062504 -0.070312,0.0820313 -0.7265625,0.0820313 -0.9492187,0.0820313 z M 13.374609,-1.6186016 h -0.246093 c -0.04687,0.2578125 -0.08203,0.4921875 -0.175782,0.72656254 -0.04687,0.1640625 -0.08203,0.24609375 -0.65625,0.24609375 h -0.796875 c 0.128907,-0.56249999 0.433594,-1.04296879 0.878907,-1.69921879 0.46875,-0.703125 0.878906,-1.3945312 0.878906,-2.1796875 0,-1.3828125 -1.335938,-2.4960937 -3.023438,-2.4960937 -1.7109371,0 -3.0351559,1.1367187 -3.0351559,2.4960937 0,0.7851563 0.3984375,1.4765625 0.8671875,2.1796875 0.4453125,0.65625 0.7617188,1.1367188 0.890625,1.69921879 h -0.796875 c -0.5742187,0 -0.609375,-0.0820313 -0.65625,-0.234375 C 7.4214844,-1.1029766 7.3746094,-1.3607891 7.3277344,-1.6186016 H 7.0699219 l 0.328125,1.61718754 h 1.59375 c 0.2226562,0 0.2578125,0 0.2578125,-0.2109375 0,-0.69140625 -0.3164063,-1.57031254 -0.5390625,-2.21484374 -0.2109375,-0.5742188 -0.4921875,-1.359375 -0.4921875,-2.109375 0,-1.59375 1.1015625,-2.2734375 2.0039066,-2.2734375 0.960937,0 2.015625,0.7265625 2.015625,2.2734375 0,0.75 -0.269532,1.5117187 -0.5625,2.3203125 -0.152344,0.421875 -0.46875,1.31249999 -0.46875,2.00390624 0,0.2109375 0.03516,0.2109375 0.257812,0.2109375 h 1.582031 z m 0,0"
       style="fill:#000000;fill-opacity:1;fill-rule:nonzero;stroke:none"
       aria-label="2Ω"
       transform="matrix(1.3333333,0,0,1.3333333,42.8,13.302667)" />
    <path
       id="path10"
       d="m 5.20876,102.04854 v -1.98425 l 4.21654,1.98425 -4.21654,1.98425 z"
       style="fill:#000000;fill-opacity:1;fill-rule:nonzero;stroke:#000000;stroke-width:0.3985;stroke-linecap:butt;stroke-linejoin:miter;stroke-miterlimit:10;stroke-dasharray:none;stroke-opacity:1"
       transform="matrix(1.3333333,0,0,-1.3333333,12.338667,162.392)" />
    <g
       id="g10"
       aria-label="˙&#10;I"
       transform="matrix(1.3333333,0,0,1.3333333,21.229333,18.276)">
      <path
         id="path11"
         d="m 1.9110078,-6.1396172 c 0,-0.2695312 -0.2226562,-0.5273437 -0.5273437,-0.5273437 -0.3398438,0 -0.53906254,0.28125 -0.53906254,0.5273437 0,0.2695313 0.23437504,0.5273438 0.52734374,0.5273438 0.3398438,0 0.5390625,-0.2695313 0.5390625,-0.5273438 z m 0,0"
         style="fill:#000000;fill-opacity:1;fill-rule:nonzero;stroke:none" />
      <path
         id="path12"
         d="m 1.42175,-3.5175469 c 0.09375,-0.3632812 0.1171875,-0.4570312 0.9023437,-0.4570312 0.2460938,0 0.3164063,0 0.3164063,-0.1875 0,-0.1289063 -0.1054688,-0.1289063 -0.140625,-0.1289063 -0.2929688,0 -1.03125,0.035156 -1.3125,0.035156 -0.3046875,0 -1.03125,-0.035156 -1.3359375,-0.035156 -0.0585938,0 -0.19921875,0 -0.19921875,0.1992188 0,0.1171875 0.09375,0.1171875 0.28125,0.1171875 0.421875,0 0.69140625,0 0.69140625,0.1875 0,0.046875 0,0.070312 -0.0234375,0.1640625 l -1.34765625,5.3671875 c -0.0820313,0.3632812 -0.1171875,0.46875 -0.90234375,0.46875 -0.2226563,0 -0.3164063,0 -0.3164063,0.1992187 0,0.1054688 0.1171875,0.1054688 0.1523438,0.1054688 0.28125,0 1.0078125,-0.035156 1.30078125,-0.035156 0.3046875,0 1.03125,0.035156 1.3359375,0.035156 0.0820313,0 0.19921875,0 0.19921875,-0.1875 0,-0.1171875 -0.0820313,-0.1171875 -0.3046875,-0.1171875 -0.17578125,0 -0.22265625,0 -0.421875,-0.023437 -0.2109375,-0.023437 -0.24609375,-0.058594 -0.24609375,-0.1757813 0,-0.070312 0.01171875,-0.1523437 0.03515625,-0.2226562 z m 0,0"
         style="fill:#000000;fill-opacity:1;fill-rule:nonzero;stroke:none" />
    </g>
    <path
       id="path13"
       d="M 101.19818,54.99274 H 77.38675 m 23.81143,-7.93695 H 77.38675"
       style="fill:none;stroke:#000000;stroke-width:0.797;stroke-linecap:butt;stroke-linejoin:miter;stroke-miterlimit:10;stroke-dasharray:none;stroke-opacity:1"
       transform="matrix(1.3333333,0,0,-1.3333333,12.338667,162.392)" />
    <path
       id="path14"
       d="m 7.5702422,-6.9257891 c 0,-0.023437 -0.023437,-0.09375 -0.1054688,-0.09375 -0.035156,0 -0.046875,0.011719 -0.1523437,0.1171875 l -0.703125,0.7617188 c -0.082031,-0.140625 -0.5390625,-0.8789063 -1.6523438,-0.8789063 -2.2148437,0 -4.45312496,2.203125 -4.45312496,4.5117188 0,1.64062499 1.17187496,2.73046874 2.69531246,2.73046874 0.8671875,0 1.6171875,-0.3984375 2.1445313,-0.85546875 0.9375,-0.82031249 1.1015625,-1.72265629 1.1015625,-1.75781249 0,-0.1054688 -0.1054688,-0.1054688 -0.1171875,-0.1054688 -0.058594,0 -0.1171875,0.023437 -0.1289063,0.1054688 -0.09375,0.2929687 -0.3164062,0.9960937 -1.0078125,1.57031249 -0.6914062,0.5625 -1.3125,0.7265625 -1.8398437,0.7265625 -0.890625,0 -1.9453125,-0.515625 -1.9453125,-2.06249999 0,-0.5742188 0.2109375,-2.1914063 1.2070312,-3.3515625 0.609375,-0.703125 1.5351563,-1.2070313 2.4257813,-1.2070313 1.0195312,0 1.6054687,0.7734375 1.6054687,1.921875 0,0.3984375 -0.035156,0.4101563 -0.035156,0.5039063 0,0.1054687 0.1171875,0.1054687 0.1523437,0.1054687 0.1289063,0 0.1289063,-0.023437 0.1757813,-0.1992187 z m 0,0"
       style="fill:#000000;fill-opacity:1;fill-rule:nonzero;stroke:none"
       aria-label="C"
       transform="matrix(1.3333333,0,0,1.3333333,151.004,97.222667)" />
    <path
       id="path15"
       d="m 59.5283,102.04854 -1e-5,-9.63796 m 0,-31.74838 1e-5,-9.63794 -1e-5,-9.63796 m 0,-31.74838 L 59.5283,0"
       style="fill:none;stroke:#000000;stroke-width:0.3985;stroke-linecap:butt;stroke-linejoin:miter;stroke-miterlimit:10;stroke-dasharray:none;stroke-opacity:1"
       transform="matrix(1.3333333,0,0,-1.3333333,12.338667,162.392)" />
    <path
       id="path16"
       d="m 53.57544,60.6622 v 31.74838 h 11.9057 V 60.6622 Z"
       style="fill:none;stroke:#000000;stroke-width:0.797;stroke-linecap:butt;stroke-linejoin:miter;stroke-miterlimit:10;stroke-dasharray:none;stroke-opacity:1"
       transform="matrix(1.3333333,0,0,-1.3333333,12.338667,162.392)" />
    <path
       id="path17"
       d="m 61.11546,102.04854 c 0,0.87656 -0.71058,1.58714 -1.58716,1.58714 -0.87655,0 -1.58714,-0.71058 -1.58714,-1.58714 0,-0.87657 0.71059,-1.58716 1.58714,-1.58716 0.87658,0 1.58716,0.71059 1.58716,1.58716 z"
       style="fill:#000000;fill-opacity:1;fill-rule:nonzero;stroke:#000000;stroke-width:0.3985;stroke-linecap:butt;stroke-linejoin:miter;stroke-miterlimit:10;stroke-dasharray:none;stroke-opacity:1"
       transform="matrix(1.3333333,0,0,-1.3333333,12.338667,162.392)" />
    <path
       id="path18"
       d="m 1.3126094,-3.2692578 v -0.234375 c 0,-2.5195313 1.2421875,-2.8828125 1.7460937,-2.8828125 0.234375,0 0.65625,0.058594 0.8789063,0.3984375 -0.1523438,0 -0.5507813,0 -0.5507813,0.4453125 0,0.3164062 0.234375,0.4570312 0.4570313,0.4570312 0.1640625,0 0.4570312,-0.082031 0.4570312,-0.46875 0,-0.5976562 -0.4335937,-1.078125 -1.265625,-1.078125 -1.2773437,0 -2.61328122,1.2890625 -2.61328122,3.4804688 0,2.66015624 1.14843752,3.37499999 2.07421872,3.37499999 1.1132813,0 2.0507813,-0.9375 2.0507813,-2.24999999 0,-1.265625 -0.8789063,-2.2265625 -1.9921875,-2.2265625 -0.6679688,0 -1.0429688,0.5039062 -1.2421875,0.984375 z m 1.1835937,3.21093749 c -0.6210937,0 -0.9257812,-0.59765625 -0.984375,-0.75 C 1.3360469,-1.2770703 1.3360469,-2.0739453 1.3360469,-2.2497266 c 0,-0.7734375 0.3164062,-1.7695312 1.21875,-1.7695312 0.1523437,0 0.609375,0 0.9257812,0.609375 0.1757813,0.375 0.1757813,0.8789062 0.1757813,1.3710937 0,0.4804688 0,0.9726563 -0.1640625,1.33593754 -0.3046875,0.59765625 -0.7617188,0.64453125 -0.9960938,0.64453125 z M 13.374133,-1.6169141 h -0.246094 c -0.04687,0.2578125 -0.08203,0.4921875 -0.175781,0.72656254 -0.04687,0.1640625 -0.08203,0.24609375 -0.65625,0.24609375 h -0.796875 c 0.128906,-0.56249999 0.433594,-1.04296879 0.878906,-1.69921879 0.46875,-0.703125 0.878906,-1.3945312 0.878906,-2.1796875 0,-1.3828125 -1.335937,-2.4960937 -3.023437,-2.4960937 -1.7109377,0 -3.0351564,1.1367187 -3.0351564,2.4960937 0,0.7851563 0.3984375,1.4765625 0.8671875,2.1796875 0.4453125,0.65625 0.7617187,1.1367188 0.890625,1.69921879 h -0.796875 c -0.5742188,0 -0.609375,-0.0820313 -0.65625,-0.234375 C 7.4210078,-1.1012891 7.3741328,-1.3591016 7.3272578,-1.6169141 H 7.0694453 l 0.328125,1.6171875375 h 1.59375 c 0.2226563,0 0.2578125,0 0.2578125,-0.2109374975 0,-0.69140625 -0.3164062,-1.57031254 -0.5390625,-2.21484374 -0.2109375,-0.5742188 -0.4921875,-1.359375 -0.4921875,-2.109375 0,-1.59375 1.1015625,-2.2734375 2.0039062,-2.2734375 0.960938,0 2.015625,0.7265625 2.015625,2.2734375 0,0.75 -0.269531,1.5117187 -0.5625,2.3203125 -0.152344,0.421875 -0.46875,1.31249999 -0.46875,2.00390624 0,0.2109374975 0.03516,0.2109374975 0.257813,0.2109374975 h 1.582031 z m 0,0"
       style="fill:#000000;fill-opacity:1;fill-rule:nonzero;stroke:none"
       aria-label="6Ω"
       transform="matrix(1.3333333,0,0,1.3333333,62.382667,63.206667)" />
    <path
       id="path19"
       d="m 59.3689,41.78482 c 3.28755,0 5.95256,-1.82136 5.95256,-4.06818 0,-2.24679 -2.66501,-4.06816 -5.95256,-4.06816 3.28755,0 5.95256,-1.82136 5.95256,-4.06818 0,-2.2468 -2.66501,-4.06817 -5.95256,-4.06817 3.28755,0 5.95256,-1.82136 5.95256,-4.06816 0,-2.24681 -2.66501,-4.06817 -5.95256,-4.06817 3.28755,0 5.95256,-1.82137 5.95256,-4.06818 0,-2.2468 -2.66501,-4.06816 -5.95256,-4.06816"
       style="fill:none;stroke:#000000;stroke-width:0.797;stroke-linecap:butt;stroke-linejoin:bevel;stroke-miterlimit:10;stroke-dasharray:none;stroke-opacity:1"
       transform="matrix(1.3333333,0,0,-1.3333333,12.338667,162.392)" />
    <path
       id="path20"
       d="m 61.11546,0 c 0,0.87656 -0.71058,1.58714 -1.58716,1.58714 -0.87655,0 -1.58714,-0.71058 -1.58714,-1.58714 0,-0.87656 0.71059,-1.58714 1.58714,-1.58714 0.87658,0 1.58716,0.71058 1.58716,1.58714 z"
       style="fill:#000000;fill-opacity:1;fill-rule:nonzero;stroke:#000000;stroke-width:0.3985;stroke-linecap:butt;stroke-linejoin:miter;stroke-miterlimit:10;stroke-dasharray:none;stroke-opacity:1"
       transform="matrix(1.3333333,0,0,-1.3333333,12.338667,162.392)" />
    <g
       id="g20"
       aria-label="j&#10;6Ω"
       transform="matrix(1.3333333,0,0,1.3333333,64.137333,131.23867)">
      <path
         id="path21"
         d="M 2.0971953,0.50361719 V -4.4065391 l -1.52343749,0.1171875 v 0.3046875 c 0.77343749,0 0.85546879,0.070312 0.85546879,0.5625 v 3.93750004 c 0,0.4453125 -0.082031,1.31249996 -0.72656254,1.31249996 -0.046875,0 -0.26953125,0 -0.5390625,-0.1289062 0.15234375,-0.046875 0.3515625,-0.1875 0.3515625,-0.4570313 0,-0.25781246 -0.17578125,-0.45703121 -0.45703125,-0.45703121 -0.28125,0 -0.45703125,0.19921875 -0.45703125,0.45703121 0,0.515625 0.5625,0.796875 1.125,0.796875 0.75000004,0 1.37109374,-0.6328125 1.37109374,-1.53515621 z m 0,-6.51562499 c 0,-0.2695313 -0.234375,-0.5273438 -0.5390625,-0.5273438 -0.328125,0 -0.5273437,0.2695313 -0.5273437,0.5273438 0,0.2695312 0.2226562,0.5273437 0.5273437,0.5273437 0.3398438,0 0.5390625,-0.28125 0.5390625,-0.5273437 z m 0,0"
         style="fill:#000000;fill-opacity:1;fill-rule:nonzero;stroke:none" />
      <path
         id="path22"
         d="m 4.3618438,-3.2698203 v -0.234375 c 0,-2.5195313 1.2421875,-2.8828125 1.7460937,-2.8828125 0.234375,0 0.65625,0.058594 0.8789063,0.3984375 -0.1523438,0 -0.5507813,0 -0.5507813,0.4453125 0,0.3164062 0.234375,0.4570312 0.4570313,0.4570312 0.1640625,0 0.4570312,-0.082031 0.4570312,-0.46875 0,-0.5976562 -0.4335937,-1.078125 -1.265625,-1.078125 -1.2773437,0 -2.6132812,1.2890625 -2.6132812,3.4804688 0,2.66015624 1.1484375,3.37499999 2.0742187,3.37499999 1.1132813,0 2.0507813,-0.9375 2.0507813,-2.24999999 0,-1.265625 -0.8789063,-2.2265625 -1.9921875,-2.2265625 -0.6679688,0 -1.0429688,0.5039062 -1.2421875,0.984375 z m 1.1835937,3.21093749 c -0.6210937,0 -0.9257812,-0.59765625 -0.984375,-0.75 C 4.3852813,-1.2776328 4.3852813,-2.0745078 4.3852813,-2.2502891 c 0,-0.7734375 0.3164062,-1.7695312 1.21875,-1.7695312 0.1523437,0 0.609375,0 0.9257812,0.609375 0.1757813,0.375 0.1757813,0.8789062 0.1757813,1.3710937 0,0.4804688 0,0.9726563 -0.1640625,1.33593754 -0.3046875,0.59765625 -0.7617188,0.64453125 -0.9960938,0.64453125 z M 16.423367,-1.6174766 h -0.246094 c -0.04687,0.2578125 -0.08203,0.4921875 -0.175781,0.72656254 -0.04687,0.1640625 -0.08203,0.24609375 -0.65625,0.24609375 h -0.796875 c 0.128906,-0.56249999 0.433594,-1.04296879 0.878906,-1.69921879 0.46875,-0.703125 0.878907,-1.3945312 0.878907,-2.1796875 0,-1.3828125 -1.335938,-2.4960937 -3.023438,-2.4960937 -1.710937,0 -3.035156,1.1367187 -3.035156,2.4960937 0,0.7851563 0.398437,1.4765625 0.867187,2.1796875 0.445313,0.65625 0.761719,1.1367188 0.890625,1.69921879 h -0.796875 c -0.574218,0 -0.609375,-0.0820313 -0.65625,-0.234375 C 10.470242,-1.1018516 10.423367,-1.3596641 10.376492,-1.6174766 H 10.11868 l 0.328125,1.6171875375 h 1.59375 c 0.222656,0 0.257812,0 0.257812,-0.2109374975 0,-0.69140625 -0.316406,-1.57031254 -0.539062,-2.21484374 -0.210938,-0.5742188 -0.492188,-1.359375 -0.492188,-2.109375 0,-1.59375 1.101563,-2.2734375 2.003906,-2.2734375 0.960938,0 2.015625,0.7265625 2.015625,2.2734375 0,0.75 -0.269531,1.5117187 -0.5625,2.3203125 -0.152343,0.421875 -0.46875,1.31249999 -0.46875,2.00390624 0,0.2109374975 0.03516,0.2109374975 0.257813,0.2109374975 h 1.582031 z m 0,0"
         style="fill:#000000;fill-opacity:1;fill-rule:nonzero;stroke:none" />
    </g>
  </g>
</svg>
